WaldbaYigezuBisratGoffer-Regular.ufo
<glyph name="numbersign" format="2">
  <advance width="1381"/>
  <unicode hex="0023"/>
  <outline>
    <contour>
      <point x="543.261" y="1045.09" type="line"/>
      <point x="877.044" y="1045.09" type="line"/>
      <point x="904.667" y="1516.99" type="line"/>
      <point x="1012.86" y="1516.99" type="line"/>
      <point x="985.235" y="1045.09" type="line"/>
      <point x="1201.62" y="1045.09" type="line"/>
      <point x="1201.62" y="895.459" type="line"/>
      <point x="978.33" y="895.459" type="line"/>
      <point x="955.31" y="511.033" type="line"/>
      <point x="1201.62" y="511.033" type="line"/>
      <point x="1201.62" y="361.406" type="line"/>
      <point x="948.404" y="361.406" type="line"/>
      <point x="920.781" y="-131.211" type="line"/>
      <point x="812.589" y="-131.211" type="line"/>
      <point x="840.212" y="361.406" type="line"/>
      <point x="504.127" y="361.406" type="line"/>
      <point x="478.806" y="-131.211" type="line"/>
      <point x="370.614" y="-131.211" type="line"/>
      <point x="395.936" y="361.406" type="line"/>
      <point x="179.552" y="361.406" type="line"/>
      <point x="179.552" y="511.033" type="line"/>
      <point x="405.144" y="511.033" type="line"/>
      <point x="428.163" y="895.459" type="line"/>
      <point x="179.552" y="895.459" type="line"/>
      <point x="179.552" y="1045.09" type="line"/>
      <point x="435.069" y="1045.09" type="line"/>
      <point x="462.692" y="1516.99" type="line"/>
      <point x="570.884" y="1516.99" type="line"/>
    </contour>
    <contour>
      <point x="513.335" y="511.033" type="line"/>
      <point x="847.118" y="511.033" type="line"/>
      <point x="870.138" y="895.459" type="line"/>
      <point x="536.355" y="895.459" type="line"/>
    </contour>
  </outline>
</glyph>
<glyph name="dollar" format="2">
  <advance width="1381"/>
  <unicode hex="0024"/>
  <outline>
    <contour>
      <point x="1095.73" y="1259.17" type="line"/>
      <point x="1093.43" y="1236.15"/>
      <point x="1091.13" y="1183.2"/>
      <point x="1091.13" y="1148.67" type="qcurve" smooth="yes"/>
      <point x="1091.13" y="1038.18"/>
      <point x="1109.54" y="870.138"/>
      <point x="1116.45" y="812.589" type="qcurve"/>
      <point x="1010.56" y="801.079" type="line"/>
      <point x="994.443" y="913.875"/>
      <point x="929.989" y="1049.69"/>
      <point x="854.024" y="1123.35"/>
      <point x="773.456" y="1150.98"/>
      <point x="741.229" y="1157.88" type="qcurve"/>
      <point x="741.229" y="688.284" type="line"/>
      <point x="812.589" y="667.566"/>
      <point x="953.008" y="621.527"/>
      <point x="1063.5" y="550.167"/>
      <point x="1130.26" y="439.673"/>
      <point x="1130.26" y="356.803" type="qcurve" smooth="yes"/>
      <point x="1130.26" y="283.14"/>
      <point x="1070.41" y="170.344"/>
      <point x="964.518" y="87.4742"/>
      <point x="821.797" y="39.1332"/>
      <point x="741.229" y="32.2273" type="qcurve"/>
      <point x="741.229" y="-313.065" type="line"/>
      <point x="630.735" y="-313.065" type="line"/>
      <point x="630.735" y="32.2273" type="line"/>
      <point x="612.319" y="32.2273"/>
      <point x="582.394" y="34.5293"/>
      <point x="540.959" y="46.039"/>
      <point x="483.41" y="62.1527"/>
      <point x="439.673" y="75.9644" type="qcurve"/>
      <point x="414.351" y="85.1722"/>
      <point x="393.634" y="87.4742"/>
      <point x="389.03" y="87.4742" type="qcurve" smooth="yes"/>
      <point x="366.01" y="87.4742"/>
      <point x="359.105" y="59.8508"/>
      <point x="356.803" y="20.7176" type="qcurve"/>
      <point x="248.611" y="20.7176" type="line"/>
      <point x="255.517" y="147.325"/>
      <point x="241.705" y="352.199"/>
      <point x="225.591" y="467.296" type="qcurve"/>
      <point x="333.783" y="467.296" type="line"/>
      <point x="340.689" y="428.163"/>
      <point x="368.312" y="324.575"/>
      <point x="430.465" y="227.893"/>
      <point x="540.959" y="154.231"/>
      <point x="630.735" y="142.721" type="qcurve"/>
      <point x="630.735" y="600.809" type="line"/>
      <point x="573.186" y="616.923"/>
      <point x="444.277" y="658.358"/>
      <point x="336.085" y="732.021"/>
      <point x="264.724" y="847.118"/>
      <point x="264.724" y="936.894" type="qcurve" smooth="yes"/>
      <point x="264.724" y="1081.92"/>
      <point x="464.994" y="1256.87"/>
      <point x="630.735" y="1270.68" type="qcurve"/>
      <point x="630.735" y="1510.08" type="line"/>
      <point x="741.229" y="1510.08" type="line"/>
      <point x="741.229" y="1270.68" type="line"/>
      <point x="819.495" y="1261.47"/>
      <point x="900.063" y="1222.34" type="qcurve" smooth="yes"/>
      <point x="929.989" y="1208.52"/>
      <point x="946.102" y="1201.62"/>
      <point x="955.31" y="1201.62" type="qcurve" smooth="yes"/>
      <point x="973.726" y="1201.62"/>
      <point x="982.934" y="1224.64"/>
      <point x="987.537" y="1259.17" type="qcurve"/>
    </contour>
    <contour>
      <point x="630.735" y="1160.18" type="line"/>
      <point x="603.111" y="1155.58"/>
      <point x="520.241" y="1137.16"/>
      <point x="441.975" y="1088.82"/>
      <point x="384.426" y="1008.25"/>
      <point x="384.426" y="941.498" type="qcurve" smooth="yes"/>
      <point x="384.426" y="886.252"/>
      <point x="428.163" y="814.891"/>
      <point x="497.222" y="766.55"/>
      <point x="584.696" y="734.323"/>
      <point x="630.735" y="720.511" type="qcurve"/>
    </contour>
    <contour>
      <point x="741.229" y="142.721" type="line"/>
      <point x="778.06" y="145.023"/>
      <point x="870.138" y="165.741"/>
      <point x="953.008" y="214.082"/>
      <point x="1010.56" y="294.65"/>
      <point x="1010.56" y="354.501" type="qcurve" smooth="yes"/>
      <point x="1010.56" y="407.446"/>
      <point x="962.216" y="478.806"/>
      <point x="886.252" y="527.147"/>
      <point x="789.57" y="559.374"/>
      <point x="741.229" y="573.186" type="qcurve"/>
    </contour>
  </outline>
</glyph>
<glyph name="percent" format="2">
  <advance width="600"/>
  <unicode hex="0025"/>
  <outline>
    <contour>
      <point x="401" y="253" type="qcurve" smooth="yes"/>
      <point x="436" y="253"/>
      <point x="489" y="229"/>
      <point x="525" y="190"/>
      <point x="543" y="142"/>
      <point x="543" y="119" type="qcurve" smooth="yes"/>
      <point x="543" y="95"/>
      <point x="524" y="48"/>
      <point x="488" y="10"/>
      <point x="435" y="-14"/>
      <point x="401" y="-14" type="qcurve" smooth="yes"/>
      <point x="366" y="-14"/>
      <point x="314" y="10"/>
      <point x="278" y="49"/>
      <point x="260" y="96"/>
      <point x="260" y="119" type="qcurve" smooth="yes"/>
      <point x="260" y="141"/>
      <point x="278" y="189"/>
      <point x="313" y="228"/>
      <point x="366" y="253"/>
    </contour>
    <contour>
      <point x="401" y="206" type="qcurve" smooth="yes"/>
      <point x="380" y="206"/>
      <point x="348" y="191"/>
      <point x="326" y="167"/>
      <point x="314" y="136"/>
      <point x="314" y="120" type="qcurve" smooth="yes"/>
      <point x="314" y="86"/>
      <point x="359" y="33"/>
      <point x="401" y="33" type="qcurve" smooth="yes"/>
      <point x="422" y="33"/>
      <point x="455" y="48"/>
      <point x="478" y="73"/>
      <point x="489" y="104"/>
      <point x="489" y="120" type="qcurve" smooth="yes"/>
      <point x="489" y="135"/>
      <point x="478" y="166"/>
      <point x="456" y="191"/>
      <point x="423" y="206"/>
    </contour>
    <contour>
      <point x="186" y="614" type="qcurve" smooth="yes"/>
      <point x="220" y="614"/>
      <point x="273" y="590"/>
      <point x="309" y="551"/>
      <point x="328" y="504"/>
      <point x="328" y="480" type="qcurve" smooth="yes"/>
      <point x="328" y="456"/>
      <point x="309" y="408"/>
      <point x="273" y="370"/>
      <point x="220" y="347"/>
      <point x="186" y="347" type="qcurve" smooth="yes"/>
      <point x="153" y="347"/>
      <point x="100" y="371"/>
      <point x="64" y="408"/>
      <point x="45" y="456"/>
      <point x="45" y="480" type="qcurve" smooth="yes"/>
      <point x="45" y="503"/>
      <point x="63" y="551"/>
      <point x="99" y="590"/>
      <point x="151" y="614"/>
    </contour>
    <contour>
      <point x="187" y="567" type="qcurve" smooth="yes"/>
      <point x="165" y="567"/>
      <point x="132" y="552"/>
      <point x="110" y="527"/>
      <point x="99" y="496"/>
      <point x="99" y="480" type="qcurve" smooth="yes"/>
      <point x="99" y="464"/>
      <point x="111" y="433"/>
      <point x="133" y="409"/>
      <point x="166" y="394"/>
      <point x="187" y="394" type="qcurve" smooth="yes"/>
      <point x="229" y="394"/>
      <point x="274" y="446"/>
      <point x="274" y="480" type="qcurve" smooth="yes"/>
      <point x="274" y="513"/>
      <point x="229" y="567"/>
    </contour>
    <contour>
      <point x="107" y="193" type="line"/>
      <point x="87" y="240" type="line"/>
      <point x="493" y="420" type="line"/>
      <point x="513" y="373" type="line"/>
    </contour>
  </outline>
</glyph>
<glyph name="ampersand" format="2">
  <advance width="1381"/>
  <unicode hex="0026"/>
  <outline>
    <contour>
      <point x="1217.73" y="536.355" type="line"/>
      <point x="1079.62" y="536.355" type="line"/>
      <point x="1038.18" y="414.351"/>
      <point x="978.33" y="287.744"/>
      <point x="959.914" y="255.517" type="qcurve"/>
      <point x="1061.2" y="108.192" type="line"/>
      <point x="1233.85" y="108.192" type="line"/>
      <point x="1233.85" y="0" type="line"/>
      <point x="971.424" y="0" type="line"/>
      <point x="877.044" y="138.117" type="line"/>
      <point x="856.326" y="115.098"/>
      <point x="801.079" y="62.1527"/>
      <point x="722.813" y="13.8117"/>
      <point x="621.527" y="-18.4156"/>
      <point x="559.374" y="-18.4156" type="qcurve" smooth="yes"/>
      <point x="478.806" y="-18.4156"/>
      <point x="354.501" y="39.1332"/>
      <point x="269.328" y="135.815"/>
      <point x="225.591" y="255.517"/>
      <point x="225.591" y="317.669" type="qcurve" smooth="yes"/>
      <point x="225.591" y="435.069"/>
      <point x="368.312" y="642.245"/>
      <point x="499.524" y="690.586" type="qcurve"/>
      <point x="499.524" y="697.491"/>
      <point x="490.316" y="706.699" type="qcurve"/>
      <point x="451.183" y="764.248"/>
      <point x="402.842" y="837.911"/>
      <point x="375.218" y="897.761"/>
      <point x="366.01" y="948.404"/>
      <point x="366.01" y="980.632" type="qcurve" smooth="yes"/>
      <point x="366.01" y="1093.43"/>
      <point x="524.845" y="1243.05"/>
      <point x="662.962" y="1243.05" type="qcurve" smooth="yes"/>
      <point x="713.605" y="1243.05"/>
      <point x="801.079" y="1222.34"/>
      <point x="844.816" y="1203.92" type="qcurve"/>
      <point x="893.157" y="1185.51"/>
      <point x="925.385" y="1178.6"/>
      <point x="939.196" y="1178.6" type="qcurve" smooth="yes"/>
      <point x="966.82" y="1178.6"/>
      <point x="1010.56" y="1192.41"/>
      <point x="1024.37" y="1197.02" type="qcurve"/>
      <point x="918.479" y="1031.27" type="line"/>
      <point x="874.742" y="1063.5"/>
      <point x="750.436" y="1132.56"/>
      <point x="662.962" y="1132.56" type="qcurve" smooth="yes"/>
      <point x="614.621" y="1132.56"/>
      <point x="552.468" y="1104.94"/>
      <point x="515.637" y="1061.2"/>
      <point x="501.826" y="1010.56"/>
      <point x="501.826" y="989.839" type="qcurve" smooth="yes"/>
      <point x="501.826" y="948.404"/>
      <point x="547.865" y="867.836"/>
      <point x="591.602" y="803.381" type="qcurve" smooth="yes"/>
      <point x="890.855" y="359.105" type="line"/>
      <point x="911.573" y="402.842"/>
      <point x="936.894" y="458.088"/>
      <point x="957.612" y="513.335"/>
      <point x="980.632" y="584.696"/>
      <point x="999.047" y="644.547" type="qcurve"/>
      <point x="1217.73" y="644.547" type="line"/>
    </contour>
    <contour>
      <point x="561.676" y="607.715" type="line"/>
      <point x="529.449" y="593.904"/>
      <point x="464.994" y="547.865"/>
      <point x="412.049" y="483.41"/>
      <point x="377.52" y="398.238"/>
      <point x="377.52" y="345.293" type="qcurve" smooth="yes"/>
      <point x="377.52" y="303.858"/>
      <point x="400.54" y="216.383"/>
      <point x="453.485" y="145.023"/>
      <point x="531.751" y="101.286"/>
      <point x="586.998" y="101.286" type="qcurve" smooth="yes"/>
      <point x="630.735" y="101.286"/>
      <point x="704.397" y="128.909"/>
      <point x="759.644" y="170.344"/>
      <point x="801.079" y="214.082"/>
      <point x="814.891" y="230.195" type="qcurve"/>
    </contour>
  </outline>
</glyph>
<glyph name="period" format="2">
  <advance width="1381"/>
  <unicode hex="002E"/>
  <outline>
    <contour>
      <point x="690.586" y="273.932" type="qcurve" smooth="yes"/>
      <point x="725.115" y="273.932"/>
      <point x="787.268" y="250.913"/>
      <point x="837.911" y="209.478"/>
      <point x="867.836" y="151.929"/>
      <point x="867.836" y="117.4" type="qcurve" smooth="yes"/>
      <point x="867.836" y="80.5683"/>
      <point x="835.609" y="23.0195"/>
      <point x="784.966" y="-18.4156"/>
      <point x="722.813" y="-39.1332"/>
      <point x="690.586" y="-39.1332" type="qcurve" smooth="yes"/>
      <point x="660.66" y="-39.1332"/>
      <point x="598.508" y="-18.4156"/>
      <point x="545.563" y="20.7176"/>
      <point x="513.335" y="78.2664"/>
      <point x="513.335" y="117.4" type="qcurve" smooth="yes"/>
      <point x="513.335" y="154.231"/>
      <point x="545.563" y="211.78"/>
      <point x="596.206" y="253.215"/>
      <point x="658.358" y="273.932"/>
    </contour>
  </outline>
</glyph>
<glyph name="slash" format="2">
  <advance width="600"/>
  <unicode hex="002F"/>
  <outline>
    <contour>
      <point x="134" y="-133" type="line"/>
      <point x="91" y="-113" type="line"/>
      <point x="466" y="702" type="line"/>
      <point x="509" y="684" type="line"/>
    </contour>
  </outline>
</glyph>
<glyph name="zero" format="2">
  <advance width="600"/>
  <unicode hex="0030"/>
  <outline>
    <contour>
      <point x="300" y="621" type="qcurve" smooth="yes"/>
      <point x="361" y="621"/>
      <point x="436" y="558"/>
      <point x="476" y="463"/>
      <point x="490" y="352"/>
      <point x="490" y="303" type="qcurve" smooth="yes"/>
      <point x="490" y="254"/>
      <point x="476" y="143"/>
      <point x="436" y="48"/>
      <point x="361" y="-14"/>
      <point x="300" y="-14" type="qcurve" smooth="yes"/>
      <point x="239" y="-14"/>
      <point x="164" y="49"/>
      <point x="124" y="143"/>
      <point x="110" y="255"/>
      <point x="110" y="303" type="qcurve" smooth="yes"/>
      <point x="110" y="352"/>
      <point x="124" y="463"/>
      <point x="164" y="558"/>
      <point x="239" y="621"/>
    </contour>
    <contour>
      <point x="300" y="576" type="qcurve" smooth="yes"/>
      <point x="255" y="576"/>
      <point x="201" y="520"/>
      <point x="172" y="438"/>
      <point x="163" y="343"/>
      <point x="163" y="304" type="qcurve" smooth="yes"/>
      <point x="163" y="264"/>
      <point x="172" y="169"/>
      <point x="201" y="86"/>
      <point x="255" y="31"/>
      <point x="299" y="31" type="qcurve" smooth="yes"/>
      <point x="344" y="31"/>
      <point x="398" y="87"/>
      <point x="428" y="169"/>
      <point x="437" y="265"/>
      <point x="437" y="304" type="qcurve" smooth="yes"/>
      <point x="437" y="344"/>
      <point x="428" y="439"/>
      <point x="399" y="521"/>
      <point x="345" y="576"/>
    </contour>
  </outline>
</glyph>
<glyph name="two" format="2">
  <advance width="1381"/>
  <unicode hex="0032"/>
  <outline>
    <contour>
      <point x="1086.52" y="0" type="line"/>
      <point x="188.76" y="0" type="line"/>
      <point x="188.76" y="122.003" type="line"/>
      <point x="225.591" y="154.231"/>
      <point x="382.124" y="292.348"/>
      <point x="568.582" y="460.39"/>
      <point x="759.644" y="637.641"/>
      <point x="828.703" y="709.001" type="qcurve" smooth="yes"/>
      <point x="911.573" y="791.871"/>
      <point x="964.518" y="927.687"/>
      <point x="964.518" y="1008.25" type="qcurve" smooth="yes"/>
      <point x="964.518" y="1091.13"/>
      <point x="897.761" y="1206.22"/>
      <point x="801.079" y="1279.89"/>
      <point x="690.586" y="1314.41"/>
      <point x="646.849" y="1314.41" type="qcurve" smooth="yes"/>
      <point x="614.621" y="1314.41"/>
      <point x="511.033" y="1293.7"/>
      <point x="416.653" y="1238.45"/>
      <point x="349.897" y="1146.37"/>
      <point x="354.501" y="1075.01" type="qcurve"/>
      <point x="234.799" y="1075.01" type="line"/>
      <point x="234.799" y="1224.64" type="line"/>
      <point x="299.254" y="1300.6"/>
      <point x="435.069" y="1385.78"/>
      <point x="552.468" y="1422.61"/>
      <point x="637.641" y="1429.51"/>
      <point x="651.452" y="1429.51" type="qcurve" smooth="yes"/>
      <point x="732.021" y="1429.51"/>
      <point x="888.553" y="1369.66"/>
      <point x="1012.86" y="1259.17"/>
      <point x="1088.82" y="1100.33"/>
      <point x="1088.82" y="1003.65" type="qcurve" smooth="yes"/>
      <point x="1088.82" y="929.989"/>
      <point x="1051.99" y="814.891"/>
      <point x="1010.56" y="748.134" type="qcurve" smooth="yes"/>
      <point x="982.934" y="704.397"/>
      <point x="854.024" y="563.978"/>
      <point x="674.472" y="393.634"/>
      <point x="458.088" y="204.874"/>
      <point x="342.991" y="112.796" type="qcurve"/>
      <point x="342.991" y="108.192" type="line"/>
      <point x="978.33" y="108.192" type="line"/>
      <point x="978.33" y="336.085" type="line"/>
      <point x="1086.52" y="336.085" type="line"/>
    </contour>
  </outline>
</glyph>
<glyph name="eight" format="2">
  <advance width="1381"/>
  <unicode hex="0038"/>
  <outline>
    <contour>
      <point x="478.806" y="711.303" type="qcurve"/>
      <point x="455.786" y="722.813"/>
      <point x="384.426" y="778.06"/>
      <point x="319.971" y="863.232"/>
      <point x="271.63" y="978.33"/>
      <point x="271.63" y="1051.99" type="qcurve" smooth="yes"/>
      <point x="271.63" y="1130.26"/>
      <point x="336.085" y="1266.07"/>
      <point x="448.881" y="1369.66"/>
      <point x="600.809" y="1429.51"/>
      <point x="690.586" y="1429.51" type="qcurve" smooth="yes"/>
      <point x="780.362" y="1429.51"/>
      <point x="932.291" y="1369.66"/>
      <point x="1045.09" y="1266.07"/>
      <point x="1109.54" y="1130.26"/>
      <point x="1109.54" y="1051.99" type="qcurve" smooth="yes"/>
      <point x="1109.54" y="959.914"/>
      <point x="1010.56" y="771.154"/>
      <point x="902.365" y="711.303" type="qcurve"/>
      <point x="964.518" y="683.68"/>
      <point x="1051.99" y="600.809"/>
      <point x="1109.54" y="506.429"/>
      <point x="1134.86" y="407.446"/>
      <point x="1134.86" y="363.708" type="qcurve" smooth="yes"/>
      <point x="1134.86" y="299.254"/>
      <point x="1081.92" y="158.835"/>
      <point x="971.424" y="43.7371"/>
      <point x="803.381" y="-32.2273"/>
      <point x="690.586" y="-32.2273" type="qcurve" smooth="yes"/>
      <point x="575.488" y="-32.2273"/>
      <point x="409.747" y="43.7371"/>
      <point x="299.254" y="158.835"/>
      <point x="246.309" y="299.254"/>
      <point x="246.309" y="363.708" type="qcurve" smooth="yes"/>
      <point x="246.309" y="471.9"/>
      <point x="375.218" y="665.264"/>
    </contour>
    <contour>
      <point x="690.586" y="1321.32" type="qcurve" smooth="yes"/>
      <point x="610.017" y="1321.32"/>
      <point x="497.222" y="1268.38"/>
      <point x="428.163" y="1185.51"/>
      <point x="395.936" y="1091.13"/>
      <point x="395.936" y="1049.69" type="qcurve" smooth="yes"/>
      <point x="395.936" y="996.745"/>
      <point x="437.371" y="895.459"/>
      <point x="513.335" y="814.891"/>
      <point x="623.829" y="764.248"/>
      <point x="690.586" y="764.248" type="qcurve" smooth="yes"/>
      <point x="745.832" y="764.248"/>
      <point x="851.722" y="803.381"/>
      <point x="934.593" y="879.346"/>
      <point x="985.235" y="982.934"/>
      <point x="985.235" y="1049.69" type="qcurve" smooth="yes"/>
      <point x="985.235" y="1118.75"/>
      <point x="932.291" y="1220.03"/>
      <point x="849.42" y="1286.79"/>
      <point x="743.53" y="1321.32"/>
    </contour>
    <contour>
      <point x="690.586" y="656.056" type="qcurve" smooth="yes"/>
      <point x="610.017" y="656.056"/>
      <point x="490.316" y="603.111"/>
      <point x="409.747" y="517.939"/>
      <point x="370.614" y="414.351"/>
      <point x="370.614" y="363.708" type="qcurve" smooth="yes"/>
      <point x="370.614" y="306.16"/>
      <point x="418.955" y="202.572"/>
      <point x="506.429" y="122.003"/>
      <point x="621.527" y="75.9644"/>
      <point x="690.586" y="75.9644" type="qcurve" smooth="yes"/>
      <point x="759.644" y="75.9644"/>
      <point x="874.742" y="122.003"/>
      <point x="962.216" y="202.572"/>
      <point x="1010.56" y="306.16"/>
      <point x="1010.56" y="363.708" type="qcurve" smooth="yes"/>
      <point x="1010.56" y="414.351"/>
      <point x="969.122" y="520.241"/>
      <point x="888.553" y="603.111"/>
      <point x="768.852" y="656.056"/>
    </contour>
  </outline>
</glyph>
<glyph name="colon" format="2">
  <advance width="1381"/>
  <unicode hex="003A"/>
  <outline>
    <contour>
      <point x="690.586" y="897.761" type="qcurve" smooth="yes"/>
      <point x="722.813" y="897.761"/>
      <point x="784.966" y="877.044"/>
      <point x="835.609" y="835.609"/>
      <point x="867.836" y="778.06"/>
      <point x="867.836" y="741.229" type="qcurve" smooth="yes"/>
      <point x="867.836" y="704.397"/>
      <point x="835.609" y="646.849"/>
      <point x="784.966" y="605.413"/>
      <point x="720.511" y="584.696"/>
      <point x="690.586" y="584.696" type="qcurve" smooth="yes"/>
      <point x="660.66" y="584.696"/>
      <point x="598.508" y="605.413"/>
      <point x="545.563" y="644.547"/>
      <point x="513.335" y="702.095"/>
      <point x="513.335" y="741.229" type="qcurve" smooth="yes"/>
      <point x="513.335" y="778.06"/>
      <point x="545.563" y="835.609"/>
      <point x="596.206" y="877.044"/>
      <point x="658.358" y="897.761"/>
    </contour>
    <contour>
      <point x="690.586" y="273.932" type="qcurve" smooth="yes"/>
      <point x="722.813" y="273.932"/>
      <point x="784.966" y="253.215"/>
      <point x="835.609" y="211.78"/>
      <point x="867.836" y="154.231"/>
      <point x="867.836" y="117.4" type="qcurve" smooth="yes"/>
      <point x="867.836" y="80.5683"/>
      <point x="835.609" y="23.0195"/>
      <point x="784.966" y="-18.4156"/>
      <point x="720.511" y="-39.1332"/>
      <point x="690.586" y="-39.1332" type="qcurve" smooth="yes"/>
      <point x="660.66" y="-39.1332"/>
      <point x="598.508" y="-18.4156"/>
      <point x="545.563" y="20.7176"/>
      <point x="513.335" y="78.2664"/>
      <point x="513.335" y="117.4" type="qcurve" smooth="yes"/>
      <point x="513.335" y="154.231"/>
      <point x="545.563" y="211.78"/>
      <point x="596.206" y="253.215"/>
      <point x="658.358" y="273.932"/>
    </contour>
  </outline>
</glyph>
<glyph name="semicolon" format="2">
  <advance width="1381"/>
  <unicode hex="003B"/>
  <outline>
    <contour>
      <point x="580.092" y="-248.611" type="line"/>
      <point x="416.653" y="-248.611" type="line"/>
      <point x="593.904" y="308.462" type="line"/>
      <point x="831.005" y="308.462" type="line"/>
    </contour>
    <contour>
      <point x="690.586" y="897.761" type="qcurve" smooth="yes"/>
      <point x="722.813" y="897.761"/>
      <point x="784.966" y="877.044"/>
      <point x="835.609" y="835.609"/>
      <point x="867.836" y="778.06"/>
      <point x="867.836" y="741.229" type="qcurve" smooth="yes"/>
      <point x="867.836" y="704.397"/>
      <point x="835.609" y="646.849"/>
      <point x="784.966" y="605.413"/>
      <point x="720.511" y="584.696"/>
      <point x="690.586" y="584.696" type="qcurve" smooth="yes"/>
      <point x="660.66" y="584.696"/>
      <point x="598.508" y="605.413"/>
      <point x="545.563" y="644.547"/>
      <point x="513.335" y="702.095"/>
      <point x="513.335" y="741.229" type="qcurve" smooth="yes"/>
      <point x="513.335" y="778.06"/>
      <point x="545.563" y="835.609"/>
      <point x="596.206" y="877.044"/>
      <point x="658.358" y="897.761"/>
    </contour>
  </outline>
</glyph>
<glyph name="equal" format="2">
  <advance width="1381"/>
  <unicode hex="003D"/>
  <outline>
    <contour>
      <point x="1233.85" y="849.42" type="line"/>
      <point x="147.325" y="849.42" type="line"/>
      <point x="147.325" y="964.518" type="line"/>
      <point x="1233.85" y="964.518" type="line"/>
    </contour>
    <contour>
      <point x="1233.85" y="432.767" type="line"/>
      <point x="147.325" y="432.767" type="line"/>
      <point x="147.325" y="547.865" type="line"/>
      <point x="1233.85" y="547.865" type="line"/>
    </contour>
  </outline>
</glyph>
<glyph name="question" format="2">
  <advance width="1381"/>
  <unicode hex="003F"/>
  <outline>
    <contour>
      <point x="276.234" y="1236.15" type="line"/>
      <point x="336.085" y="1256.87"/>
      <point x="430.465" y="1286.79"/>
      <point x="515.637" y="1307.51"/>
      <point x="600.809" y="1316.72"/>
      <point x="649.15" y="1316.72" type="qcurve" smooth="yes"/>
      <point x="759.644" y="1316.72"/>
      <point x="925.385" y="1252.26"/>
      <point x="1035.88" y="1148.67"/>
      <point x="1091.13" y="1010.56"/>
      <point x="1091.13" y="939.196" type="qcurve" smooth="yes"/>
      <point x="1091.13" y="837.911"/>
      <point x="1003.65" y="702.095"/>
      <point x="877.044" y="614.621"/>
      <point x="732.021" y="563.978"/>
      <point x="674.472" y="547.865" type="qcurve"/>
      <point x="674.472" y="409.747" type="line"/>
      <point x="561.676" y="409.747" type="line"/>
      <point x="561.676" y="633.037" type="line"/>
      <point x="566.28" y="635.339"/>
      <point x="596.206" y="642.245"/>
      <point x="607.715" y="644.547" type="qcurve"/>
      <point x="665.264" y="658.358"/>
      <point x="794.173" y="697.491"/>
      <point x="900.063" y="764.248"/>
      <point x="971.424" y="867.836"/>
      <point x="971.424" y="946.102" type="qcurve" smooth="yes"/>
      <point x="971.424" y="980.632"/>
      <point x="943.8" y="1070.41"/>
      <point x="872.44" y="1150.98"/>
      <point x="748.134" y="1203.92"/>
      <point x="651.452" y="1203.92" type="qcurve" smooth="yes"/>
      <point x="566.28" y="1203.92"/>
      <point x="448.881" y="1171.69"/>
      <point x="391.332" y="1148.67" type="qcurve"/>
      <point x="391.332" y="1001.35" type="line"/>
      <point x="276.234" y="1001.35" type="line"/>
    </contour>
    <contour>
      <point x="612.319" y="244.007" type="qcurve" smooth="yes"/>
      <point x="679.076" y="244.007"/>
      <point x="771.154" y="163.439"/>
      <point x="771.154" y="103.588" type="qcurve" smooth="yes"/>
      <point x="771.154" y="41.4351"/>
      <point x="676.774" y="-39.1332"/>
      <point x="612.319" y="-39.1332" type="qcurve" smooth="yes"/>
      <point x="547.865" y="-39.1332"/>
      <point x="453.485" y="41.4351"/>
      <point x="453.485" y="103.588" type="qcurve" smooth="yes"/>
      <point x="453.485" y="163.439"/>
      <point x="545.563" y="244.007"/>
    </contour>
  </outline>
</glyph>
<glyph name="at" format="2">
  <advance width="1381"/>
  <unicode hex="0040"/>
  <outline>
    <contour>
      <point x="1226.94" y="131.211" type="line"/>
      <point x="1224.64" y="131.211"/>
      <point x="1215.43" y="124.305"/>
      <point x="1213.13" y="124.305" type="qcurve"/>
      <point x="1095.73" y="57.5488"/>
      <point x="814.891" y="-32.2273"/>
      <point x="662.962" y="-32.2273" type="qcurve" smooth="yes"/>
      <point x="511.033" y="-32.2273"/>
      <point x="290.046" y="73.6625"/>
      <point x="145.023" y="248.611"/>
      <point x="73.6625" y="476.504"/>
      <point x="73.6625" y="598.508" type="qcurve" smooth="yes"/>
      <point x="73.6625" y="736.625"/>
      <point x="158.835" y="976.028"/>
      <point x="319.971" y="1153.28"/>
      <point x="559.374" y="1256.87"/>
      <point x="711.303" y="1256.87" type="qcurve" smooth="yes"/>
      <point x="837.911" y="1256.87"/>
      <point x="1054.29" y="1180.9"/>
      <point x="1213.13" y="1033.58"/>
      <point x="1305.21" y="819.495"/>
      <point x="1305.21" y="683.68" type="qcurve" smooth="yes"/>
      <point x="1305.21" y="586.998"/>
      <point x="1256.87" y="423.559"/>
      <point x="1167.09" y="308.462"/>
      <point x="1045.09" y="244.007"/>
      <point x="971.424" y="244.007" type="qcurve" smooth="yes"/>
      <point x="946.102" y="244.007"/>
      <point x="916.177" y="248.611"/>
      <point x="886.252" y="264.724"/>
      <point x="847.118" y="292.348"/>
      <point x="814.891" y="315.367" type="qcurve" smooth="yes"/>
      <point x="796.475" y="329.179"/>
      <point x="789.57" y="349.897"/>
      <point x="789.57" y="361.406" type="qcurve"/>
      <point x="775.758" y="345.293"/>
      <point x="736.625" y="303.858"/>
      <point x="681.378" y="264.724"/>
      <point x="612.319" y="239.403"/>
      <point x="570.884" y="239.403" type="qcurve" smooth="yes"/>
      <point x="550.167" y="239.403"/>
      <point x="488.014" y="260.121"/>
      <point x="430.465" y="310.764"/>
      <point x="391.332" y="402.842"/>
      <point x="391.332" y="471.9" type="qcurve" smooth="yes"/>
      <point x="391.332" y="547.865"/>
      <point x="444.277" y="711.303"/>
      <point x="536.355" y="844.816"/>
      <point x="658.358" y="929.989"/>
      <point x="729.719" y="929.989" type="qcurve" smooth="yes"/>
      <point x="787.268" y="929.989"/>
      <point x="844.816" y="863.232"/>
      <point x="860.93" y="837.911" type="qcurve"/>
      <point x="881.648" y="918.479" type="line"/>
      <point x="1001.35" y="918.479" type="line"/>
      <point x="902.365" y="559.374" type="line"/>
      <point x="902.365" y="550.167"/>
      <point x="879.346" y="471.9"/>
      <point x="879.346" y="444.277" type="qcurve" smooth="yes"/>
      <point x="879.346" y="418.955"/>
      <point x="932.291" y="352.199"/>
      <point x="985.235" y="352.199" type="qcurve" smooth="yes"/>
      <point x="1028.97" y="352.199"/>
      <point x="1104.94" y="407.446"/>
      <point x="1162.49" y="501.826"/>
      <point x="1194.71" y="626.131"/>
      <point x="1194.71" y="697.491" type="qcurve" smooth="yes"/>
      <point x="1194.71" y="810.287"/>
      <point x="1118.75" y="980.632"/>
      <point x="985.235" y="1093.43"/>
      <point x="807.985" y="1148.67"/>
      <point x="706.699" y="1148.67" type="qcurve" smooth="yes"/>
      <point x="568.582" y="1148.67"/>
      <point x="375.218" y="1051.99"/>
      <point x="250.913" y="897.761"/>
      <point x="193.364" y="699.793"/>
      <point x="193.364" y="596.206" type="qcurve" smooth="yes"/>
      <point x="193.364" y="504.127"/>
      <point x="244.007" y="319.971"/>
      <point x="356.803" y="170.344"/>
      <point x="538.657" y="75.9644"/>
      <point x="669.868" y="75.9644" type="qcurve" smooth="yes"/>
      <point x="814.891" y="75.9644"/>
      <point x="1047.39" y="158.835"/>
      <point x="1127.96" y="202.572" type="qcurve" smooth="yes"/>
      <point x="1162.49" y="220.987" type="line"/>
      <point x="1164.79" y="220.987"/>
      <point x="1176.3" y="227.893"/>
      <point x="1178.6" y="227.893" type="qcurve"/>
    </contour>
    <contour>
      <point x="582.394" y="352.199" type="qcurve" smooth="yes"/>
      <point x="626.131" y="352.199"/>
      <point x="704.397" y="423.559"/>
      <point x="764.248" y="527.147"/>
      <point x="798.777" y="649.15"/>
      <point x="798.777" y="699.793" type="qcurve" smooth="yes"/>
      <point x="798.777" y="752.738"/>
      <point x="748.134" y="814.891"/>
      <point x="715.907" y="814.891" type="qcurve" smooth="yes"/>
      <point x="676.774" y="814.891"/>
      <point x="600.809" y="743.53"/>
      <point x="543.261" y="637.641"/>
      <point x="508.731" y="513.335"/>
      <point x="508.731" y="462.692" type="qcurve" smooth="yes"/>
      <point x="508.731" y="446.579"/>
      <point x="515.637" y="409.747"/>
      <point x="534.053" y="375.218"/>
      <point x="561.676" y="352.199"/>
    </contour>
  </outline>
</glyph>
<glyph name="B" format="2">
  <advance width="1381"/>
  <unicode hex="0042"/>
  <outline>
    <contour>
      <point x="732.021" y="1296" type="line" smooth="yes"/>
      <point x="867.836" y="1296"/>
      <point x="1015.16" y="1243.05"/>
      <point x="1111.84" y="1155.58"/>
      <point x="1171.69" y="1035.88"/>
      <point x="1171.69" y="962.216" type="qcurve" smooth="yes"/>
      <point x="1171.69" y="900.063"/>
      <point x="1132.56" y="803.381"/>
      <point x="1075.01" y="734.323"/>
      <point x="1012.86" y="688.284"/>
      <point x="989.839" y="676.774" type="qcurve"/>
      <point x="1114.14" y="639.943"/>
      <point x="1252.26" y="478.806"/>
      <point x="1252.26" y="354.501" type="qcurve" smooth="yes"/>
      <point x="1252.26" y="257.819"/>
      <point x="1162.49" y="103.588"/>
      <point x="1088.82" y="64.4547" type="qcurve" smooth="yes"/>
      <point x="1051.99" y="43.7371"/>
      <point x="982.934" y="18.4156"/>
      <point x="897.761" y="4.6039"/>
      <point x="789.57" y="0"/>
      <point x="711.303" y="0" type="qcurve" smooth="yes"/>
      <point x="103.588" y="0" type="line"/>
      <point x="103.588" y="108.192" type="line"/>
      <point x="294.65" y="108.192" type="line"/>
      <point x="294.65" y="1187.81" type="line"/>
      <point x="103.588" y="1187.81" type="line"/>
      <point x="103.588" y="1296" type="line"/>
    </contour>
    <contour>
      <point x="409.747" y="727.417" type="line"/>
      <point x="715.907" y="727.417" type="line" smooth="yes"/>
      <point x="828.703" y="727.417"/>
      <point x="962.216" y="782.664"/>
      <point x="1031.27" y="858.628"/>
      <point x="1051.99" y="939.196"/>
      <point x="1051.99" y="966.82" type="qcurve" smooth="yes"/>
      <point x="1051.99" y="1049.69"/>
      <point x="964.518" y="1139.47"/>
      <point x="851.722" y="1180.9"/>
      <point x="745.832" y="1187.81"/>
      <point x="727.417" y="1187.81" type="qcurve" smooth="yes"/>
      <point x="409.747" y="1187.81" type="line"/>
    </contour>
    <contour>
      <point x="409.747" y="108.192" type="line"/>
      <point x="706.699" y="108.192" type="line" smooth="yes"/>
      <point x="768.852" y="108.192"/>
      <point x="916.177" y="115.098"/>
      <point x="1045.09" y="161.137"/>
      <point x="1132.56" y="260.121"/>
      <point x="1132.56" y="354.501" type="qcurve" smooth="yes"/>
      <point x="1132.56" y="425.861"/>
      <point x="1065.8" y="527.147"/>
      <point x="950.706" y="589.3"/>
      <point x="789.57" y="619.225"/>
      <point x="697.491" y="619.225" type="qcurve" smooth="yes"/>
      <point x="409.747" y="619.225" type="line"/>
    </contour>
  </outline>
</glyph>
<glyph name="C" format="2">
  <advance width="1381"/>
  <unicode hex="0043"/>
  <outline>
    <contour>
      <point x="1367.36" y="227.893" type="line"/>
      <point x="1270.68" y="135.815"/>
      <point x="1086.52" y="29.9254"/>
      <point x="927.687" y="-25.3215"/>
      <point x="803.381" y="-39.1332"/>
      <point x="768.852" y="-39.1332" type="qcurve" smooth="yes"/>
      <point x="616.923" y="-39.1332"/>
      <point x="384.426" y="73.6625"/>
      <point x="227.893" y="267.026"/>
      <point x="147.325" y="520.241"/>
      <point x="147.325" y="662.962" type="qcurve" smooth="yes"/>
      <point x="147.325" y="812.589"/>
      <point x="241.705" y="1061.2"/>
      <point x="407.446" y="1238.45"/>
      <point x="633.037" y="1335.13"/>
      <point x="764.248" y="1335.13" type="qcurve" smooth="yes"/>
      <point x="833.307" y="1335.13"/>
      <point x="936.894" y="1309.81"/>
      <point x="1010.56" y="1275.28"/>
      <point x="1051.99" y="1243.05"/>
      <point x="1058.9" y="1236.15" type="qcurve"/>
      <point x="1081.92" y="1217.73"/>
      <point x="1093.43" y="1210.83"/>
      <point x="1098.03" y="1210.83" type="qcurve" smooth="yes"/>
      <point x="1104.94" y="1210.83"/>
      <point x="1116.45" y="1233.85"/>
      <point x="1123.35" y="1268.38"/>
      <point x="1130.26" y="1305.21"/>
      <point x="1132.56" y="1321.32" type="qcurve"/>
      <point x="1217.73" y="1321.32" type="line"/>
      <point x="1213.13" y="1176.3"/>
      <point x="1229.24" y="973.726"/>
      <point x="1240.75" y="881.648" type="qcurve"/>
      <point x="1132.56" y="863.232" type="line"/>
      <point x="1125.65" y="902.365"/>
      <point x="1095.73" y="1024.37"/>
      <point x="1056.6" y="1084.22" type="qcurve" smooth="yes"/>
      <point x="1024.37" y="1132.56"/>
      <point x="886.252" y="1220.03"/>
      <point x="759.644" y="1220.03" type="qcurve" smooth="yes"/>
      <point x="644.547" y="1220.03"/>
      <point x="464.994" y="1132.56"/>
      <point x="338.387" y="980.632"/>
      <point x="271.63" y="778.06"/>
      <point x="271.63" y="665.264" type="qcurve" smooth="yes"/>
      <point x="271.63" y="577.79"/>
      <point x="315.367" y="372.916"/>
      <point x="428.163" y="195.666"/>
      <point x="619.225" y="75.9644"/>
      <point x="768.852" y="75.9644" type="qcurve" smooth="yes"/>
      <point x="925.385" y="75.9644"/>
      <point x="1178.6" y="211.78"/>
      <point x="1291.4" y="310.764" type="qcurve"/>
    </contour>
  </outline>
</glyph>
<glyph name="G" format="2">
  <advance width="1381"/>
  <unicode hex="0047"/>
  <outline>
    <contour>
      <point x="1201.62" y="1321.32" type="line"/>
      <point x="1199.32" y="1314.41"/>
      <point x="1197.02" y="1282.19"/>
      <point x="1197.02" y="1277.58" type="qcurve" smooth="yes"/>
      <point x="1197.02" y="1268.38"/>
      <point x="1194.71" y="1224.64"/>
      <point x="1190.11" y="1169.39"/>
      <point x="1187.81" y="1114.14"/>
      <point x="1187.81" y="1091.13" type="qcurve" smooth="yes"/>
      <point x="1187.81" y="1033.58"/>
      <point x="1197.02" y="923.083"/>
      <point x="1201.62" y="881.648" type="qcurve"/>
      <point x="1102.64" y="863.232" type="line"/>
      <point x="1095.73" y="902.365"/>
      <point x="1065.8" y="1024.37"/>
      <point x="985.235" y="1137.16"/>
      <point x="840.212" y="1220.03"/>
      <point x="718.209" y="1220.03" type="qcurve" smooth="yes"/>
      <point x="616.923" y="1220.03"/>
      <point x="441.975" y="1134.86"/>
      <point x="310.764" y="982.934"/>
      <point x="234.799" y="771.154"/>
      <point x="234.799" y="644.547" type="qcurve" smooth="yes"/>
      <point x="234.799" y="527.147"/>
      <point x="296.952" y="319.971"/>
      <point x="425.861" y="165.741"/>
      <point x="619.225" y="75.9644"/>
      <point x="750.436" y="75.9644" type="qcurve" smooth="yes"/>
      <point x="807.985" y="75.9644"/>
      <point x="966.82" y="103.588"/>
      <point x="1102.64" y="149.627" type="qcurve"/>
      <point x="1102.64" y="460.39" type="line"/>
      <point x="761.946" y="460.39" type="line"/>
      <point x="761.946" y="568.582" type="line"/>
      <point x="1330.53" y="568.582" type="line"/>
      <point x="1330.53" y="460.39" type="line"/>
      <point x="1220.03" y="460.39" type="line"/>
      <point x="1220.03" y="73.6625" type="line"/>
      <point x="957.612" y="-39.1332"/>
      <point x="748.134" y="-39.1332" type="qcurve" smooth="yes"/>
      <point x="570.884" y="-39.1332"/>
      <point x="326.877" y="87.4742"/>
      <point x="177.25" y="287.744"/>
      <point x="110.494" y="527.147"/>
      <point x="110.494" y="642.245" type="qcurve" smooth="yes"/>
      <point x="110.494" y="775.758"/>
      <point x="191.062" y="1024.37"/>
      <point x="347.595" y="1217.73"/>
      <point x="575.488" y="1335.13"/>
      <point x="722.813" y="1335.13" type="qcurve" smooth="yes"/>
      <point x="805.683" y="1335.13"/>
      <point x="943.8" y="1289.09"/>
      <point x="1010.56" y="1236.15" type="qcurve"/>
      <point x="1028.97" y="1217.73"/>
      <point x="1047.39" y="1208.52"/>
      <point x="1056.6" y="1208.52" type="qcurve" smooth="yes"/>
      <point x="1075.01" y="1208.52"/>
      <point x="1081.92" y="1245.36"/>
      <point x="1091.13" y="1321.32" type="qcurve"/>
    </contour>
  </outline>
</glyph>
<glyph name="N" format="2">
  <advance width="1381"/>
  <unicode hex="004E"/>
  <outline>
    <contour>
      <point x="1063.5" y="96.682" type="line"/>
      <point x="1104.94" y="96.682" type="line"/>
      <point x="1104.94" y="1187.81" type="line"/>
      <point x="847.118" y="1187.81" type="line"/>
      <point x="847.118" y="1296" type="line"/>
      <point x="1360.45" y="1296" type="line"/>
      <point x="1360.45" y="1187.81" type="line"/>
      <point x="1210.83" y="1187.81" type="line"/>
      <point x="1210.83" y="-29.9254" type="line"/>
      <point x="1005.95" y="-29.9254" type="line"/>
      <point x="389.03" y="1187.81" type="line"/>
      <point x="349.897" y="1187.81" type="line"/>
      <point x="349.897" y="108.192" type="line"/>
      <point x="610.017" y="108.192" type="line"/>
      <point x="610.017" y="0" type="line"/>
      <point x="64.4547" y="0" type="line"/>
      <point x="64.4547" y="108.192" type="line"/>
      <point x="244.007" y="108.192" type="line"/>
      <point x="244.007" y="1187.81" type="line"/>
      <point x="64.4547" y="1187.81" type="line"/>
      <point x="64.4547" y="1296" type="line"/>
      <point x="458.088" y="1296" type="line"/>
    </contour>
  </outline>
</glyph>
<glyph name="O" format="2">
  <advance width="600"/>
  <unicode hex="004F"/>
  <outline>
    <contour>
      <point x="43" y="281" type="qcurve" smooth="yes"/>
      <point x="43" y="343"/>
      <point x="79" y="452"/>
      <point x="146" y="533"/>
      <point x="241" y="580"/>
      <point x="300" y="580" type="qcurve" smooth="yes"/>
      <point x="360" y="580"/>
      <point x="455" y="532"/>
      <point x="522" y="450"/>
      <point x="557" y="342"/>
      <point x="557" y="281" type="qcurve" smooth="yes"/>
      <point x="557" y="221"/>
      <point x="521" y="112"/>
      <point x="455" y="31"/>
      <point x="360" y="-17"/>
      <point x="300" y="-17" type="qcurve" smooth="yes"/>
      <point x="241" y="-17"/>
      <point x="146" y="30"/>
      <point x="79" y="111"/>
      <point x="43" y="219"/>
    </contour>
    <contour>
      <point x="97" y="282" type="qcurve" smooth="yes"/>
      <point x="97" y="237"/>
      <point x="123" y="148"/>
      <point x="174" y="77"/>
      <point x="250" y="33"/>
      <point x="300" y="33" type="qcurve" smooth="yes"/>
      <point x="349" y="33"/>
      <point x="425" y="76"/>
      <point x="477" y="146"/>
      <point x="503" y="235"/>
      <point x="503" y="282" type="qcurve" smooth="yes"/>
      <point x="503" y="329"/>
      <point x="476" y="419"/>
      <point x="424" y="488"/>
      <point x="349" y="530"/>
      <point x="300" y="530" type="qcurve" smooth="yes"/>
      <point x="248" y="530"/>
      <point x="172" y="485"/>
      <point x="122" y="414"/>
      <point x="97" y="325"/>
    </contour>
  </outline>
</glyph>
<glyph name="P" format="2">
  <advance width="1381"/>
  <unicode hex="0050"/>
  <outline>
    <contour>
      <point x="690.586" y="1296" type="line" smooth="yes"/>
      <point x="814.891" y="1296"/>
      <point x="969.122" y="1270.68"/>
      <point x="1031.27" y="1236.15" type="qcurve" smooth="yes"/>
      <point x="1118.75" y="1187.81"/>
      <point x="1229.24" y="999.047"/>
      <point x="1229.24" y="893.157" type="qcurve" smooth="yes"/>
      <point x="1229.24" y="844.816"/>
      <point x="1203.92" y="750.436"/>
      <point x="1160.18" y="667.566"/>
      <point x="1098.03" y="598.508"/>
      <point x="1061.2" y="577.79" type="qcurve"/>
      <point x="1019.76" y="552.468"/>
      <point x="939.196" y="524.845"/>
      <point x="837.911" y="511.033"/>
      <point x="697.491" y="508.731"/>
      <point x="593.904" y="508.731" type="qcurve" smooth="yes"/>
      <point x="464.994" y="508.731" type="line"/>
      <point x="464.994" y="108.192" type="line"/>
      <point x="803.381" y="108.192" type="line"/>
      <point x="803.381" y="0" type="line"/>
      <point x="163.439" y="0" type="line"/>
      <point x="163.439" y="108.192" type="line"/>
      <point x="349.897" y="108.192" type="line"/>
      <point x="349.897" y="1187.81" type="line"/>
      <point x="163.439" y="1187.81" type="line"/>
      <point x="163.439" y="1296" type="line"/>
    </contour>
    <contour>
      <point x="464.994" y="616.923" type="line"/>
      <point x="596.206" y="616.923" type="line" smooth="yes"/>
      <point x="736.625" y="616.923"/>
      <point x="948.404" y="630.735"/>
      <point x="1008.25" y="679.076" type="qcurve" smooth="yes"/>
      <point x="1040.48" y="704.397"/>
      <point x="1104.94" y="814.891"/>
      <point x="1104.94" y="897.761" type="qcurve" smooth="yes"/>
      <point x="1104.94" y="992.141"/>
      <point x="1012.86" y="1118.75"/>
      <point x="966.82" y="1141.77" type="qcurve"/>
      <point x="946.102" y="1153.28"/>
      <point x="900.063" y="1169.39"/>
      <point x="837.911" y="1180.9"/>
      <point x="752.738" y="1187.81"/>
      <point x="690.586" y="1187.81" type="qcurve" smooth="yes"/>
      <point x="464.994" y="1187.81" type="line"/>
    </contour>
  </outline>
</glyph>
<glyph name="S" format="2">
  <advance width="1381"/>
  <unicode hex="0053"/>
  <outline>
    <contour>
      <point x="1167.09" y="1321.32" type="line"/>
      <point x="1155.58" y="1268.38"/>
      <point x="1146.37" y="1199.32"/>
      <point x="1146.37" y="1155.58" type="qcurve" smooth="yes"/>
      <point x="1146.37" y="1116.45"/>
      <point x="1155.58" y="980.632"/>
      <point x="1167.09" y="881.648" type="qcurve"/>
      <point x="1063.5" y="863.232" type="line"/>
      <point x="1058.9" y="900.063"/>
      <point x="1031.27" y="1019.76"/>
      <point x="992.141" y="1079.62" type="qcurve" smooth="yes"/>
      <point x="978.33" y="1100.33"/>
      <point x="934.593" y="1148.67"/>
      <point x="865.534" y="1190.11"/>
      <point x="768.852" y="1220.03"/>
      <point x="699.793" y="1220.03" type="qcurve" smooth="yes"/>
      <point x="610.017" y="1220.03"/>
      <point x="478.806" y="1167.09"/>
      <point x="393.634" y="1086.52"/>
      <point x="352.199" y="992.141"/>
      <point x="352.199" y="948.404" type="qcurve" smooth="yes"/>
      <point x="352.199" y="867.836"/>
      <point x="430.465" y="775.758"/>
      <point x="540.959" y="725.115"/>
      <point x="660.66" y="706.699"/>
      <point x="702.095" y="702.095" type="qcurve" smooth="yes"/>
      <point x="831.005" y="688.284"/>
      <point x="978.33" y="658.358"/>
      <point x="1098.03" y="580.092"/>
      <point x="1180.9" y="451.183"/>
      <point x="1180.9" y="352.199" type="qcurve" smooth="yes"/>
      <point x="1180.9" y="250.913"/>
      <point x="1095.73" y="103.588"/>
      <point x="962.216" y="6.90586"/>
      <point x="794.173" y="-39.1332"/>
      <point x="709.001" y="-39.1332" type="qcurve" smooth="yes"/>
      <point x="639.943" y="-39.1332"/>
      <point x="536.355" y="-16.1137"/>
      <point x="460.39" y="18.4156"/>
      <point x="409.747" y="52.9449"/>
      <point x="393.634" y="66.7566" type="qcurve"/>
      <point x="391.332" y="69.0586"/>
      <point x="379.822" y="75.9644"/>
      <point x="375.218" y="75.9644" type="qcurve" smooth="yes"/>
      <point x="368.312" y="75.9644"/>
      <point x="356.803" y="62.1527"/>
      <point x="352.199" y="57.5488" type="qcurve"/>
      <point x="347.595" y="41.4351"/>
      <point x="340.689" y="11.5098"/>
      <point x="331.481" y="-46.039" type="qcurve"/>
      <point x="227.893" y="-46.039" type="line"/>
      <point x="239.403" y="9.20781"/>
      <point x="248.611" y="110.494"/>
      <point x="248.611" y="135.815" type="qcurve" smooth="yes"/>
      <point x="248.611" y="158.835" type="line" smooth="yes"/>
      <point x="248.611" y="177.25"/>
      <point x="244.007" y="239.403"/>
      <point x="237.101" y="310.764"/>
      <point x="230.195" y="377.52"/>
      <point x="227.893" y="402.842" type="qcurve"/>
      <point x="331.481" y="402.842" type="line"/>
      <point x="340.689" y="359.105"/>
      <point x="370.614" y="248.611"/>
      <point x="409.747" y="197.968" type="qcurve" smooth="yes"/>
      <point x="441.975" y="156.533"/>
      <point x="568.582" y="75.9644"/>
      <point x="692.888" y="75.9644" type="qcurve" smooth="yes"/>
      <point x="798.777" y="75.9644"/>
      <point x="939.196" y="126.607"/>
      <point x="1022.07" y="204.874"/>
      <point x="1056.6" y="299.254"/>
      <point x="1056.6" y="342.991" type="qcurve" smooth="yes"/>
      <point x="1056.6" y="418.955"/>
      <point x="989.839" y="508.731"/>
      <point x="893.157" y="557.072"/>
      <point x="780.362" y="575.488"/>
      <point x="736.625" y="580.092" type="qcurve" smooth="yes"/>
      <point x="669.868" y="586.998"/>
      <point x="492.618" y="614.621"/>
      <point x="336.085" y="688.284"/>
      <point x="227.893" y="824.099"/>
      <point x="227.893" y="939.196" type="qcurve" smooth="yes"/>
      <point x="227.893" y="1017.46"/>
      <point x="296.952" y="1160.18"/>
      <point x="418.955" y="1270.68"/>
      <point x="586.998" y="1335.13"/>
      <point x="685.982" y="1335.13" type="qcurve" smooth="yes"/>
      <point x="748.134" y="1335.13"/>
      <point x="844.816" y="1312.11"/>
      <point x="913.875" y="1282.19"/>
      <point x="959.914" y="1249.96"/>
      <point x="971.424" y="1240.75" type="qcurve"/>
      <point x="999.047" y="1220.03"/>
      <point x="1017.46" y="1208.52"/>
      <point x="1024.37" y="1208.52" type="qcurve" smooth="yes"/>
      <point x="1040.48" y="1208.52"/>
      <point x="1047.39" y="1236.15"/>
      <point x="1058.9" y="1291.4" type="qcurve" smooth="yes"/>
      <point x="1063.5" y="1314.41"/>
      <point x="1063.5" y="1321.32" type="qcurve"/>
    </contour>
  </outline>
</glyph>
<glyph name="W" format="2">
  <advance width="600"/>
  <unicode hex="0057"/>
  <outline>
    <contour>
      <point x="199" y="516" type="line"/>
      <point x="98" y="516" type="line"/>
      <point x="154" y="96" type="line"/>
      <point x="156" y="96" type="line"/>
      <point x="285" y="460" type="line"/>
      <point x="319" y="460" type="line"/>
      <point x="445" y="96" type="line"/>
      <point x="447" y="96" type="line"/>
      <point x="505" y="516" type="line"/>
      <point x="403" y="516" type="line"/>
      <point x="403" y="563" type="line"/>
      <point x="598" y="563" type="line"/>
      <point x="598" y="516" type="line"/>
      <point x="552" y="516" type="line"/>
      <point x="477" y="0" type="line"/>
      <point x="427" y="0" type="line"/>
      <point x="300" y="364" type="line"/>
      <point x="298" y="364" type="line"/>
      <point x="169" y="0" type="line"/>
      <point x="119" y="0" type="line"/>
      <point x="49" y="516" type="line"/>
      <point x="2" y="516" type="line"/>
      <point x="2" y="563" type="line"/>
      <point x="199" y="563" type="line"/>
    </contour>
  </outline>
</glyph>
<glyph name="X" format="2">
  <advance width="1381"/>
  <unicode hex="0058"/>
  <outline>
    <contour>
      <point x="566.28" y="1187.81" type="line"/>
      <point x="377.52" y="1187.81" type="line"/>
      <point x="692.888" y="766.55" type="line"/>
      <point x="1015.16" y="1187.81" type="line"/>
      <point x="840.212" y="1187.81" type="line"/>
      <point x="840.212" y="1296" type="line"/>
      <point x="1261.47" y="1296" type="line"/>
      <point x="1261.47" y="1187.81" type="line"/>
      <point x="1144.07" y="1187.81" type="line"/>
      <point x="757.342" y="681.378" type="line"/>
      <point x="1185.51" y="108.192" type="line"/>
      <point x="1305.21" y="108.192" type="line"/>
      <point x="1305.21" y="0" type="line"/>
      <point x="840.212" y="0" type="line"/>
      <point x="840.212" y="108.192" type="line"/>
      <point x="1047.39" y="108.192" type="line"/>
      <point x="692.888" y="596.206" type="line"/>
      <point x="322.273" y="108.192" type="line"/>
      <point x="566.28" y="108.192" type="line"/>
      <point x="566.28" y="0" type="line"/>
      <point x="75.9644" y="0" type="line"/>
      <point x="75.9644" y="108.192" type="line"/>
      <point x="193.364" y="108.192" type="line"/>
      <point x="628.433" y="681.378" type="line"/>
      <point x="241.705" y="1187.81" type="line"/>
      <point x="119.702" y="1187.81" type="line"/>
      <point x="119.702" y="1296" type="line"/>
      <point x="566.28" y="1296" type="line"/>
    </contour>
  </outline>
</glyph>
<glyph name="Z" format="2">
  <advance width="1381"/>
  <unicode hex="005A"/>
  <outline>
    <contour>
      <point x="1134.86" y="1201.62" type="line"/>
      <point x="331.481" y="108.192" type="line"/>
      <point x="1079.62" y="108.192" type="line"/>
      <point x="1079.62" y="481.108" type="line"/>
      <point x="1187.81" y="481.108" type="line"/>
      <point x="1187.81" y="0" type="line"/>
      <point x="193.364" y="0" type="line"/>
      <point x="193.364" y="108.192" type="line"/>
      <point x="987.537" y="1187.81" type="line"/>
      <point x="317.669" y="1187.81" type="line"/>
      <point x="317.669" y="851.722" type="line"/>
      <point x="209.478" y="851.722" type="line"/>
      <point x="209.478" y="1296" type="line"/>
      <point x="1134.86" y="1296" type="line"/>
    </contour>
  </outline>
</glyph>
<glyph name="bracketright" format="2">
  <advance width="600"/>
  <unicode hex="005D"/>
  <outline>
    <contour>
      <point x="115" y="-44" type="line"/>
      <point x="241" y="-44" type="line"/>
      <point x="241" y="604" type="line"/>
      <point x="115" y="604" type="line"/>
      <point x="115" y="654" type="line"/>
      <point x="291" y="654" type="line"/>
      <point x="291" y="-94" type="line"/>
      <point x="115" y="-94" type="line"/>
    </contour>
  </outline>
</glyph>
<glyph name="asciicircum" format="2">
  <advance width="1381"/>
  <unicode hex="005E"/>
  <outline>
    <contour>
      <point x="168.042" y="354.501" type="line"/>
      <point x="605.413" y="1296" type="line"/>
      <point x="775.758" y="1296" type="line"/>
      <point x="1213.13" y="354.501" type="line"/>
      <point x="1065.8" y="354.501" type="line"/>
      <point x="690.586" y="1157.88" type="line"/>
      <point x="315.367" y="354.501" type="line"/>
    </contour>
  </outline>
</glyph>
<glyph name="underscore" format="2">
  <advance width="600"/>
  <unicode hex="005F"/>
  <outline>
    <contour>
      <point x="648" y="-125" type="line"/>
      <point x="-48" y="-125" type="line"/>
      <point x="-48" y="-75" type="line"/>
      <point x="648" y="-75" type="line"/>
    </contour>
  </outline>
</glyph>
<glyph name="d" format="2">
  <advance width="600"/>
  <unicode hex="0064"/>
  <outline>
    <contour>
      <point x="496" y="47" type="line"/>
      <point x="581" y="47" type="line"/>
      <point x="581" y="0" type="line"/>
      <point x="446" y="0" type="line"/>
      <point x="446" y="74" type="line"/>
      <point x="444" y="74" type="line"/>
      <point x="421" y="42"/>
      <point x="368" y="8"/>
      <point x="319" y="-8"/>
      <point x="282" y="-10"/>
      <point x="275" y="-10" type="qcurve" smooth="yes"/>
      <point x="228" y="-10"/>
      <point x="147" y="26"/>
      <point x="87" y="86"/>
      <point x="53" y="167"/>
      <point x="53" y="212" type="qcurve" smooth="yes"/>
      <point x="53" y="263"/>
      <point x="91" y="345"/>
      <point x="154" y="403"/>
      <point x="232" y="434"/>
      <point x="273" y="434" type="qcurve" smooth="yes"/>
      <point x="320" y="434"/>
      <point x="416" y="390"/>
      <point x="444" y="348" type="qcurve"/>
      <point x="446" y="348" type="line"/>
      <point x="446" y="573" type="line"/>
      <point x="285" y="563" type="line"/>
      <point x="282" y="608" type="line"/>
      <point x="496" y="627" type="line"/>
    </contour>
    <contour>
      <point x="444" y="210" type="qcurve" smooth="yes"/>
      <point x="444" y="240"/>
      <point x="422" y="301"/>
      <point x="380" y="352"/>
      <point x="317" y="384"/>
      <point x="275" y="384" type="qcurve" smooth="yes"/>
      <point x="242" y="384"/>
      <point x="181" y="360"/>
      <point x="135" y="315"/>
      <point x="107" y="252"/>
      <point x="107" y="213" type="qcurve" smooth="yes"/>
      <point x="107" y="175"/>
      <point x="134" y="111"/>
      <point x="180" y="65"/>
      <point x="241" y="40"/>
      <point x="275" y="40" type="qcurve" smooth="yes"/>
      <point x="309" y="40"/>
      <point x="370" y="66"/>
      <point x="417" y="111"/>
      <point x="444" y="173"/>
    </contour>
  </outline>
</glyph>
<glyph name="g" format="2">
  <advance width="1381"/>
  <unicode hex="0067"/>
  <outline>
    <contour>
      <point x="1272.98" y="881.648" type="line"/>
      <point x="1086.52" y="881.648" type="line"/>
      <point x="1086.52" y="69.0586" type="line" smooth="yes"/>
      <point x="1086.52" y="-36.8312"/>
      <point x="1038.18" y="-197.968"/>
      <point x="916.177" y="-306.16"/>
      <point x="713.605" y="-361.406"/>
      <point x="559.374" y="-361.406" type="qcurve" smooth="yes"/>
      <point x="414.351" y="-361.406" type="line"/>
      <point x="414.351" y="-253.215" type="line"/>
      <point x="559.374" y="-253.215"/>
      <point x="768.852" y="-241.705"/>
      <point x="904.667" y="-179.552"/>
      <point x="971.424" y="-48.341"/>
      <point x="971.424" y="69.0586" type="qcurve" smooth="yes"/>
      <point x="971.424" y="202.572" type="line"/>
      <point x="966.82" y="202.572" type="line"/>
      <point x="955.31" y="184.156"/>
      <point x="895.459" y="124.305"/>
      <point x="803.381" y="64.4547"/>
      <point x="676.774" y="23.0195"/>
      <point x="600.809" y="23.0195" type="qcurve" smooth="yes"/>
      <point x="494.92" y="23.0195"/>
      <point x="315.367" y="101.286"/>
      <point x="184.156" y="237.101"/>
      <point x="108.192" y="414.351"/>
      <point x="108.192" y="511.033" type="qcurve" smooth="yes"/>
      <point x="108.192" y="616.923"/>
      <point x="191.062" y="796.475"/>
      <point x="326.877" y="925.385"/>
      <point x="504.127" y="999.047"/>
      <point x="600.809" y="999.047" type="qcurve" smooth="yes"/>
      <point x="610.017" y="999.047"/>
      <point x="690.586" y="994.443"/>
      <point x="798.777" y="959.914"/>
      <point x="918.479" y="888.553"/>
      <point x="966.82" y="821.797" type="qcurve"/>
      <point x="971.424" y="821.797" type="line"/>
      <point x="971.424" y="989.839" type="line"/>
      <point x="1272.98" y="989.839" type="line"/>
    </contour>
    <contour>
      <point x="971.424" y="506.429" type="qcurve" smooth="yes"/>
      <point x="971.424" y="591.602"/>
      <point x="911.573" y="732.021"/>
      <point x="810.287" y="831.005"/>
      <point x="676.774" y="883.95"/>
      <point x="605.413" y="883.95" type="qcurve" smooth="yes"/>
      <point x="531.751" y="883.95"/>
      <point x="398.238" y="828.703"/>
      <point x="294.65" y="732.021"/>
      <point x="232.497" y="596.206"/>
      <point x="232.497" y="513.335" type="qcurve" smooth="yes"/>
      <point x="232.497" y="432.767"/>
      <point x="292.348" y="296.952"/>
      <point x="393.634" y="195.666"/>
      <point x="529.449" y="138.117"/>
      <point x="605.413" y="138.117" type="qcurve" smooth="yes"/>
      <point x="685.982" y="138.117"/>
      <point x="821.797" y="200.27"/>
      <point x="918.479" y="301.556"/>
      <point x="971.424" y="435.069"/>
    </contour>
  </outline>
</glyph>
<glyph name="k" format="2">
  <advance width="600"/>
  <unicode hex="006B"/>
  <outline>
    <contour>
      <point x="185" y="239" type="line"/>
      <point x="372" y="381" type="line"/>
      <point x="372" y="383" type="line"/>
      <point x="316" y="383" type="line"/>
      <point x="316" y="430" type="line"/>
      <point x="525" y="430" type="line"/>
      <point x="525" y="383" type="line"/>
      <point x="447" y="383" type="line"/>
      <point x="279" y="254" type="line"/>
      <point x="309" y="227"/>
      <point x="369" y="168"/>
      <point x="422" y="113"/>
      <point x="465" y="64"/>
      <point x="479" y="47" type="qcurve"/>
      <point x="563" y="47" type="line"/>
      <point x="563" y="0" type="line"/>
      <point x="355" y="0" type="line"/>
      <point x="355" y="47" type="line"/>
      <point x="419" y="47" type="line"/>
      <point x="404" y="65"/>
      <point x="371" y="100"/>
      <point x="330" y="141"/>
      <point x="277" y="192"/>
      <point x="241" y="226" type="qcurve"/>
      <point x="185" y="183" type="line"/>
      <point x="185" y="0" type="line"/>
      <point x="52" y="0" type="line"/>
      <point x="52" y="47" type="line"/>
      <point x="135" y="47" type="line"/>
      <point x="135" y="577" type="line"/>
      <point x="40" y="569" type="line"/>
      <point x="36" y="616" type="line"/>
      <point x="185" y="629" type="line"/>
    </contour>
  </outline>
</glyph>
<glyph name="q" format="2">
  <advance width="600"/>
  <unicode hex="0071"/>
  <outline>
    <contour>
      <point x="499" y="383" type="line"/>
      <point x="499" y="-110" type="line"/>
      <point x="581" y="-110" type="line"/>
      <point x="581" y="-157" type="line"/>
      <point x="300" y="-157" type="line"/>
      <point x="300" y="-110" type="line"/>
      <point x="449" y="-110" type="line"/>
      <point x="449" y="79" type="line"/>
      <point x="447" y="79" type="line"/>
      <point x="421" y="47"/>
      <point x="365" y="12"/>
      <point x="315" y="-4"/>
      <point x="279" y="-7"/>
      <point x="273" y="-7" type="qcurve" smooth="yes"/>
      <point x="232" y="-7"/>
      <point x="153" y="26"/>
      <point x="91" y="86"/>
      <point x="52" y="169"/>
      <point x="52" y="219" type="qcurve" smooth="yes"/>
      <point x="52" y="262"/>
      <point x="83" y="342"/>
      <point x="142" y="405"/>
      <point x="224" y="443"/>
      <point x="275" y="443" type="qcurve" smooth="yes"/>
      <point x="315" y="443"/>
      <point x="374" y="423"/>
      <point x="416" y="396"/>
      <point x="441" y="368"/>
      <point x="447" y="359" type="qcurve"/>
      <point x="449" y="359" type="line"/>
      <point x="449" y="430" type="line"/>
      <point x="581" y="430" type="line"/>
      <point x="581" y="383" type="line"/>
    </contour>
    <contour>
      <point x="453" y="222" type="qcurve" smooth="yes"/>
      <point x="453" y="256"/>
      <point x="426" y="319"/>
      <point x="379" y="365"/>
      <point x="313" y="393"/>
      <point x="274" y="393" type="qcurve" smooth="yes"/>
      <point x="232" y="393"/>
      <point x="169" y="362"/>
      <point x="127" y="313"/>
      <point x="106" y="251"/>
      <point x="106" y="220" type="qcurve" smooth="yes"/>
      <point x="106" y="182"/>
      <point x="133" y="117"/>
      <point x="180" y="70"/>
      <point x="241" y="43"/>
      <point x="275" y="43" type="qcurve" smooth="yes"/>
      <point x="304" y="43"/>
      <point x="367" y="66"/>
      <point x="419" y="111"/>
      <point x="453" y="178"/>
    </contour>
  </outline>
</glyph>
<glyph name="r" format="2">
  <advance width="1381"/>
  <unicode hex="0072"/>
  <outline>
    <contour>
      <point x="573.186" y="759.644" type="line"/>
      <point x="612.319" y="798.777"/>
      <point x="709.001" y="890.855"/>
      <point x="826.401" y="969.122"/>
      <point x="966.82" y="1022.07"/>
      <point x="1049.69" y="1022.07" type="qcurve" smooth="yes"/>
      <point x="1102.64" y="1022.07"/>
      <point x="1183.2" y="999.047"/>
      <point x="1245.36" y="962.216"/>
      <point x="1289.09" y="918.479"/>
      <point x="1307.51" y="895.459" type="qcurve"/>
      <point x="1185.51" y="805.683" type="line"/>
      <point x="1183.2" y="807.985"/>
      <point x="1176.3" y="817.193"/>
      <point x="1176.3" y="821.797" type="qcurve"/>
      <point x="1167.09" y="835.609"/>
      <point x="1146.37" y="865.534"/>
      <point x="1114.14" y="890.855"/>
      <point x="1065.8" y="906.969"/>
      <point x="1031.27" y="906.969" type="qcurve" smooth="yes"/>
      <point x="955.31" y="906.969"/>
      <point x="817.193" y="840.212"/>
      <point x="697.491" y="745.832"/>
      <point x="603.111" y="644.547"/>
      <point x="573.186" y="612.319" type="qcurve"/>
      <point x="573.186" y="108.192" type="line"/>
      <point x="1010.56" y="108.192" type="line"/>
      <point x="1010.56" y="0" type="line"/>
      <point x="172.646" y="0" type="line"/>
      <point x="172.646" y="108.192" type="line"/>
      <point x="458.088" y="108.192" type="line"/>
      <point x="458.088" y="881.648" type="line"/>
      <point x="191.062" y="881.648" type="line"/>
      <point x="191.062" y="989.839" type="line"/>
      <point x="573.186" y="989.839" type="line"/>
    </contour>
  </outline>
</glyph>
<glyph name="w" format="2">
  <advance width="1381"/>
  <unicode hex="0077"/>
  <outline>
    <contour>
      <point x="416.653" y="881.648" type="line"/>
      <point x="225.591" y="881.648" type="line"/>
      <point x="428.163" y="184.156" type="line"/>
      <point x="432.767" y="184.156" type="line"/>
      <point x="658.358" y="810.287" type="line"/>
      <point x="738.927" y="810.287" type="line"/>
      <point x="966.82" y="174.948" type="line"/>
      <point x="971.424" y="174.948" type="line"/>
      <point x="1178.6" y="881.648" type="line"/>
      <point x="985.235" y="881.648" type="line"/>
      <point x="985.235" y="989.839" type="line"/>
      <point x="1376.57" y="989.839" type="line"/>
      <point x="1376.57" y="881.648" type="line"/>
      <point x="1286.79" y="881.648" type="line"/>
      <point x="1028.97" y="0" type="line"/>
      <point x="909.271" y="0" type="line"/>
      <point x="690.586" y="593.904" type="line"/>
      <point x="476.504" y="0" type="line"/>
      <point x="363.708" y="0" type="line"/>
      <point x="103.588" y="881.648" type="line"/>
      <point x="4.6039" y="881.648" type="line"/>
      <point x="4.6039" y="989.839" type="line"/>
      <point x="416.653" y="989.839" type="line"/>
    </contour>
  </outline>
</glyph>
<glyph name="cent" format="2">
  <advance width="1381"/>
  <unicode hex="00A2"/>
  <outline>
    <contour>
      <point x="764.248" y="313.065" type="line"/>
      <point x="814.891" y="322.273"/>
      <point x="890.855" y="340.689"/>
      <point x="966.82" y="368.312"/>
      <point x="1054.29" y="414.351"/>
      <point x="1116.45" y="453.485" type="qcurve"/>
      <point x="1171.69" y="359.105" type="line"/>
      <point x="1169.39" y="359.105"/>
      <point x="1160.18" y="352.199"/>
      <point x="1157.88" y="352.199" type="qcurve"/>
      <point x="1102.64" y="315.367"/>
      <point x="1017.46" y="267.026"/>
      <point x="932.291" y="234.799"/>
      <point x="833.307" y="211.78"/>
      <point x="764.248" y="200.27" type="qcurve"/>
      <point x="764.248" y="-131.211" type="line"/>
      <point x="651.452" y="-131.211" type="line"/>
      <point x="651.452" y="200.27" type="line"/>
      <point x="586.998" y="214.082"/>
      <point x="492.618" y="244.007"/>
      <point x="421.257" y="285.442"/>
      <point x="363.708" y="342.991"/>
      <point x="336.085" y="382.124" type="qcurve"/>
      <point x="301.556" y="435.069"/>
      <point x="255.517" y="563.978"/>
      <point x="255.517" y="646.849" type="qcurve" smooth="yes"/>
      <point x="255.517" y="727.417"/>
      <point x="308.462" y="877.044"/>
      <point x="407.446" y="996.745"/>
      <point x="554.77" y="1079.62"/>
      <point x="651.452" y="1095.73" type="qcurve"/>
      <point x="651.452" y="1408.79" type="line"/>
      <point x="764.248" y="1408.79" type="line"/>
      <point x="764.248" y="1095.73" type="line"/>
      <point x="819.495" y="1091.13"/>
      <point x="904.667" y="1063.5"/>
      <point x="962.216" y="1033.58"/>
      <point x="996.745" y="1003.65"/>
      <point x="1001.35" y="999.047" type="qcurve"/>
      <point x="1005.95" y="996.745"/>
      <point x="1010.56" y="989.839"/>
      <point x="1015.16" y="989.839" type="qcurve" smooth="yes"/>
      <point x="1022.07" y="989.839"/>
      <point x="1028.97" y="1005.95"/>
      <point x="1035.88" y="1024.37"/>
      <point x="1035.88" y="1033.58" type="qcurve"/>
      <point x="1038.18" y="1040.48"/>
      <point x="1038.18" y="1042.78" type="qcurve"/>
      <point x="1042.78" y="1065.8"/>
      <point x="1042.78" y="1070.41" type="qcurve"/>
      <point x="1150.98" y="1058.9" type="line"/>
      <point x="1144.07" y="1017.46"/>
      <point x="1130.26" y="918.479"/>
      <point x="1130.26" y="872.44" type="qcurve" smooth="yes"/>
      <point x="1130.26" y="849.42"/>
      <point x="1132.56" y="787.268"/>
      <point x="1137.16" y="734.323" type="qcurve"/>
      <point x="1028.97" y="720.511" type="line"/>
      <point x="1028.97" y="741.229"/>
      <point x="1024.37" y="796.475"/>
      <point x="1005.95" y="854.024"/>
      <point x="971.424" y="911.573"/>
      <point x="941.498" y="932.291" type="qcurve" smooth="yes"/>
      <point x="895.459" y="964.518"/>
      <point x="794.173" y="989.839"/>
      <point x="764.248" y="989.839" type="qcurve"/>
    </contour>
    <contour>
      <point x="651.452" y="982.934" type="line"/>
      <point x="547.865" y="959.914"/>
      <point x="435.069" y="856.326"/>
      <point x="384.426" y="745.832"/>
      <point x="375.218" y="656.056"/>
      <point x="375.218" y="649.15" type="qcurve" smooth="yes"/>
      <point x="375.218" y="598.508"/>
      <point x="412.049" y="478.806"/>
      <point x="453.485" y="425.861" type="qcurve" smooth="yes"/>
      <point x="499.524" y="366.01"/>
      <point x="600.809" y="326.877"/>
      <point x="651.452" y="315.367" type="qcurve"/>
    </contour>
  </outline>
</glyph>
<glyph name="sterling" format="2">
  <advance width="600"/>
  <unicode hex="00A3"/>
  <outline>
    <contour>
      <point x="187" y="339" type="line"/>
      <point x="172" y="379"/>
      <point x="161" y="425"/>
      <point x="161" y="448" type="qcurve" smooth="yes"/>
      <point x="161" y="483"/>
      <point x="190" y="543"/>
      <point x="240" y="587"/>
      <point x="304" y="612"/>
      <point x="340" y="612" type="qcurve" smooth="yes"/>
      <point x="378" y="612"/>
      <point x="433" y="596"/>
      <point x="454" y="588" type="qcurve" smooth="yes"/>
      <point x="456" y="587"/>
      <point x="463" y="585"/>
      <point x="465" y="585" type="qcurve" smooth="yes"/>
      <point x="467" y="585"/>
      <point x="470" y="588"/>
      <point x="473" y="595" type="qcurve"/>
      <point x="518" y="595" type="line"/>
      <point x="510" y="567"/>
      <point x="501" y="519"/>
      <point x="499" y="483" type="qcurve"/>
      <point x="454" y="478" type="line"/>
      <point x="455" y="490"/>
      <point x="456" y="507"/>
      <point x="456" y="511" type="qcurve" smooth="yes"/>
      <point x="456" y="517"/>
      <point x="451" y="534"/>
      <point x="443" y="539" type="qcurve" smooth="yes"/>
      <point x="432" y="545"/>
      <point x="374" y="563"/>
      <point x="342" y="563" type="qcurve" smooth="yes"/>
      <point x="310" y="563"/>
      <point x="260" y="543"/>
      <point x="227" y="510"/>
      <point x="210" y="469"/>
      <point x="210" y="449" type="qcurve" smooth="yes"/>
      <point x="210" y="438"/>
      <point x="213" y="419"/>
      <point x="219" y="394"/>
      <point x="229" y="362"/>
      <point x="237" y="339" type="qcurve"/>
      <point x="480" y="339" type="line"/>
      <point x="480" y="292" type="line"/>
      <point x="251" y="292" type="line"/>
      <point x="256" y="272"/>
      <point x="260" y="240"/>
      <point x="260" y="219" type="qcurve" smooth="yes"/>
      <point x="260" y="186"/>
      <point x="250" y="134"/>
      <point x="234" y="93"/>
      <point x="216" y="61"/>
      <point x="207" y="49" type="qcurve"/>
      <point x="209" y="47" type="line"/>
      <point x="223" y="54"/>
      <point x="257" y="66"/>
      <point x="280" y="66" type="qcurve" smooth="yes"/>
      <point x="298" y="66"/>
      <point x="330" y="59"/>
      <point x="357" y="48" type="qcurve" smooth="yes"/>
      <point x="379" y="40"/>
      <point x="403" y="33"/>
      <point x="414" y="33" type="qcurve" smooth="yes"/>
      <point x="438" y="33"/>
      <point x="475" y="54"/>
      <point x="499" y="74" type="qcurve"/>
      <point x="528" y="38" type="line"/>
      <point x="521" y="31"/>
      <point x="500" y="13"/>
      <point x="473" y="-3"/>
      <point x="438" y="-14"/>
      <point x="417" y="-14" type="qcurve" smooth="yes"/>
      <point x="403" y="-14"/>
      <point x="371" y="-8"/>
      <point x="347" y="1" type="qcurve" smooth="yes"/>
      <point x="319" y="11"/>
      <point x="291" y="19"/>
      <point x="275" y="19" type="qcurve" smooth="yes"/>
      <point x="255" y="19"/>
      <point x="204" y="4"/>
      <point x="162" y="-20" type="qcurve"/>
      <point x="129" y="23" type="line"/>
      <point x="158" y="53"/>
      <point x="192" y="112"/>
      <point x="209" y="163"/>
      <point x="213" y="203"/>
      <point x="213" y="215" type="qcurve" smooth="yes"/>
      <point x="213" y="254"/>
      <point x="201" y="292" type="qcurve"/>
      <point x="96" y="292" type="line"/>
      <point x="96" y="339" type="line"/>
    </contour>
  </outline>
</glyph>
<glyph name="currency" format="2">
  <advance width="1381"/>
  <unicode hex="00A4"/>
  <outline>
    <contour>
      <point x="1127.96" y="140.419" type="line"/>
      <point x="941.498" y="324.575" type="line"/>
      <point x="870.138" y="267.026"/>
      <point x="727.417" y="239.403"/>
      <point x="690.586" y="239.403" type="qcurve" smooth="yes"/>
      <point x="676.774" y="239.403"/>
      <point x="623.829" y="244.007"/>
      <point x="557.072" y="260.121"/>
      <point x="478.806" y="294.65"/>
      <point x="439.673" y="324.575" type="qcurve"/>
      <point x="253.215" y="140.419" type="line"/>
      <point x="172.646" y="218.685" type="line"/>
      <point x="361.406" y="402.842" type="line"/>
      <point x="301.556" y="490.316"/>
      <point x="280.838" y="614.621"/>
      <point x="280.838" y="633.037" type="qcurve" smooth="yes"/>
      <point x="280.838" y="743.53"/>
      <point x="336.085" y="863.232"/>
      <point x="361.406" y="897.761" type="qcurve"/>
      <point x="172.646" y="1084.22" type="line"/>
      <point x="253.215" y="1160.18" type="line"/>
      <point x="439.673" y="976.028" type="line"/>
      <point x="511.033" y="1031.27"/>
      <point x="644.547" y="1061.2"/>
      <point x="690.586" y="1061.2" type="qcurve" smooth="yes"/>
      <point x="741.229" y="1061.2"/>
      <point x="821.797" y="1042.78"/>
      <point x="883.95" y="1015.16"/>
      <point x="927.687" y="985.235"/>
      <point x="941.498" y="976.028" type="qcurve"/>
      <point x="1127.96" y="1160.18" type="line"/>
      <point x="1208.52" y="1084.22" type="line"/>
      <point x="1019.76" y="897.761" type="line"/>
      <point x="1077.31" y="817.193"/>
      <point x="1102.64" y="692.888"/>
      <point x="1102.64" y="667.566" type="qcurve" smooth="yes"/>
      <point x="1102.64" y="612.319"/>
      <point x="1084.22" y="527.147"/>
      <point x="1058.9" y="464.994"/>
      <point x="1031.27" y="418.955"/>
      <point x="1019.76" y="402.842" type="qcurve"/>
      <point x="1208.52" y="218.685" type="line"/>
    </contour>
    <contour>
      <point x="994.443" y="651.452" type="qcurve" smooth="yes"/>
      <point x="994.443" y="709.001"/>
      <point x="953.008" y="817.193"/>
      <point x="872.44" y="902.365"/>
      <point x="759.644" y="953.008"/>
      <point x="690.586" y="953.008" type="qcurve" smooth="yes"/>
      <point x="619.225" y="953.008"/>
      <point x="508.731" y="900.063"/>
      <point x="430.465" y="814.891"/>
      <point x="389.03" y="706.699"/>
      <point x="389.03" y="651.452" type="qcurve" smooth="yes"/>
      <point x="389.03" y="591.602"/>
      <point x="430.465" y="483.41"/>
      <point x="506.429" y="398.238"/>
      <point x="619.225" y="347.595"/>
      <point x="688.284" y="347.595" type="qcurve" smooth="yes"/>
      <point x="757.342" y="347.595"/>
      <point x="872.44" y="398.238"/>
      <point x="950.706" y="483.41"/>
      <point x="994.443" y="591.602"/>
    </contour>
  </outline>
</glyph>
<glyph name="yen" format="2">
  <advance width="1381"/>
  <unicode hex="00A5"/>
  <outline>
    <contour>
      <point x="1026.67" y="108.192" type="line"/>
      <point x="1026.67" y="0" type="line"/>
      <point x="368.312" y="0" type="line"/>
      <point x="368.312" y="108.192" type="line"/>
      <point x="642.245" y="108.192" type="line"/>
      <point x="642.245" y="319.971" type="line"/>
      <point x="303.858" y="319.971" type="line"/>
      <point x="303.858" y="428.163" type="line"/>
      <point x="642.245" y="428.163" type="line"/>
      <point x="642.245" y="561.676" type="line"/>
      <point x="303.858" y="561.676" type="line"/>
      <point x="303.858" y="669.868" type="line"/>
      <point x="642.245" y="669.868" type="line"/>
      <point x="642.245" y="699.793" type="line"/>
      <point x="214.082" y="1256.87" type="line"/>
      <point x="73.6625" y="1256.87" type="line"/>
      <point x="73.6625" y="1365.06" type="line"/>
      <point x="527.147" y="1365.06" type="line"/>
      <point x="527.147" y="1256.87" type="line"/>
      <point x="352.199" y="1256.87" type="line"/>
      <point x="697.491" y="807.985" type="line"/>
      <point x="1035.88" y="1256.87" type="line"/>
      <point x="860.93" y="1256.87" type="line"/>
      <point x="860.93" y="1365.06" type="line"/>
      <point x="1307.51" y="1365.06" type="line"/>
      <point x="1307.51" y="1256.87" type="line"/>
      <point x="1169.39" y="1256.87" type="line"/>
      <point x="752.738" y="699.793" type="line"/>
      <point x="752.738" y="669.868" type="line"/>
      <point x="1084.22" y="669.868" type="line"/>
      <point x="1084.22" y="561.676" type="line"/>
      <point x="752.738" y="561.676" type="line"/>
      <point x="752.738" y="428.163" type="line"/>
      <point x="1084.22" y="428.163" type="line"/>
      <point x="1084.22" y="319.971" type="line"/>
      <point x="752.738" y="319.971" type="line"/>
      <point x="752.738" y="108.192" type="line"/>
    </contour>
  </outline>
</glyph>
<glyph name="section" format="2">
  <advance width="1381"/>
  <unicode hex="00A7"/>
  <outline>
    <contour>
      <point x="971.424" y="989.839" type="line"/>
      <point x="971.424" y="1187.81" type="line"/>
      <point x="706.699" y="1187.81" type="line" smooth="yes"/>
      <point x="688.284" y="1187.81"/>
      <point x="630.735" y="1183.2"/>
      <point x="575.488" y="1157.88"/>
      <point x="536.355" y="1104.94"/>
      <point x="536.355" y="1054.29" type="qcurve" smooth="yes"/>
      <point x="536.355" y="1008.25"/>
      <point x="586.998" y="941.498"/>
      <point x="619.225" y="916.177" type="qcurve" smooth="yes"/>
      <point x="936.894" y="672.17" type="line" smooth="yes"/>
      <point x="978.33" y="639.943"/>
      <point x="1049.69" y="580.092"/>
      <point x="1100.33" y="517.939"/>
      <point x="1127.96" y="446.579"/>
      <point x="1127.96" y="402.842" type="qcurve" smooth="yes"/>
      <point x="1127.96" y="375.218"/>
      <point x="1109.54" y="306.16"/>
      <point x="1065.8" y="241.705"/>
      <point x="992.141" y="191.062"/>
      <point x="936.894" y="179.552" type="qcurve"/>
      <point x="948.404" y="161.137"/>
      <point x="980.632" y="96.682"/>
      <point x="980.632" y="41.4351" type="qcurve" smooth="yes"/>
      <point x="980.632" y="-75.9644"/>
      <point x="810.287" y="-209.478"/>
      <point x="665.264" y="-209.478" type="qcurve" smooth="yes"/>
      <point x="301.556" y="-209.478" type="line"/>
      <point x="301.556" y="122.003" type="line"/>
      <point x="409.747" y="122.003" type="line"/>
      <point x="409.747" y="-101.286" type="line"/>
      <point x="679.076" y="-101.286" type="line" smooth="yes"/>
      <point x="709.001" y="-101.286"/>
      <point x="775.758" y="-85.1722"/>
      <point x="826.401" y="-52.9449"/>
      <point x="860.93" y="0"/>
      <point x="860.93" y="39.1332" type="qcurve" smooth="yes"/>
      <point x="860.93" y="71.3605"/>
      <point x="828.703" y="133.513"/>
      <point x="766.55" y="179.552" type="qcurve" smooth="yes"/>
      <point x="458.088" y="416.653" type="line" smooth="yes"/>
      <point x="384.426" y="474.202"/>
      <point x="285.442" y="582.394"/>
      <point x="285.442" y="662.962" type="qcurve" smooth="yes"/>
      <point x="285.442" y="702.095"/>
      <point x="315.367" y="780.362"/>
      <point x="366.01" y="844.816"/>
      <point x="432.767" y="890.855"/>
      <point x="471.9" y="897.761" type="qcurve"/>
      <point x="432.767" y="941.498"/>
      <point x="416.653" y="1038.18"/>
      <point x="416.653" y="1051.99" type="qcurve" smooth="yes"/>
      <point x="416.653" y="1125.65"/>
      <point x="485.712" y="1224.64"/>
      <point x="522.543" y="1249.96" type="qcurve"/>
      <point x="575.488" y="1282.19"/>
      <point x="699.793" y="1296"/>
      <point x="738.927" y="1296" type="qcurve" smooth="yes"/>
      <point x="1079.62" y="1296" type="line"/>
      <point x="1079.62" y="989.839" type="line"/>
    </contour>
    <contour>
      <point x="570.884" y="810.287" type="line"/>
      <point x="508.731" y="803.381"/>
      <point x="441.975" y="759.644"/>
      <point x="409.747" y="711.303"/>
      <point x="405.144" y="669.868"/>
      <point x="405.144" y="665.264" type="qcurve" smooth="yes"/>
      <point x="405.144" y="635.339"/>
      <point x="446.579" y="570.884"/>
      <point x="520.241" y="515.637" type="qcurve" smooth="yes"/>
      <point x="833.307" y="273.932" type="line"/>
      <point x="888.553" y="276.234"/>
      <point x="955.31" y="306.16"/>
      <point x="994.443" y="345.293"/>
      <point x="1008.25" y="389.03"/>
      <point x="1008.25" y="402.842" type="qcurve" smooth="yes"/>
      <point x="1008.25" y="423.559"/>
      <point x="996.745" y="460.39"/>
      <point x="964.518" y="499.524"/>
      <point x="909.271" y="547.865"/>
      <point x="865.534" y="582.394" type="qcurve" smooth="yes"/>
    </contour>
  </outline>
</glyph>
<glyph name="logicalnot" format="2">
  <advance width="600"/>
  <unicode hex="00AC"/>
  <outline>
    <contour>
      <point x="519" y="169" type="line"/>
      <point x="469" y="169" type="line"/>
      <point x="469" y="388" type="line"/>
      <point x="90" y="388" type="line"/>
      <point x="90" y="438" type="line"/>
      <point x="519" y="438" type="line"/>
    </contour>
  </outline>
</glyph>
<glyph name="registered" format="2">
  <advance width="600"/>
  <unicode hex="00AE"/>
  <outline>
    <contour>
      <point x="298" y="466" type="line" smooth="yes"/>
      <point x="306" y="466"/>
      <point x="344" y="463"/>
      <point x="384" y="447"/>
      <point x="414" y="412"/>
      <point x="414" y="381" type="qcurve" smooth="yes"/>
      <point x="414" y="376"/>
      <point x="411" y="354"/>
      <point x="397" y="327"/>
      <point x="366" y="302"/>
      <point x="338" y="295" type="qcurve"/>
      <point x="354" y="284"/>
      <point x="376" y="242"/>
      <point x="392" y="206" type="qcurve" smooth="yes"/>
      <point x="400" y="188"/>
      <point x="411" y="169"/>
      <point x="423" y="160"/>
      <point x="439" y="159"/>
      <point x="452" y="159" type="qcurve"/>
      <point x="452" y="135" type="line"/>
      <point x="412" y="135" type="line" smooth="yes"/>
      <point x="383" y="135"/>
      <point x="356" y="176"/>
      <point x="343" y="211" type="qcurve" smooth="yes"/>
      <point x="333" y="238"/>
      <point x="319" y="267"/>
      <point x="303" y="282"/>
      <point x="282" y="285"/>
      <point x="264" y="285" type="qcurve" smooth="yes"/>
      <point x="246" y="285" type="line"/>
      <point x="246" y="185" type="line" smooth="yes"/>
      <point x="246" y="172"/>
      <point x="248" y="165"/>
      <point x="253" y="162" type="qcurve" smooth="yes"/>
      <point x="255" y="161"/>
      <point x="279" y="159"/>
      <point x="287" y="158" type="qcurve"/>
      <point x="287" y="135" type="line"/>
      <point x="160" y="135" type="line"/>
      <point x="160" y="158" type="line"/>
      <point x="162" y="159"/>
      <point x="167" y="159" type="qcurve" smooth="yes"/>
      <point x="173" y="159"/>
      <point x="174" y="160" type="qcurve"/>
      <point x="192" y="162"/>
      <point x="201" y="168"/>
      <point x="201" y="185" type="qcurve" smooth="yes"/>
      <point x="201" y="418" type="line" smooth="yes"/>
      <point x="201" y="430"/>
      <point x="200" y="436"/>
      <point x="195" y="438" type="qcurve"/>
      <point x="194" y="439"/>
      <point x="188" y="439" type="qcurve" smooth="yes"/>
      <point x="186" y="439"/>
      <point x="171" y="440"/>
      <point x="160" y="441" type="qcurve"/>
      <point x="160" y="466" type="line"/>
    </contour>
    <contour>
      <point x="269" y="309" type="line" smooth="yes"/>
      <point x="314" y="309"/>
      <point x="369" y="339"/>
      <point x="369" y="378" type="qcurve" smooth="yes"/>
      <point x="369" y="401"/>
      <point x="351" y="427"/>
      <point x="325" y="439"/>
      <point x="297" y="442"/>
      <point x="287" y="442" type="qcurve" smooth="yes"/>
      <point x="259" y="442"/>
      <point x="246" y="436"/>
      <point x="246" y="421" type="qcurve" smooth="yes"/>
      <point x="246" y="309" type="line"/>
    </contour>
    <contour>
      <point x="300" y="580" type="qcurve" smooth="yes"/>
      <point x="360" y="580"/>
      <point x="465" y="535"/>
      <point x="544" y="457"/>
      <point x="590" y="351"/>
      <point x="590" y="290" type="qcurve" smooth="yes"/>
      <point x="590" y="230"/>
      <point x="544" y="125"/>
      <point x="466" y="46"/>
      <point x="360" y="0"/>
      <point x="300" y="0" type="qcurve" smooth="yes"/>
      <point x="240" y="0"/>
      <point x="134" y="46"/>
      <point x="56" y="125"/>
      <point x="10" y="230"/>
      <point x="10" y="290" type="qcurve" smooth="yes"/>
      <point x="10" y="351"/>
      <point x="56" y="457"/>
      <point x="135" y="535"/>
      <point x="241" y="580"/>
    </contour>
    <contour>
      <point x="300" y="542" type="qcurve" smooth="yes"/>
      <point x="248" y="542"/>
      <point x="157" y="503"/>
      <point x="88" y="434"/>
      <point x="48" y="342"/>
      <point x="48" y="290" type="qcurve" smooth="yes"/>
      <point x="48" y="238"/>
      <point x="87" y="147"/>
      <point x="156" y="78"/>
      <point x="247" y="38"/>
      <point x="300" y="38" type="qcurve" smooth="yes"/>
      <point x="352" y="38"/>
      <point x="444" y="78"/>
      <point x="513" y="147"/>
      <point x="552" y="238"/>
      <point x="552" y="290" type="qcurve" smooth="yes"/>
      <point x="552" y="343"/>
      <point x="512" y="435"/>
      <point x="443" y="503"/>
      <point x="351" y="542"/>
    </contour>
  </outline>
</glyph>
<glyph name="twosuperior" format="2">
  <advance width="600"/>
  <unicode hex="00B2"/>
  <outline>
    <contour>
      <point x="406" y="248" type="line"/>
      <point x="167" y="248" type="line"/>
      <point x="167" y="287" type="line"/>
      <point x="176" y="295" type="line" smooth="yes"/>
      <point x="186" y="304"/>
      <point x="216" y="331"/>
      <point x="248" y="360"/>
      <point x="278" y="387"/>
      <point x="288" y="396" type="qcurve" smooth="yes"/>
      <point x="313" y="419"/>
      <point x="344" y="450"/>
      <point x="359" y="474"/>
      <point x="364" y="495"/>
      <point x="364" y="509" type="qcurve" smooth="yes"/>
      <point x="364" y="539"/>
      <point x="320" y="581"/>
      <point x="289" y="581" type="qcurve" smooth="yes"/>
      <point x="261" y="581"/>
      <point x="221" y="551"/>
      <point x="220" y="531" type="qcurve"/>
      <point x="221" y="519" type="line"/>
      <point x="179" y="519" type="line"/>
      <point x="179" y="566" type="line"/>
      <point x="222" y="621"/>
      <point x="290" y="621" type="qcurve" smooth="yes"/>
      <point x="314" y="621"/>
      <point x="357" y="603"/>
      <point x="389" y="573"/>
      <point x="407" y="532"/>
      <point x="407" y="508" type="qcurve" smooth="yes"/>
      <point x="407" y="489"/>
      <point x="397" y="458"/>
      <point x="373" y="423"/>
      <point x="330" y="381"/>
      <point x="297" y="351" type="qcurve" smooth="yes"/>
      <point x="228" y="288" type="line"/>
      <point x="367" y="288" type="line"/>
      <point x="367" y="345" type="line"/>
      <point x="406" y="345" type="line"/>
    </contour>
  </outline>
</glyph>
<glyph name="paragraph" format="2">
  <advance width="1381"/>
  <unicode hex="00B6"/>
  <outline>
    <contour>
      <point x="1141.77" y="-108.192" type="line"/>
      <point x="1141.77" y="-177.25" type="line"/>
      <point x="874.742" y="-177.25" type="line"/>
      <point x="874.742" y="-108.192" type="line"/>
      <point x="918.479" y="-108.192" type="line"/>
      <point x="918.479" y="1226.94" type="line"/>
      <point x="729.719" y="1226.94" type="line"/>
      <point x="729.719" y="-108.192" type="line"/>
      <point x="773.456" y="-108.192" type="line"/>
      <point x="773.456" y="-177.25" type="line"/>
      <point x="483.41" y="-177.25" type="line"/>
      <point x="483.41" y="-108.192" type="line"/>
      <point x="626.131" y="-108.192" type="line"/>
      <point x="626.131" y="600.809" type="line"/>
      <point x="559.374" y="596.206"/>
      <point x="421.257" y="623.829"/>
      <point x="306.16" y="702.095"/>
      <point x="232.497" y="842.514"/>
      <point x="232.497" y="953.008" type="qcurve" smooth="yes"/>
      <point x="232.497" y="1079.62"/>
      <point x="310.764" y="1220.03"/>
      <point x="432.767" y="1284.49"/>
      <point x="582.394" y="1296"/>
      <point x="656.056" y="1296" type="qcurve" smooth="yes"/>
      <point x="1132.56" y="1296" type="line"/>
      <point x="1132.56" y="1226.94" type="line"/>
      <point x="1022.07" y="1226.94" type="line"/>
      <point x="1022.07" y="-108.192" type="line"/>
    </contour>
    <contour>
      <point x="626.131" y="1226.94" type="line"/>
      <point x="586.998" y="1226.94"/>
      <point x="513.335" y="1217.73"/>
      <point x="455.786" y="1178.6"/>
      <point x="418.955" y="1095.73"/>
      <point x="418.955" y="1019.76" type="qcurve" smooth="yes"/>
      <point x="418.955" y="881.648" type="line" smooth="yes"/>
      <point x="418.955" y="867.836"/>
      <point x="428.163" y="794.173"/>
      <point x="469.598" y="718.209"/>
      <point x="552.468" y="662.962"/>
      <point x="626.131" y="669.868" type="qcurve"/>
    </contour>
  </outline>
</glyph>
<glyph name="guillemotright" format="2">
  <advance width="533"/>
  <unicode hex="00BB"/>
  <outline>
    <contour>
      <point x="158" y="50" type="line"/>
      <point x="50" y="50" type="line"/>
      <point x="186" y="269" type="line"/>
      <point x="50" y="487" type="line"/>
      <point x="158" y="487" type="line"/>
      <point x="294" y="269" type="line"/>
    </contour>
    <contour>
      <point x="348" y="50" type="line"/>
      <point x="240" y="50" type="line"/>
      <point x="374" y="269" type="line"/>
      <point x="240" y="487" type="line"/>
      <point x="348" y="487" type="line"/>
      <point x="483" y="269" type="line"/>
    </contour>
  </outline>
</glyph>
<glyph name="onequarter" format="2">
  <advance width="1381"/>
  <unicode hex="00BC"/>
  <outline>
    <contour>
      <point x="1353.55" y="105.89" type="line"/>
      <point x="1353.55" y="20.7176" type="line"/>
      <point x="1231.54" y="20.7176" type="line"/>
      <point x="1231.54" y="-94.38" type="line"/>
      <point x="1353.55" y="-94.38" type="line"/>
      <point x="1353.55" y="-177.25" type="line"/>
      <point x="989.839" y="-177.25" type="line"/>
      <point x="989.839" y="-94.38" type="line"/>
      <point x="1144.07" y="-94.38" type="line"/>
      <point x="1144.07" y="20.7176" type="line"/>
      <point x="778.06" y="20.7176" type="line"/>
      <point x="778.06" y="112.796" type="line"/>
      <point x="1121.05" y="681.378" type="line"/>
      <point x="1231.54" y="681.378" type="line"/>
      <point x="1231.54" y="105.89" type="line"/>
    </contour>
    <contour>
      <point x="1139.47" y="554.77" type="line"/>
      <point x="874.742" y="105.89" type="line"/>
      <point x="1144.07" y="105.89" type="line"/>
      <point x="1144.07" y="554.77" type="line"/>
    </contour>
    <contour>
      <point x="352.199" y="1431.81" type="line"/>
      <point x="352.199" y="660.66" type="line"/>
      <point x="527.147" y="660.66" type="line"/>
      <point x="527.147" y="573.186" type="line"/>
      <point x="87.4742" y="573.186" type="line"/>
      <point x="87.4742" y="660.66" type="line"/>
      <point x="264.724" y="660.66" type="line"/>
      <point x="264.724" y="1323.62" type="line"/>
      <point x="96.682" y="1254.56" type="line"/>
      <point x="59.8508" y="1332.83" type="line"/>
      <point x="296.952" y="1431.81" type="line"/>
    </contour>
    <contour>
      <point x="202.572" y="-207.176" type="line"/>
      <point x="138.117" y="-156.533" type="line"/>
      <point x="1312.11" y="1457.14" type="line"/>
      <point x="1376.57" y="1411.1" type="line"/>
    </contour>
  </outline>
</glyph>
<glyph name="questiondown" format="2">
  <advance width="600"/>
  <unicode hex="00BF"/>
  <outline>
    <contour>
      <point x="474" y="-105" type="line"/>
      <point x="448" y="-114"/>
      <point x="407" y="-127"/>
      <point x="370" y="-136"/>
      <point x="333" y="-140"/>
      <point x="312" y="-140" type="qcurve" smooth="yes"/>
      <point x="264" y="-140"/>
      <point x="192" y="-112"/>
      <point x="144" y="-67"/>
      <point x="120" y="-8"/>
      <point x="120" y="24" type="qcurve" smooth="yes"/>
      <point x="120" y="68"/>
      <point x="158" y="127"/>
      <point x="213" y="165"/>
      <point x="276" y="187"/>
      <point x="301" y="194" type="qcurve"/>
      <point x="301" y="254" type="line"/>
      <point x="350" y="254" type="line"/>
      <point x="350" y="157" type="line"/>
      <point x="348" y="156"/>
      <point x="335" y="153"/>
      <point x="330" y="152" type="qcurve" smooth="yes"/>
      <point x="305" y="146"/>
      <point x="249" y="129"/>
      <point x="203" y="100"/>
      <point x="172" y="55"/>
      <point x="172" y="21" type="qcurve" smooth="yes"/>
      <point x="172" y="6"/>
      <point x="184" y="-33"/>
      <point x="215" y="-68"/>
      <point x="269" y="-91"/>
      <point x="311" y="-91" type="qcurve" smooth="yes"/>
      <point x="348" y="-91"/>
      <point x="399" y="-77"/>
      <point x="424" y="-67" type="qcurve"/>
      <point x="424" y="-3" type="line"/>
      <point x="474" y="-3" type="line"/>
    </contour>
    <contour>
      <point x="329" y="327" type="qcurve" smooth="yes"/>
      <point x="300" y="327"/>
      <point x="260" y="362"/>
      <point x="260" y="388" type="qcurve" smooth="yes"/>
      <point x="260" y="415"/>
      <point x="301" y="450"/>
      <point x="329" y="450" type="qcurve" smooth="yes"/>
      <point x="357" y="450"/>
      <point x="398" y="415"/>
      <point x="398" y="388" type="qcurve" smooth="yes"/>
      <point x="398" y="362"/>
      <point x="358" y="327"/>
    </contour>
  </outline>
</glyph>
<glyph name="Eth" format="2">
  <advance width="600"/>
  <unicode hex="00D0"/>
  <outline>
    <contour>
      <point x="34" y="321" type="line"/>
      <point x="113" y="321" type="line"/>
      <point x="113" y="516" type="line"/>
      <point x="34" y="516" type="line"/>
      <point x="34" y="563" type="line"/>
      <point x="284" y="563" type="line" smooth="yes"/>
      <point x="317" y="563"/>
      <point x="374" y="558"/>
      <point x="423" y="543"/>
      <point x="468" y="513"/>
      <point x="489" y="488" type="qcurve" smooth="yes"/>
      <point x="511" y="461"/>
      <point x="536" y="403"/>
      <point x="548" y="349"/>
      <point x="551" y="305"/>
      <point x="551" y="292" type="qcurve" smooth="yes"/>
      <point x="551" y="202"/>
      <point x="500" y="89"/>
      <point x="468" y="58" type="qcurve" smooth="yes"/>
      <point x="445" y="36"/>
      <point x="391" y="13"/>
      <point x="339" y="2"/>
      <point x="294" y="0"/>
      <point x="280" y="0" type="qcurve" smooth="yes"/>
      <point x="34" y="0" type="line"/>
      <point x="34" y="47" type="line"/>
      <point x="113" y="47" type="line"/>
      <point x="113" y="274" type="line"/>
      <point x="34" y="274" type="line"/>
    </contour>
    <contour>
      <point x="163" y="47" type="line"/>
      <point x="280" y="47" type="line" smooth="yes"/>
      <point x="293" y="47"/>
      <point x="329" y="48"/>
      <point x="370" y="57"/>
      <point x="412" y="76"/>
      <point x="430" y="94" type="qcurve" smooth="yes"/>
      <point x="457" y="121"/>
      <point x="497" y="220"/>
      <point x="497" y="289" type="qcurve"/>
      <point x="496" y="336"/>
      <point x="479" y="402"/>
      <point x="455" y="447"/>
      <point x="428" y="476"/>
      <point x="417" y="485" type="qcurve" smooth="yes"/>
      <point x="391" y="505"/>
      <point x="328" y="516"/>
      <point x="285" y="516" type="qcurve" smooth="yes"/>
      <point x="163" y="516" type="line"/>
      <point x="163" y="321" type="line"/>
      <point x="329" y="321" type="line"/>
      <point x="329" y="274" type="line"/>
      <point x="163" y="274" type="line"/>
    </contour>
  </outline>
</glyph>
<glyph name="icircumflex" format="2">
  <advance width="1381"/>
  <unicode hex="00EE"/>
  <outline>
    <contour>
      <point x="985.235" y="1213.13" type="line"/>
      <point x="911.573" y="1155.58" type="line"/>
      <point x="679.076" y="1307.51" type="line"/>
      <point x="469.598" y="1155.58" type="line"/>
      <point x="393.634" y="1210.83" type="line"/>
      <point x="596.206" y="1429.51" type="line"/>
      <point x="773.456" y="1429.51" type="line"/>
    </contour>
    <contour>
      <point x="752.738" y="108.192" type="line"/>
      <point x="1150.98" y="108.192" type="line"/>
      <point x="1150.98" y="0" type="line"/>
      <point x="232.497" y="0" type="line"/>
      <point x="232.497" y="108.192" type="line"/>
      <point x="637.641" y="108.192" type="line"/>
      <point x="637.641" y="881.648" type="line"/>
      <point x="299.254" y="881.648" type="line"/>
      <point x="299.254" y="989.839" type="line"/>
      <point x="752.738" y="989.839" type="line"/>
    </contour>
  </outline>
</glyph>
<glyph name="OE" format="2">
  <advance width="1381"/>
  <unicode hex="0152"/>
  <outline>
    <contour>
      <point x="1236.15" y="881.648" type="line"/>
      <point x="1134.86" y="881.648" type="line"/>
      <point x="1114.14" y="1187.81" type="line"/>
      <point x="810.287" y="1187.81" type="line"/>
      <point x="810.287" y="741.229" type="line"/>
      <point x="959.914" y="741.229" type="line"/>
      <point x="959.914" y="909.271" type="line"/>
      <point x="1065.8" y="909.271" type="line"/>
      <point x="1065.8" y="464.994" type="line"/>
      <point x="959.914" y="464.994" type="line"/>
      <point x="959.914" y="633.037" type="line"/>
      <point x="810.287" y="633.037" type="line"/>
      <point x="810.287" y="108.192" type="line"/>
      <point x="1146.37" y="108.192" type="line"/>
      <point x="1160.18" y="425.861" type="line"/>
      <point x="1266.07" y="425.861" type="line"/>
      <point x="1266.07" y="0" type="line"/>
      <point x="557.072" y="0" type="line" smooth="yes"/>
      <point x="421.257" y="0"/>
      <point x="225.591" y="124.305"/>
      <point x="98.9839" y="313.065"/>
      <point x="36.8312" y="536.355"/>
      <point x="36.8312" y="637.641" type="qcurve" smooth="yes"/>
      <point x="36.8312" y="775.758"/>
      <point x="124.305" y="1015.16"/>
      <point x="283.14" y="1194.71"/>
      <point x="506.429" y="1296"/>
      <point x="642.245" y="1296" type="qcurve" smooth="yes"/>
      <point x="1236.15" y="1296" type="line"/>
    </contour>
    <contour>
      <point x="635.339" y="1187.81" type="line" smooth="yes"/>
      <point x="520.241" y="1187.81"/>
      <point x="342.991" y="1100.33"/>
      <point x="223.289" y="950.706"/>
      <point x="161.137" y="752.738"/>
      <point x="161.137" y="644.547" type="qcurve" smooth="yes"/>
      <point x="161.137" y="559.374"/>
      <point x="209.478" y="370.614"/>
      <point x="313.065" y="211.78"/>
      <point x="476.504" y="108.192"/>
      <point x="593.904" y="108.192" type="qcurve" smooth="yes"/>
      <point x="695.19" y="108.192" type="line"/>
      <point x="695.19" y="1187.81" type="line"/>
    </contour>
  </outline>
</glyph>
<glyph name="oe" format="2">
  <advance width="600"/>
  <unicode hex="0153"/>
  <outline>
    <contour>
      <point x="320" y="205" type="line"/>
      <point x="319" y="153"/>
      <point x="342" y="86"/>
      <point x="378" y="48"/>
      <point x="418" y="33"/>
      <point x="435" y="33" type="qcurve" smooth="yes"/>
      <point x="467" y="33"/>
      <point x="530" y="49"/>
      <point x="550" y="55" type="qcurve"/>
      <point x="568" y="12" type="line"/>
      <point x="514" y="-6"/>
      <point x="451" y="-15"/>
      <point x="437" y="-15" type="qcurve" smooth="yes"/>
      <point x="428" y="-15"/>
      <point x="394" y="-10"/>
      <point x="355" y="8"/>
      <point x="315" y="45"/>
      <point x="300" y="78" type="qcurve"/>
      <point x="296" y="69"/>
      <point x="279" y="38"/>
      <point x="247" y="7"/>
      <point x="199" y="-15"/>
      <point x="163" y="-15" type="qcurve" smooth="yes"/>
      <point x="124" y="-15"/>
      <point x="72" y="12"/>
      <point x="38" y="53"/>
      <point x="20" y="103"/>
      <point x="11" y="150"/>
      <point x="10" y="188"/>
      <point x="10" y="197" type="qcurve" smooth="yes"/>
      <point x="10" y="245"/>
      <point x="28" y="336"/>
      <point x="67" y="408"/>
      <point x="130" y="451"/>
      <point x="176" y="451" type="qcurve" smooth="yes"/>
      <point x="206" y="451"/>
      <point x="250" y="430"/>
      <point x="280" y="403"/>
      <point x="297" y="375"/>
      <point x="300" y="368" type="qcurve"/>
      <point x="323" y="410"/>
      <point x="391" y="450"/>
      <point x="424" y="450" type="qcurve" smooth="yes"/>
      <point x="463" y="450"/>
      <point x="516" y="409"/>
      <point x="549" y="348"/>
      <point x="564" y="279"/>
      <point x="564" y="251" type="qcurve" smooth="yes"/>
      <point x="564" y="239"/>
      <point x="563" y="212"/>
      <point x="562" y="205" type="qcurve"/>
    </contour>
    <contour>
      <point x="270" y="211" type="qcurve" smooth="yes"/>
      <point x="270" y="274"/>
      <point x="254" y="350"/>
      <point x="227" y="391"/>
      <point x="194" y="403"/>
      <point x="176" y="403" type="qcurve" smooth="yes"/>
      <point x="145" y="403"/>
      <point x="103" y="366"/>
      <point x="76" y="307"/>
      <point x="64" y="235"/>
      <point x="64" y="200" type="qcurve" smooth="yes"/>
      <point x="64" y="172"/>
      <point x="73" y="113"/>
      <point x="95" y="64"/>
      <point x="133" y="33"/>
      <point x="162" y="33" type="qcurve" smooth="yes"/>
      <point x="189" y="33"/>
      <point x="226" y="54"/>
      <point x="250" y="88"/>
      <point x="263" y="129"/>
      <point x="269" y="169"/>
      <point x="270" y="202"/>
    </contour>
    <contour>
      <point x="514" y="249" type="line"/>
      <point x="514" y="277"/>
      <point x="504" y="332"/>
      <point x="482" y="376"/>
      <point x="448" y="402"/>
      <point x="424" y="402" type="qcurve" smooth="yes"/>
      <point x="416" y="402"/>
      <point x="383" y="392"/>
      <point x="348" y="361"/>
      <point x="321" y="300"/>
      <point x="320" y="249" type="qcurve"/>
    </contour>
  </outline>
</glyph>
<glyph name="Scaron" format="2">
  <advance width="600"/>
  <unicode hex="0160"/>
  <outline>
    <contour>
      <point x="507" y="574" type="line"/>
      <point x="502" y="551"/>
      <point x="498" y="521"/>
      <point x="498" y="502" type="qcurve" smooth="yes"/>
      <point x="498" y="485"/>
      <point x="502" y="426"/>
      <point x="507" y="383" type="qcurve"/>
      <point x="462" y="375" type="line"/>
      <point x="460" y="391"/>
      <point x="448" y="443"/>
      <point x="431" y="469" type="qcurve" smooth="yes"/>
      <point x="425" y="478"/>
      <point x="406" y="499"/>
      <point x="376" y="517"/>
      <point x="334" y="530"/>
      <point x="304" y="530" type="qcurve" smooth="yes"/>
      <point x="265" y="530"/>
      <point x="208" y="507"/>
      <point x="171" y="472"/>
      <point x="153" y="431"/>
      <point x="153" y="412" type="qcurve" smooth="yes"/>
      <point x="153" y="377"/>
      <point x="187" y="337"/>
      <point x="235" y="315"/>
      <point x="287" y="307"/>
      <point x="305" y="305" type="qcurve" smooth="yes"/>
      <point x="361" y="299"/>
      <point x="425" y="286"/>
      <point x="477" y="252"/>
      <point x="513" y="196"/>
      <point x="513" y="153" type="qcurve" smooth="yes"/>
      <point x="513" y="109"/>
      <point x="476" y="45"/>
      <point x="418" y="3"/>
      <point x="345" y="-17"/>
      <point x="308" y="-17" type="qcurve" smooth="yes"/>
      <point x="278" y="-17"/>
      <point x="233" y="-7"/>
      <point x="200" y="8"/>
      <point x="178" y="23"/>
      <point x="171" y="29" type="qcurve"/>
      <point x="170" y="30"/>
      <point x="165" y="33"/>
      <point x="163" y="33" type="qcurve" smooth="yes"/>
      <point x="160" y="33"/>
      <point x="155" y="27"/>
      <point x="153" y="25" type="qcurve"/>
      <point x="151" y="18"/>
      <point x="148" y="5"/>
      <point x="144" y="-20" type="qcurve"/>
      <point x="99" y="-20" type="line"/>
      <point x="104" y="4"/>
      <point x="108" y="48"/>
      <point x="108" y="59" type="qcurve" smooth="yes"/>
      <point x="108" y="69" type="line" smooth="yes"/>
      <point x="108" y="77"/>
      <point x="106" y="104"/>
      <point x="103" y="135"/>
      <point x="100" y="164"/>
      <point x="99" y="175" type="qcurve"/>
      <point x="144" y="175" type="line"/>
      <point x="148" y="156"/>
      <point x="161" y="108"/>
      <point x="178" y="86" type="qcurve" smooth="yes"/>
      <point x="192" y="68"/>
      <point x="247" y="33"/>
      <point x="301" y="33" type="qcurve" smooth="yes"/>
      <point x="347" y="33"/>
      <point x="408" y="55"/>
      <point x="444" y="89"/>
      <point x="459" y="130"/>
      <point x="459" y="149" type="qcurve" smooth="yes"/>
      <point x="459" y="182"/>
      <point x="430" y="221"/>
      <point x="388" y="242"/>
      <point x="339" y="250"/>
      <point x="320" y="252" type="qcurve" smooth="yes"/>
      <point x="291" y="255"/>
      <point x="214" y="267"/>
      <point x="146" y="299"/>
      <point x="99" y="358"/>
      <point x="99" y="408" type="qcurve" smooth="yes"/>
      <point x="99" y="442"/>
      <point x="129" y="504"/>
      <point x="182" y="552"/>
      <point x="255" y="580"/>
      <point x="298" y="580" type="qcurve" smooth="yes"/>
      <point x="325" y="580"/>
      <point x="367" y="570"/>
      <point x="397" y="557"/>
      <point x="417" y="543"/>
      <point x="422" y="539" type="qcurve" smooth="yes"/>
      <point x="434" y="530"/>
      <point x="442" y="525"/>
      <point x="445" y="525" type="qcurve" smooth="yes"/>
      <point x="452" y="525"/>
      <point x="455" y="537"/>
      <point x="460" y="561" type="qcurve" smooth="yes"/>
      <point x="462" y="571"/>
      <point x="462" y="574" type="qcurve"/>
    </contour>
    <contour>
      <point x="171" y="736" type="line"/>
      <point x="203" y="760" type="line"/>
      <point x="304" y="695" type="line"/>
      <point x="396" y="761" type="line"/>
      <point x="428" y="736" type="line"/>
      <point x="340" y="642" type="line"/>
      <point x="264" y="642" type="line"/>
    </contour>
  </outline>
</glyph>
<glyph name="tilde" format="2">
  <advance width="600"/>
  <unicode hex="02DC"/>
  <outline>
    <contour>
      <point x="460" y="606" type="line"/>
      <point x="458" y="604"/>
      <point x="458" y="599" type="qcurve"/>
      <point x="446" y="557"/>
      <point x="392" y="514"/>
      <point x="360" y="514" type="qcurve" smooth="yes"/>
      <point x="343" y="514"/>
      <point x="312" y="528"/>
      <point x="289" y="546" type="qcurve" smooth="yes"/>
      <point x="265" y="564"/>
      <point x="245" y="575"/>
      <point x="234" y="575" type="qcurve" smooth="yes"/>
      <point x="214" y="575"/>
      <point x="190" y="543"/>
      <point x="182" y="523" type="qcurve"/>
      <point x="182" y="522"/>
      <point x="181" y="520" type="qcurve"/>
      <point x="180" y="517" type="line"/>
      <point x="140" y="531" type="line"/>
      <point x="154" y="569"/>
      <point x="197" y="620"/>
      <point x="234" y="620" type="qcurve" smooth="yes"/>
      <point x="258" y="620"/>
      <point x="292" y="600"/>
      <point x="308" y="586" type="qcurve"/>
      <point x="327" y="572"/>
      <point x="352" y="559"/>
      <point x="363" y="559" type="qcurve" smooth="yes"/>
      <point x="376" y="559"/>
      <point x="395" y="572"/>
      <point x="409" y="591"/>
      <point x="417" y="611"/>
      <point x="420" y="619" type="qcurve"/>
    </contour>
  </outline>
</glyph>
<glyph name="uni1200" format="2">
  <advance width="594"/>
  <unicode hex="1200"/>
  <outline>
    <contour>
      <point x="338" y="659" type="line" smooth="yes"/>
      <point x="338" y="694"/>
      <point x="359" y="734"/>
      <point x="384" y="734" type="qcurve" smooth="yes"/>
      <point x="395" y="734"/>
      <point x="413" y="724"/>
      <point x="414" y="715" type="qcurve"/>
      <point x="418" y="717" type="line"/>
      <point x="416" y="728"/>
      <point x="399" y="743"/>
      <point x="379" y="743" type="qcurve" smooth="yes"/>
      <point x="350" y="743"/>
      <point x="322" y="699"/>
      <point x="322" y="661" type="qcurve" smooth="yes"/>
      <point x="322" y="118" type="line"/>
      <point x="256" y="96" type="line"/>
      <point x="221" y="120" type="line"/>
      <point x="221" y="574" type="line" smooth="yes"/>
      <point x="221" y="622"/>
      <point x="170" y="673"/>
      <point x="122" y="673" type="qcurve" smooth="yes"/>
      <point x="104" y="673"/>
      <point x="72" y="662"/>
      <point x="47" y="641"/>
      <point x="32" y="612"/>
      <point x="32" y="595" type="qcurve" smooth="yes"/>
      <point x="32" y="589"/>
      <point x="37" y="574"/>
      <point x="42" y="574" type="qcurve"/>
      <point x="42" y="576" type="line"/>
      <point x="39" y="577"/>
      <point x="38" y="585"/>
      <point x="38" y="586" type="qcurve"/>
      <point x="38" y="597"/>
      <point x="50" y="609" type="qcurve" smooth="yes"/>
      <point x="56" y="616"/>
      <point x="80" y="622"/>
      <point x="92" y="622" type="qcurve" smooth="yes"/>
      <point x="110" y="622"/>
      <point x="135" y="591"/>
      <point x="135" y="569" type="qcurve" smooth="yes"/>
      <point x="135" y="469" type="line"/>
      <point x="131" y="474"/>
      <point x="116" y="480"/>
      <point x="108" y="480" type="qcurve" smooth="yes"/>
      <point x="40" y="480"/>
      <point x="40" y="418" type="qcurve" smooth="yes"/>
      <point x="40" y="396"/>
      <point x="47" y="387" type="qcurve"/>
      <point x="49" y="389" type="line"/>
      <point x="47" y="391"/>
      <point x="47" y="395" type="qcurve" smooth="yes"/>
      <point x="47" y="403"/>
      <point x="53" y="409" type="qcurve"/>
      <point x="57" y="415"/>
      <point x="76" y="423"/>
      <point x="86" y="423" type="qcurve" smooth="yes"/>
      <point x="106" y="423"/>
      <point x="135" y="406"/>
      <point x="135" y="394" type="qcurve" smooth="yes"/>
      <point x="135" y="263" type="line"/>
      <point x="127" y="271"/>
      <point x="99" y="276"/>
      <point x="93" y="276" type="qcurve" smooth="yes"/>
      <point x="67" y="276"/>
      <point x="30" y="242"/>
      <point x="30" y="217" type="qcurve" smooth="yes"/>
      <point x="30" y="204"/>
      <point x="35" y="178"/>
      <point x="40" y="173" type="qcurve"/>
      <point x="42" y="175" type="line"/>
      <point x="42" y="192"/>
      <point x="68" y="214"/>
      <point x="86" y="214" type="qcurve" smooth="yes"/>
      <point x="106" y="214"/>
      <point x="135" y="188"/>
      <point x="135" y="169" type="qcurve" smooth="yes"/>
      <point x="135" y="105" type="line"/>
      <point x="211" y="63" type="line"/>
      <point x="322" y="103" type="line"/>
      <point x="322" y="12" type="line"/>
      <point x="304" y="18"/>
      <point x="269" y="38"/>
      <point x="254" y="52" type="qcurve"/>
      <point x="237" y="7"/>
      <point x="187" y="-42"/>
      <point x="142" y="-42" type="qcurve" smooth="yes"/>
      <point x="134" y="-42"/>
      <point x="112" y="-34"/>
      <point x="104" y="-28" type="qcurve"/>
      <point x="99" y="-32" type="line"/>
      <point x="99" y="-43"/>
      <point x="126" y="-68"/>
      <point x="146" y="-76" type="qcurve" smooth="yes"/>
      <point x="153" y="-79"/>
      <point x="184" y="-83"/>
      <point x="199" y="-83" type="qcurve" smooth="yes"/>
      <point x="217" y="-83"/>
      <point x="260" y="-71"/>
      <point x="300" y="-50"/>
      <point x="330" y="-24"/>
      <point x="336" y="-9" type="qcurve"/>
      <point x="347" y="-11"/>
      <point x="396" y="-19"/>
      <point x="419" y="-19" type="qcurve"/>
      <point x="437" y="-15"/>
      <point x="465" y="-6"/>
      <point x="490" y="10"/>
      <point x="514" y="35"/>
      <point x="528" y="53" type="qcurve"/>
      <point x="523" y="57" type="line"/>
      <point x="500" y="31"/>
      <point x="449" y="-3"/>
      <point x="419" y="-5" type="qcurve"/>
      <point x="401" y="-5"/>
      <point x="351" y="2"/>
      <point x="338" y="7" type="qcurve"/>
      <point x="338" y="110" type="line"/>
      <point x="397" y="135" type="line"/>
      <point x="397" y="125" type="line" smooth="yes"/>
      <point x="397" y="113"/>
      <point x="409" y="90"/>
      <point x="428" y="73"/>
      <point x="452" y="62"/>
      <point x="465" y="62" type="qcurve" smooth="yes"/>
      <point x="487" y="62"/>
      <point x="523" y="79"/>
      <point x="549" y="106"/>
      <point x="564" y="139"/>
      <point x="564" y="154" type="qcurve" smooth="yes"/>
      <point x="564" y="167"/>
      <point x="555" y="193"/>
      <point x="549" y="199" type="qcurve"/>
      <point x="541" y="199" type="line"/>
      <point x="546" y="192"/>
      <point x="552" y="172"/>
      <point x="552" y="167" type="qcurve" smooth="yes"/>
      <point x="552" y="160"/>
      <point x="544" y="143"/>
      <point x="533" y="129"/>
      <point x="519" y="120"/>
      <point x="513" y="120" type="qcurve" smooth="yes"/>
      <point x="497" y="120"/>
      <point x="483" y="149"/>
      <point x="483" y="164" type="qcurve" smooth="yes"/>
      <point x="483" y="520" type="line"/>
      <point x="514" y="521"/>
      <point x="558" y="562"/>
      <point x="558" y="590" type="qcurve" smooth="yes"/>
      <point x="558" y="610"/>
      <point x="536" y="631"/>
      <point x="521" y="636" type="qcurve"/>
      <point x="516" y="629" type="line"/>
      <point x="527" y="627"/>
      <point x="543" y="611"/>
      <point x="543" y="602" type="qcurve" smooth="yes"/>
      <point x="543" y="590"/>
      <point x="521" y="573"/>
      <point x="506" y="573" type="qcurve"/>
      <point x="505" y="573" type="line"/>
      <point x="478" y="573"/>
      <point x="431" y="628"/>
      <point x="423" y="666" type="qcurve"/>
      <point x="407" y="666" type="line"/>
      <point x="405" y="655"/>
      <point x="392" y="630"/>
      <point x="372" y="608"/>
      <point x="349" y="589"/>
      <point x="338" y="583" type="qcurve"/>
    </contour>
    <contour>
      <point x="338" y="125" type="line"/>
      <point x="338" y="571" type="line"/>
      <point x="347" y="571"/>
      <point x="367" y="565"/>
      <point x="385" y="556"/>
      <point x="397" y="543"/>
      <point x="397" y="537" type="qcurve" smooth="yes"/>
      <point x="397" y="152" type="line"/>
    </contour>
    <contour>
      <point x="259" y="27" type="qcurve"/>
      <point x="265" y="16"/>
      <point x="301" y="1"/>
      <point x="321" y="-5" type="qcurve"/>
      <point x="319" y="-11"/>
      <point x="297" y="-33"/>
      <point x="261" y="-55"/>
      <point x="214" y="-71"/>
      <point x="187" y="-71" type="qcurve" smooth="yes"/>
      <point x="167" y="-71"/>
      <point x="127" y="-58"/>
      <point x="108" y="-40" type="qcurve"/>
      <point x="110" y="-38" type="line"/>
      <point x="118" y="-44"/>
      <point x="141" y="-53"/>
      <point x="149" y="-53" type="qcurve" smooth="yes"/>
      <point x="194" y="-53"/>
      <point x="242" y="-12"/>
    </contour>
  </outline>
</glyph>
<glyph name="uni1201" format="2">
  <advance width="1380"/>
  <unicode hex="1201"/>
  <outline>
    <contour>
      <point x="1080" y="843.862" type="line"/>
      <point x="884.133" y="713.896" type="line"/>
      <point x="884.133" y="951.861" type="line"/>
      <point x="940.878" y="953.692"/>
      <point x="1021.42" y="1028.74"/>
      <point x="1021.42" y="1080" type="qcurve" smooth="yes"/>
      <point x="1021.42" y="1116.61"/>
      <point x="981.149" y="1155.05"/>
      <point x="953.692" y="1164.2" type="qcurve"/>
      <point x="944.539" y="1151.39" type="line"/>
      <point x="964.675" y="1147.73"/>
      <point x="993.963" y="1118.44"/>
      <point x="993.963" y="1101.96" type="qcurve" smooth="yes"/>
      <point x="993.963" y="1080"/>
      <point x="953.692" y="1048.88"/>
      <point x="926.234" y="1048.88" type="qcurve"/>
      <point x="924.404" y="1048.88" type="line"/>
      <point x="874.98" y="1048.88"/>
      <point x="788.947" y="1149.56"/>
      <point x="774.303" y="1219.11" type="qcurve"/>
      <point x="745.014" y="1219.11" type="line"/>
      <point x="741.353" y="1198.98"/>
      <point x="717.557" y="1153.22"/>
      <point x="680.947" y="1112.95"/>
      <point x="638.845" y="1078.17"/>
      <point x="618.71" y="1067.18" type="qcurve"/>
      <point x="618.71" y="1206.3" type="line" smooth="yes"/>
      <point x="618.71" y="1270.37"/>
      <point x="657.15" y="1343.59"/>
      <point x="702.913" y="1343.59" type="qcurve" smooth="yes"/>
      <point x="723.048" y="1343.59"/>
      <point x="755.997" y="1325.28"/>
      <point x="757.828" y="1308.81" type="qcurve"/>
      <point x="765.15" y="1312.47" type="line"/>
      <point x="761.489" y="1332.61"/>
      <point x="730.37" y="1360.06"/>
      <point x="693.76" y="1360.06" type="qcurve" smooth="yes"/>
      <point x="640.676" y="1360.06"/>
      <point x="589.422" y="1279.52"/>
      <point x="589.422" y="1209.96" type="qcurve" smooth="yes"/>
      <point x="589.422" y="215.999" type="line"/>
      <point x="468.609" y="175.728" type="line"/>
      <point x="404.541" y="219.66" type="line"/>
      <point x="404.541" y="1050.71" type="line" smooth="yes"/>
      <point x="404.541" y="1138.57"/>
      <point x="311.185" y="1231.93"/>
      <point x="223.321" y="1231.93" type="qcurve" smooth="yes"/>
      <point x="190.372" y="1231.93"/>
      <point x="131.796" y="1211.79"/>
      <point x="86.0336" y="1173.35"/>
      <point x="58.5761" y="1120.27"/>
      <point x="58.5761" y="1089.15" type="qcurve" smooth="yes"/>
      <point x="58.5761" y="1078.17"/>
      <point x="67.7286" y="1050.71"/>
      <point x="76.8811" y="1050.71" type="qcurve"/>
      <point x="76.8811" y="1054.37" type="line"/>
      <point x="71.3896" y="1056.2"/>
      <point x="69.5591" y="1070.84"/>
      <point x="69.5591" y="1072.67" type="qcurve"/>
      <point x="69.5591" y="1092.81"/>
      <point x="91.5251" y="1114.78" type="qcurve"/>
      <point x="102.508" y="1127.59"/>
      <point x="146.44" y="1138.57"/>
      <point x="168.406" y="1138.57" type="qcurve" smooth="yes"/>
      <point x="201.355" y="1138.57"/>
      <point x="247.118" y="1081.83"/>
      <point x="247.118" y="1041.56" type="qcurve" smooth="yes"/>
      <point x="247.118" y="858.506" type="line"/>
      <point x="239.796" y="867.658"/>
      <point x="212.338" y="878.641"/>
      <point x="197.694" y="878.641" type="qcurve" smooth="yes"/>
      <point x="73.2201" y="878.641"/>
      <point x="73.2201" y="765.15" type="qcurve" smooth="yes"/>
      <point x="73.2201" y="724.879"/>
      <point x="86.0336" y="708.404" type="qcurve"/>
      <point x="89.6946" y="712.065" type="line"/>
      <point x="86.0336" y="715.726"/>
      <point x="86.0336" y="723.048" type="qcurve" smooth="yes"/>
      <point x="86.0336" y="737.692"/>
      <point x="97.0166" y="748.675" type="qcurve"/>
      <point x="104.339" y="759.658"/>
      <point x="139.118" y="774.303"/>
      <point x="157.423" y="774.303" type="qcurve" smooth="yes"/>
      <point x="194.033" y="774.303"/>
      <point x="247.118" y="743.184"/>
      <point x="247.118" y="721.218" type="qcurve" smooth="yes"/>
      <point x="247.118" y="481.422" type="line"/>
      <point x="232.474" y="496.066"/>
      <point x="181.22" y="505.219"/>
      <point x="170.237" y="505.219" type="qcurve" smooth="yes"/>
      <point x="122.644" y="505.219"/>
      <point x="54.9151" y="442.982"/>
      <point x="54.9151" y="397.219" type="qcurve" smooth="yes"/>
      <point x="54.9151" y="373.422"/>
      <point x="64.0676" y="325.829"/>
      <point x="73.2201" y="316.677" type="qcurve"/>
      <point x="76.8811" y="320.338" type="line"/>
      <point x="76.8811" y="351.456"/>
      <point x="124.474" y="391.728"/>
      <point x="157.423" y="391.728" type="qcurve" smooth="yes"/>
      <point x="194.033" y="391.728"/>
      <point x="247.118" y="344.134"/>
      <point x="247.118" y="309.355" type="qcurve" smooth="yes"/>
      <point x="247.118" y="192.203" type="line"/>
      <point x="386.236" y="115.322" type="line"/>
      <point x="589.422" y="188.542" type="line"/>
      <point x="589.422" y="21.966" type="line"/>
      <point x="556.473" y="32.949"/>
      <point x="492.405" y="69.5591"/>
      <point x="464.948" y="95.1861" type="qcurve"/>
      <point x="433.829" y="12.8135"/>
      <point x="342.304" y="-76.8811"/>
      <point x="259.931" y="-76.8811" type="qcurve" smooth="yes"/>
      <point x="245.287" y="-76.8811"/>
      <point x="205.016" y="-62.2371"/>
      <point x="190.372" y="-51.2541" type="qcurve"/>
      <point x="181.22" y="-58.5761" type="line"/>
      <point x="181.22" y="-78.7116"/>
      <point x="230.643" y="-124.474"/>
      <point x="267.253" y="-139.118" type="qcurve" smooth="yes"/>
      <point x="280.067" y="-144.61"/>
      <point x="336.812" y="-151.932"/>
      <point x="364.27" y="-151.932" type="qcurve" smooth="yes"/>
      <point x="397.219" y="-151.932"/>
      <point x="475.931" y="-129.966"/>
      <point x="549.151" y="-91.5251"/>
      <point x="604.066" y="-43.9321"/>
      <point x="615.049" y="-16.4745" type="qcurve"/>
      <point x="635.184" y="-20.1355"/>
      <point x="724.879" y="-34.7795"/>
      <point x="766.981" y="-34.7795" type="qcurve"/>
      <point x="799.93" y="-27.4575"/>
      <point x="851.184" y="-10.983"/>
      <point x="896.946" y="18.305"/>
      <point x="940.878" y="64.0676"/>
      <point x="966.505" y="97.0166" type="qcurve"/>
      <point x="957.353" y="104.339" type="line"/>
      <point x="915.251" y="56.7456"/>
      <point x="821.896" y="-5.49151"/>
      <point x="766.981" y="-9.15251" type="qcurve"/>
      <point x="734.031" y="-9.15251"/>
      <point x="642.506" y="3.661"/>
      <point x="618.71" y="12.8135" type="qcurve"/>
      <point x="618.71" y="201.355" type="line"/>
      <point x="726.709" y="247.118" type="line"/>
      <point x="726.709" y="228.813" type="line" smooth="yes"/>
      <point x="726.709" y="206.847"/>
      <point x="748.675" y="164.745"/>
      <point x="783.455" y="133.627"/>
      <point x="827.387" y="113.491"/>
      <point x="851.184" y="113.491" type="qcurve" smooth="yes"/>
      <point x="891.455" y="113.491"/>
      <point x="957.353" y="144.61"/>
      <point x="1004.95" y="194.033"/>
      <point x="1032.4" y="254.44"/>
      <point x="1032.4" y="281.897" type="qcurve" smooth="yes"/>
      <point x="1032.4" y="305.694"/>
      <point x="1015.93" y="353.287"/>
      <point x="1004.95" y="364.27" type="qcurve"/>
      <point x="990.302" y="364.27" type="line"/>
      <point x="999.454" y="351.456"/>
      <point x="1010.44" y="314.846"/>
      <point x="1010.44" y="305.694" type="qcurve" smooth="yes"/>
      <point x="1010.44" y="292.88"/>
      <point x="995.793" y="261.762"/>
      <point x="975.658" y="236.135"/>
      <point x="950.031" y="219.66"/>
      <point x="939.048" y="219.66" type="qcurve" smooth="yes"/>
      <point x="909.76" y="219.66"/>
      <point x="884.133" y="272.745"/>
      <point x="884.133" y="300.202" type="qcurve" smooth="yes"/>
      <point x="884.133" y="673.625" type="line"/>
      <point x="988.471" y="735.862" type="line"/>
      <point x="1069.01" y="675.455" type="line"/>
      <point x="1059.86" y="662.642"/>
      <point x="1056.2" y="607.727"/>
      <point x="1056.2" y="598.574" type="qcurve" smooth="yes"/>
      <point x="1056.2" y="582.1"/>
      <point x="1074.5" y="538.168"/>
      <point x="1107.45" y="499.727"/>
      <point x="1151.39" y="474.1"/>
      <point x="1177.01" y="474.1" type="qcurve" smooth="yes"/>
      <point x="1242.91" y="474.1"/>
      <point x="1325.28" y="505.219"/>
      <point x="1325.28" y="563.795" type="qcurve" smooth="yes"/>
      <point x="1325.28" y="572.947"/>
      <point x="1308.81" y="591.252"/>
      <point x="1290.5" y="607.727"/>
      <point x="1272.2" y="624.201"/>
      <point x="1272.2" y="633.354" type="qcurve" smooth="yes"/>
      <point x="1272.2" y="647.998"/>
      <point x="1296" y="649.828"/>
      <point x="1301.49" y="657.15" type="qcurve"/>
      <point x="1296" y="666.303" type="line"/>
      <point x="1275.86" y="657.15"/>
      <point x="1248.4" y="647.998"/>
      <point x="1248.4" y="627.862" type="qcurve" smooth="yes"/>
      <point x="1248.4" y="620.54"/>
      <point x="1261.22" y="607.727"/>
      <point x="1275.86" y="593.083"/>
      <point x="1288.67" y="574.778"/>
      <point x="1288.67" y="563.795" type="qcurve" smooth="yes"/>
      <point x="1288.67" y="543.659"/>
      <point x="1268.54" y="516.202"/>
      <point x="1248.4" y="516.202" type="qcurve" smooth="yes"/>
      <point x="1230.1" y="516.202"/>
      <point x="1200.81" y="578.439"/>
      <point x="1200.81" y="613.218" type="qcurve" smooth="yes"/>
      <point x="1200.81" y="633.354"/>
      <point x="1237.42" y="695.591"/>
      <point x="1270.37" y="721.218" type="qcurve"/>
      <point x="1270.37" y="745.014" type="line"/>
      <point x="1253.89" y="745.014"/>
      <point x="1198.98" y="768.811"/>
      <point x="1145.89" y="799.93"/>
      <point x="1105.62" y="832.879"/>
      <point x="1105.62" y="843.862" type="qcurve"/>
    </contour>
    <contour>
      <point x="618.71" y="228.813" type="line"/>
      <point x="618.71" y="1045.22" type="line"/>
      <point x="635.184" y="1045.22"/>
      <point x="671.794" y="1034.23"/>
      <point x="704.743" y="1017.76"/>
      <point x="726.709" y="993.963"/>
      <point x="726.709" y="982.98" type="qcurve" smooth="yes"/>
      <point x="726.709" y="278.236" type="line"/>
    </contour>
    <contour>
      <point x="474.1" y="49.4236" type="qcurve"/>
      <point x="485.083" y="29.288"/>
      <point x="550.981" y="1.8305"/>
      <point x="587.591" y="-9.15251" type="qcurve"/>
      <point x="583.93" y="-20.1355"/>
      <point x="543.659" y="-60.4066"/>
      <point x="477.761" y="-100.678"/>
      <point x="391.728" y="-129.966"/>
      <point x="342.304" y="-129.966" type="qcurve" smooth="yes"/>
      <point x="305.694" y="-129.966"/>
      <point x="232.474" y="-106.169"/>
      <point x="197.694" y="-73.2201" type="qcurve"/>
      <point x="201.355" y="-69.5591" type="line"/>
      <point x="215.999" y="-80.5421"/>
      <point x="258.101" y="-97.0166"/>
      <point x="272.745" y="-97.0166" type="qcurve" smooth="yes"/>
      <point x="355.117" y="-97.0166"/>
      <point x="442.982" y="-21.966"/>
    </contour>
  </outline>
</glyph>
<glyph name="uni1202" format="2">
  <advance width="1239"/>
  <unicode hex="1202"/>
  <outline>
    <contour>
      <point x="594.913" y="1241.08" type="line" smooth="yes"/>
      <point x="594.913" y="1312.47"/>
      <point x="633.354" y="1394.84"/>
      <point x="679.116" y="1394.84" type="qcurve" smooth="yes"/>
      <point x="699.252" y="1394.84"/>
      <point x="732.201" y="1376.54"/>
      <point x="734.031" y="1360.06" type="qcurve"/>
      <point x="741.353" y="1363.72" type="line"/>
      <point x="737.692" y="1383.86"/>
      <point x="706.574" y="1411.32"/>
      <point x="669.964" y="1411.32" type="qcurve" smooth="yes"/>
      <point x="616.879" y="1411.32"/>
      <point x="565.625" y="1330.78"/>
      <point x="565.625" y="1261.22" type="qcurve" smooth="yes"/>
      <point x="565.625" y="591.252" type="line"/>
      <point x="486.914" y="552.812" type="line"/>
      <point x="406.372" y="604.066" type="line"/>
      <point x="406.372" y="1118.44" type="line" smooth="yes"/>
      <point x="406.372" y="1204.47"/>
      <point x="311.185" y="1297.83"/>
      <point x="225.152" y="1297.83" type="qcurve" smooth="yes"/>
      <point x="192.203" y="1297.83"/>
      <point x="133.627" y="1277.69"/>
      <point x="87.8641" y="1239.25"/>
      <point x="60.4066" y="1186.17"/>
      <point x="60.4066" y="1155.05" type="qcurve" smooth="yes"/>
      <point x="60.4066" y="1144.06"/>
      <point x="69.5591" y="1116.61"/>
      <point x="78.7116" y="1116.61" type="qcurve"/>
      <point x="78.7116" y="1120.27" type="line"/>
      <point x="73.2201" y="1122.1"/>
      <point x="71.3896" y="1136.74"/>
      <point x="71.3896" y="1138.57" type="qcurve"/>
      <point x="71.3896" y="1173.35"/>
      <point x="137.288" y="1204.47"/>
      <point x="170.237" y="1204.47" type="qcurve" smooth="yes"/>
      <point x="201.355" y="1204.47"/>
      <point x="247.118" y="1155.05"/>
      <point x="247.118" y="1116.61" type="qcurve" smooth="yes"/>
      <point x="247.118" y="862.167" type="line"/>
      <point x="232.474" y="876.811"/>
      <point x="181.22" y="885.963"/>
      <point x="170.237" y="885.963" type="qcurve" smooth="yes"/>
      <point x="122.644" y="885.963"/>
      <point x="54.9151" y="823.726"/>
      <point x="54.9151" y="777.964" type="qcurve" smooth="yes"/>
      <point x="54.9151" y="741.353"/>
      <point x="67.7286" y="697.421"/>
      <point x="76.8811" y="697.421" type="qcurve"/>
      <point x="80.5421" y="701.082" type="line"/>
      <point x="73.2201" y="701.082"/>
      <point x="73.2201" y="723.048" type="qcurve" smooth="yes"/>
      <point x="73.2201" y="743.184"/>
      <point x="131.796" y="772.472"/>
      <point x="157.423" y="772.472" type="qcurve" smooth="yes"/>
      <point x="194.033" y="772.472"/>
      <point x="247.118" y="724.879"/>
      <point x="247.118" y="690.099" type="qcurve" smooth="yes"/>
      <point x="247.118" y="572.947" type="line"/>
      <point x="391.728" y="479.592" type="line"/>
      <point x="421.016" y="479.592" type="line"/>
      <point x="567.456" y="558.303" type="line"/>
      <point x="567.456" y="237.965" type="line" smooth="yes"/>
      <point x="567.456" y="205.016"/>
      <point x="563.795" y="128.135"/>
      <point x="549.151" y="62.2371"/>
      <point x="523.524" y="16.4745"/>
      <point x="501.558" y="16.4745" type="qcurve" smooth="yes"/>
      <point x="485.083" y="16.4745"/>
      <point x="461.287" y="51.2541"/>
      <point x="461.287" y="75.0506" type="qcurve" smooth="yes"/>
      <point x="461.287" y="93.3556"/>
      <point x="475.931" y="133.627"/>
      <point x="494.236" y="173.898"/>
      <point x="508.88" y="208.677"/>
      <point x="508.88" y="219.66" type="qcurve" smooth="yes"/>
      <point x="508.88" y="237.965"/>
      <point x="483.253" y="265.423"/>
      <point x="464.948" y="265.423" type="qcurve" smooth="yes"/>
      <point x="455.795" y="265.423"/>
      <point x="442.982" y="254.44"/>
      <point x="437.49" y="250.779" type="qcurve"/>
      <point x="441.151" y="241.626" type="line"/>
      <point x="453.965" y="250.779"/>
      <point x="463.117" y="250.779" type="qcurve" smooth="yes"/>
      <point x="486.914" y="250.779"/>
      <point x="486.914" y="214.169" type="qcurve" smooth="yes"/>
      <point x="486.914" y="206.847"/>
      <point x="470.439" y="173.898"/>
      <point x="452.134" y="135.457"/>
      <point x="435.66" y="93.3556"/>
      <point x="435.66" y="75.0506" type="qcurve" smooth="yes"/>
      <point x="435.66" y="43.9321"/>
      <point x="472.27" y="0"/>
      <point x="497.897" y="0" type="qcurve" smooth="yes"/>
      <point x="547.32" y="0"/>
      <point x="594.913" y="118.983"/>
      <point x="594.913" y="230.643" type="qcurve" smooth="yes"/>
      <point x="594.913" y="572.947" type="line"/>
      <point x="704.743" y="633.354" type="line"/>
      <point x="704.743" y="131.796" type="line" smooth="yes"/>
      <point x="704.743" y="115.322"/>
      <point x="695.591" y="109.83"/>
      <point x="686.438" y="109.83" type="qcurve"/>
      <point x="686.438" y="91.5251" type="line"/>
      <point x="701.082" y="91.5251"/>
      <point x="745.014" y="67.7286"/>
      <point x="785.286" y="34.7795"/>
      <point x="814.574" y="5.49151"/>
      <point x="814.574" y="0" type="qcurve"/>
      <point x="842.031" y="0" type="line"/>
      <point x="891.455" y="38.4406"/>
      <point x="988.471" y="106.169"/>
      <point x="1069.01" y="157.423"/>
      <point x="1129.42" y="186.711"/>
      <point x="1144.06" y="186.711" type="qcurve"/>
      <point x="1144.06" y="210.508" type="line"/>
      <point x="1127.59" y="223.321"/>
      <point x="1096.47" y="261.762"/>
      <point x="1074.5" y="302.033"/>
      <point x="1059.86" y="338.643"/>
      <point x="1059.86" y="349.626" type="qcurve" smooth="yes"/>
      <point x="1059.86" y="384.406"/>
      <point x="1089.15" y="446.643"/>
      <point x="1107.45" y="446.643" type="qcurve" smooth="yes"/>
      <point x="1127.59" y="446.643"/>
      <point x="1147.73" y="419.185"/>
      <point x="1147.73" y="399.05" type="qcurve" smooth="yes"/>
      <point x="1147.73" y="388.067"/>
      <point x="1134.91" y="369.761"/>
      <point x="1120.27" y="355.117"/>
      <point x="1107.45" y="342.304"/>
      <point x="1107.45" y="334.982" type="qcurve" smooth="yes"/>
      <point x="1107.45" y="314.846"/>
      <point x="1134.91" y="305.694"/>
      <point x="1155.05" y="296.541" type="qcurve"/>
      <point x="1160.54" y="305.694" type="line"/>
      <point x="1155.05" y="313.016"/>
      <point x="1131.25" y="314.846"/>
      <point x="1131.25" y="329.49" type="qcurve" smooth="yes"/>
      <point x="1131.25" y="338.643"/>
      <point x="1149.56" y="355.117"/>
      <point x="1167.86" y="371.592"/>
      <point x="1184.34" y="389.897"/>
      <point x="1184.34" y="399.05" type="qcurve" smooth="yes"/>
      <point x="1184.34" y="428.338"/>
      <point x="1158.71" y="457.626"/>
      <point x="1133.08" y="475.931"/>
      <point x="1089.15" y="488.744"/>
      <point x="1036.06" y="488.744" type="qcurve" smooth="yes"/>
      <point x="1010.44" y="488.744"/>
      <point x="966.505" y="463.117"/>
      <point x="933.556" y="424.677"/>
      <point x="915.251" y="380.744"/>
      <point x="915.251" y="364.27" type="qcurve" smooth="yes"/>
      <point x="915.251" y="334.982"/>
      <point x="933.556" y="265.423"/>
      <point x="961.014" y="203.186"/>
      <point x="993.963" y="155.593"/>
      <point x="1010.44" y="148.271" type="qcurve"/>
      <point x="928.065" y="97.0166" type="line"/>
      <point x="900.607" y="97.0166"/>
      <point x="862.167" y="126.305"/>
      <point x="862.167" y="146.44" type="qcurve" smooth="yes"/>
      <point x="862.167" y="1015.93" type="line"/>
      <point x="918.912" y="1017.76"/>
      <point x="999.454" y="1092.81"/>
      <point x="999.454" y="1144.06" type="qcurve" smooth="yes"/>
      <point x="999.454" y="1180.67"/>
      <point x="959.183" y="1219.11"/>
      <point x="931.726" y="1228.27" type="qcurve"/>
      <point x="922.573" y="1215.45" type="line"/>
      <point x="942.709" y="1211.79"/>
      <point x="971.997" y="1182.5"/>
      <point x="971.997" y="1166.03" type="qcurve" smooth="yes"/>
      <point x="971.997" y="1145.89"/>
      <point x="924.404" y="1112.95"/>
      <point x="904.268" y="1112.95" type="qcurve" smooth="yes"/>
      <point x="871.319" y="1112.95"/>
      <point x="816.404" y="1147.73"/>
      <point x="776.133" y="1200.81"/>
      <point x="752.336" y="1259.39"/>
      <point x="752.336" y="1283.18" type="qcurve"/>
      <point x="723.048" y="1283.18" type="line"/>
      <point x="723.048" y="1263.05"/>
      <point x="697.421" y="1219.11"/>
      <point x="658.981" y="1178.84"/>
      <point x="615.049" y="1144.06"/>
      <point x="594.913" y="1133.08" type="qcurve"/>
    </contour>
    <contour>
      <point x="594.913" y="605.896" type="line"/>
      <point x="594.913" y="1109.28" type="line"/>
      <point x="611.388" y="1107.45"/>
      <point x="649.828" y="1096.47"/>
      <point x="682.777" y="1080"/>
      <point x="704.743" y="1058.03"/>
      <point x="704.743" y="1047.05" type="qcurve" smooth="yes"/>
      <point x="704.743" y="666.303" type="line"/>
    </contour>
  </outline>
</glyph>
<glyph name="uni1203" format="2">
  <advance width="582"/>
  <unicode hex="1203"/>
  <outline>
    <contour>
      <point x="325" y="678" type="line" smooth="yes"/>
      <point x="325" y="717"/>
      <point x="346" y="762"/>
      <point x="371" y="762" type="qcurve" smooth="yes"/>
      <point x="382" y="762"/>
      <point x="400" y="752"/>
      <point x="401" y="743" type="qcurve"/>
      <point x="405" y="745" type="line"/>
      <point x="403" y="756"/>
      <point x="386" y="771"/>
      <point x="366" y="771" type="qcurve" smooth="yes"/>
      <point x="337" y="771"/>
      <point x="309" y="727"/>
      <point x="309" y="689" type="qcurve" smooth="yes"/>
      <point x="309" y="323" type="line"/>
      <point x="266" y="302" type="line"/>
      <point x="222" y="330" type="line"/>
      <point x="222" y="610" type="line" smooth="yes"/>
      <point x="222" y="657"/>
      <point x="170" y="708"/>
      <point x="123" y="708" type="qcurve" smooth="yes"/>
      <point x="105" y="708"/>
      <point x="73" y="697"/>
      <point x="48" y="676"/>
      <point x="33" y="647"/>
      <point x="33" y="630" type="qcurve" smooth="yes"/>
      <point x="33" y="624"/>
      <point x="38" y="609"/>
      <point x="43" y="609" type="qcurve"/>
      <point x="43" y="611" type="line"/>
      <point x="40" y="612"/>
      <point x="39" y="620"/>
      <point x="39" y="621" type="qcurve"/>
      <point x="39" y="640"/>
      <point x="75" y="657"/>
      <point x="93" y="657" type="qcurve" smooth="yes"/>
      <point x="110" y="657"/>
      <point x="135" y="630"/>
      <point x="135" y="609" type="qcurve" smooth="yes"/>
      <point x="135" y="471" type="line"/>
      <point x="127" y="479"/>
      <point x="99" y="484"/>
      <point x="93" y="484" type="qcurve" smooth="yes"/>
      <point x="67" y="484"/>
      <point x="30" y="450"/>
      <point x="30" y="425" type="qcurve" smooth="yes"/>
      <point x="30" y="405"/>
      <point x="37" y="381"/>
      <point x="42" y="381" type="qcurve"/>
      <point x="44" y="383" type="line"/>
      <point x="40" y="383"/>
      <point x="40" y="395" type="qcurve" smooth="yes"/>
      <point x="40" y="406"/>
      <point x="72" y="422"/>
      <point x="86" y="422" type="qcurve" smooth="yes"/>
      <point x="106" y="422"/>
      <point x="135" y="396"/>
      <point x="135" y="377" type="qcurve" smooth="yes"/>
      <point x="135" y="313" type="line"/>
      <point x="214" y="262" type="line"/>
      <point x="230" y="262" type="line"/>
      <point x="310" y="305" type="line"/>
      <point x="310" y="130" type="line" smooth="yes"/>
      <point x="310" y="112"/>
      <point x="308" y="70"/>
      <point x="300" y="34"/>
      <point x="286" y="9"/>
      <point x="274" y="9" type="qcurve" smooth="yes"/>
      <point x="265" y="9"/>
      <point x="252" y="28"/>
      <point x="252" y="41" type="qcurve" smooth="yes"/>
      <point x="252" y="51"/>
      <point x="260" y="73"/>
      <point x="270" y="95"/>
      <point x="278" y="114"/>
      <point x="278" y="120" type="qcurve" smooth="yes"/>
      <point x="278" y="130"/>
      <point x="264" y="145"/>
      <point x="254" y="145" type="qcurve" smooth="yes"/>
      <point x="249" y="145"/>
      <point x="242" y="139"/>
      <point x="239" y="137" type="qcurve"/>
      <point x="241" y="132" type="line"/>
      <point x="248" y="137"/>
      <point x="253" y="137" type="qcurve" smooth="yes"/>
      <point x="266" y="137"/>
      <point x="266" y="117" type="qcurve" smooth="yes"/>
      <point x="266" y="113"/>
      <point x="257" y="95"/>
      <point x="247" y="74"/>
      <point x="238" y="51"/>
      <point x="238" y="41" type="qcurve" smooth="yes"/>
      <point x="238" y="24"/>
      <point x="258" y="0"/>
      <point x="272" y="0" type="qcurve" smooth="yes"/>
      <point x="299" y="0"/>
      <point x="325" y="65"/>
      <point x="325" y="126" type="qcurve" smooth="yes"/>
      <point x="325" y="313" type="line"/>
      <point x="385" y="346" type="line"/>
      <point x="385" y="65" type="line" smooth="yes"/>
      <point x="385" y="53"/>
      <point x="397" y="30"/>
      <point x="416" y="13"/>
      <point x="440" y="2"/>
      <point x="453" y="2" type="qcurve" smooth="yes"/>
      <point x="475" y="2"/>
      <point x="511" y="19"/>
      <point x="537" y="46"/>
      <point x="552" y="79"/>
      <point x="552" y="94" type="qcurve" smooth="yes"/>
      <point x="552" y="107"/>
      <point x="543" y="133"/>
      <point x="537" y="139" type="qcurve"/>
      <point x="529" y="139" type="line"/>
      <point x="534" y="132"/>
      <point x="540" y="112"/>
      <point x="540" y="107" type="qcurve" smooth="yes"/>
      <point x="540" y="100"/>
      <point x="532" y="83"/>
      <point x="521" y="69"/>
      <point x="507" y="60"/>
      <point x="501" y="60" type="qcurve" smooth="yes"/>
      <point x="485" y="60"/>
      <point x="471" y="89"/>
      <point x="471" y="104" type="qcurve" smooth="yes"/>
      <point x="471" y="556" type="line"/>
      <point x="485" y="556"/>
      <point x="512" y="568"/>
      <point x="533" y="587"/>
      <point x="546" y="612"/>
      <point x="546" y="625" type="qcurve" smooth="yes"/>
      <point x="546" y="645"/>
      <point x="524" y="666"/>
      <point x="509" y="671" type="qcurve"/>
      <point x="504" y="664" type="line"/>
      <point x="515" y="662"/>
      <point x="531" y="646"/>
      <point x="531" y="637" type="qcurve" smooth="yes"/>
      <point x="531" y="626"/>
      <point x="505" y="608"/>
      <point x="494" y="608" type="qcurve" smooth="yes"/>
      <point x="476" y="608"/>
      <point x="446" y="627"/>
      <point x="424" y="656"/>
      <point x="411" y="688"/>
      <point x="411" y="701" type="qcurve"/>
      <point x="395" y="701" type="line"/>
      <point x="395" y="690"/>
      <point x="381" y="666"/>
      <point x="360" y="644"/>
      <point x="336" y="625"/>
      <point x="325" y="619" type="qcurve"/>
    </contour>
    <contour>
      <point x="325" y="331" type="line"/>
      <point x="325" y="606" type="line"/>
      <point x="334" y="605"/>
      <point x="355" y="599"/>
      <point x="373" y="590"/>
      <point x="385" y="578"/>
      <point x="385" y="572" type="qcurve" smooth="yes"/>
      <point x="385" y="364" type="line"/>
    </contour>
  </outline>
</glyph>
<glyph name="uni1204" format="2">
  <advance width="1205"/>
  <unicode hex="1204"/>
  <outline>
    <contour>
      <point x="594.913" y="1241.08" type="line" smooth="yes"/>
      <point x="594.913" y="1312.47"/>
      <point x="633.354" y="1394.84"/>
      <point x="679.116" y="1394.84" type="qcurve" smooth="yes"/>
      <point x="699.252" y="1394.84"/>
      <point x="732.201" y="1376.54"/>
      <point x="734.031" y="1360.06" type="qcurve"/>
      <point x="741.353" y="1363.72" type="line"/>
      <point x="737.692" y="1383.86"/>
      <point x="706.574" y="1411.32"/>
      <point x="669.964" y="1411.32" type="qcurve" smooth="yes"/>
      <point x="616.879" y="1411.32"/>
      <point x="565.625" y="1330.78"/>
      <point x="565.625" y="1261.22" type="qcurve" smooth="yes"/>
      <point x="565.625" y="618.71" type="line"/>
      <point x="486.914" y="580.269" type="line"/>
      <point x="406.372" y="631.523" type="line"/>
      <point x="406.372" y="1112.95" type="line" smooth="yes"/>
      <point x="406.372" y="1198.98"/>
      <point x="311.185" y="1292.33"/>
      <point x="225.152" y="1292.33" type="qcurve" smooth="yes"/>
      <point x="192.203" y="1292.33"/>
      <point x="133.627" y="1272.2"/>
      <point x="87.8641" y="1233.76"/>
      <point x="60.4066" y="1180.67"/>
      <point x="60.4066" y="1149.56" type="qcurve" smooth="yes"/>
      <point x="60.4066" y="1138.57"/>
      <point x="69.5591" y="1111.11"/>
      <point x="78.7116" y="1111.11" type="qcurve"/>
      <point x="78.7116" y="1114.78" type="line"/>
      <point x="73.2201" y="1116.61"/>
      <point x="71.3896" y="1131.25"/>
      <point x="71.3896" y="1133.08" type="qcurve"/>
      <point x="71.3896" y="1167.86"/>
      <point x="137.288" y="1198.98"/>
      <point x="170.237" y="1198.98" type="qcurve" smooth="yes"/>
      <point x="201.355" y="1198.98"/>
      <point x="247.118" y="1149.56"/>
      <point x="247.118" y="1111.11" type="qcurve" smooth="yes"/>
      <point x="247.118" y="889.624" type="line"/>
      <point x="232.474" y="904.268"/>
      <point x="181.22" y="913.421"/>
      <point x="170.237" y="913.421" type="qcurve" smooth="yes"/>
      <point x="122.644" y="913.421"/>
      <point x="54.9151" y="851.184"/>
      <point x="54.9151" y="805.421" type="qcurve" smooth="yes"/>
      <point x="54.9151" y="768.811"/>
      <point x="67.7286" y="724.879"/>
      <point x="76.8811" y="724.879" type="qcurve"/>
      <point x="80.5421" y="728.54" type="line"/>
      <point x="73.2201" y="728.54"/>
      <point x="73.2201" y="750.506" type="qcurve" smooth="yes"/>
      <point x="73.2201" y="770.642"/>
      <point x="131.796" y="799.93"/>
      <point x="157.423" y="799.93" type="qcurve" smooth="yes"/>
      <point x="194.033" y="799.93"/>
      <point x="247.118" y="752.336"/>
      <point x="247.118" y="717.557" type="qcurve" smooth="yes"/>
      <point x="247.118" y="600.405" type="line"/>
      <point x="391.728" y="507.049" type="line"/>
      <point x="421.016" y="507.049" type="line"/>
      <point x="567.456" y="585.761" type="line"/>
      <point x="567.456" y="234.304" type="line" smooth="yes"/>
      <point x="567.456" y="201.355"/>
      <point x="563.795" y="124.474"/>
      <point x="549.151" y="58.5761"/>
      <point x="523.524" y="12.8135"/>
      <point x="501.558" y="12.8135" type="qcurve" smooth="yes"/>
      <point x="485.083" y="12.8135"/>
      <point x="461.287" y="47.5931"/>
      <point x="461.287" y="71.3896" type="qcurve" smooth="yes"/>
      <point x="461.287" y="89.6946"/>
      <point x="475.931" y="129.966"/>
      <point x="494.236" y="170.237"/>
      <point x="508.88" y="205.016"/>
      <point x="508.88" y="215.999" type="qcurve" smooth="yes"/>
      <point x="508.88" y="234.304"/>
      <point x="483.253" y="261.762"/>
      <point x="464.948" y="261.762" type="qcurve" smooth="yes"/>
      <point x="455.795" y="261.762"/>
      <point x="442.982" y="250.779"/>
      <point x="437.49" y="247.118" type="qcurve"/>
      <point x="441.151" y="237.965" type="line"/>
      <point x="453.965" y="247.118"/>
      <point x="463.117" y="247.118" type="qcurve" smooth="yes"/>
      <point x="486.914" y="247.118"/>
      <point x="486.914" y="210.508" type="qcurve" smooth="yes"/>
      <point x="486.914" y="203.186"/>
      <point x="470.439" y="170.237"/>
      <point x="452.134" y="131.796"/>
      <point x="435.66" y="89.6946"/>
      <point x="435.66" y="71.3896" type="qcurve" smooth="yes"/>
      <point x="435.66" y="40.2711"/>
      <point x="472.27" y="-3.661"/>
      <point x="497.897" y="-3.661" type="qcurve" smooth="yes"/>
      <point x="547.32" y="-3.661"/>
      <point x="594.913" y="115.322"/>
      <point x="594.913" y="226.982" type="qcurve" smooth="yes"/>
      <point x="594.913" y="600.405" type="line"/>
      <point x="704.743" y="660.811" type="line"/>
      <point x="704.743" y="137.288" type="line" smooth="yes"/>
      <point x="704.743" y="120.813"/>
      <point x="693.76" y="115.322"/>
      <point x="684.608" y="115.322" type="qcurve"/>
      <point x="684.608" y="97.0166" type="line"/>
      <point x="699.252" y="97.0166"/>
      <point x="743.184" y="73.2201"/>
      <point x="785.286" y="40.2711"/>
      <point x="814.574" y="10.983"/>
      <point x="814.574" y="5.49151" type="qcurve"/>
      <point x="831.048" y="5.49151" type="line"/>
      <point x="1096.47" y="126.305" type="line"/>
      <point x="1096.47" y="150.101" type="line"/>
      <point x="1087.32" y="144.61"/>
      <point x="1069.01" y="140.949" type="qcurve"/>
      <point x="1069.01" y="371.592" type="line"/>
      <point x="1094.64" y="373.422"/>
      <point x="1133.08" y="406.372"/>
      <point x="1142.23" y="426.507" type="qcurve"/>
      <point x="1145.89" y="435.66"/>
      <point x="1149.56" y="459.456"/>
      <point x="1147.73" y="464.948" type="qcurve"/>
      <point x="1134.91" y="464.948" type="line"/>
      <point x="1134.91" y="444.812"/>
      <point x="1098.3" y="424.677"/>
      <point x="1072.67" y="424.677" type="qcurve" smooth="yes"/>
      <point x="1067.18" y="424.677"/>
      <point x="1043.39" y="435.66"/>
      <point x="1019.59" y="455.795"/>
      <point x="1001.28" y="479.592"/>
      <point x="1001.28" y="492.405" type="qcurve"/>
      <point x="973.827" y="492.405" type="line"/>
      <point x="973.827" y="483.253"/>
      <point x="909.76" y="437.49"/>
      <point x="863.997" y="411.863" type="qcurve"/>
      <point x="862.167" y="1017.76" type="line"/>
      <point x="924.404" y="1017.76"/>
      <point x="999.454" y="1096.47"/>
      <point x="999.454" y="1144.06" type="qcurve" smooth="yes"/>
      <point x="999.454" y="1180.67"/>
      <point x="959.183" y="1219.11"/>
      <point x="931.726" y="1228.27" type="qcurve"/>
      <point x="922.573" y="1215.45" type="line"/>
      <point x="942.709" y="1211.79"/>
      <point x="971.997" y="1182.5"/>
      <point x="971.997" y="1166.03" type="qcurve" smooth="yes"/>
      <point x="971.997" y="1145.89"/>
      <point x="924.404" y="1112.95"/>
      <point x="904.268" y="1112.95" type="qcurve" smooth="yes"/>
      <point x="871.319" y="1112.95"/>
      <point x="816.404" y="1147.73"/>
      <point x="776.133" y="1200.81"/>
      <point x="752.336" y="1259.39"/>
      <point x="752.336" y="1283.18" type="qcurve"/>
      <point x="723.048" y="1283.18" type="line"/>
      <point x="723.048" y="1263.05"/>
      <point x="697.421" y="1219.11"/>
      <point x="658.981" y="1178.84"/>
      <point x="615.049" y="1144.06"/>
      <point x="594.913" y="1133.08" type="qcurve"/>
    </contour>
    <contour>
      <point x="594.913" y="633.354" type="line"/>
      <point x="594.913" y="1109.28" type="line"/>
      <point x="611.388" y="1107.45"/>
      <point x="649.828" y="1096.47"/>
      <point x="682.777" y="1080"/>
      <point x="704.743" y="1058.03"/>
      <point x="704.743" y="1047.05" type="qcurve" smooth="yes"/>
      <point x="704.743" y="693.76" type="line"/>
    </contour>
    <contour>
      <point x="975.658" y="126.305" type="line"/>
      <point x="928.065" y="126.305"/>
      <point x="863.997" y="144.61"/>
      <point x="863.997" y="181.22" type="qcurve" smooth="yes"/>
      <point x="863.997" y="382.575" type="line"/>
      <point x="889.624" y="393.558"/>
      <point x="924.404" y="415.524"/>
      <point x="940.878" y="424.677" type="qcurve"/>
      <point x="984.81" y="382.575" type="line"/>
      <point x="984.81" y="131.796" type="line"/>
    </contour>
  </outline>
</glyph>
<glyph name="uni1205" format="2">
  <advance width="582"/>
  <unicode hex="1205"/>
  <outline>
    <contour>
      <point x="326" y="649" type="line" smooth="yes"/>
      <point x="326" y="688"/>
      <point x="347" y="733"/>
      <point x="372" y="733" type="qcurve" smooth="yes"/>
      <point x="383" y="733"/>
      <point x="401" y="723"/>
      <point x="402" y="714" type="qcurve"/>
      <point x="406" y="716" type="line"/>
      <point x="404" y="727"/>
      <point x="387" y="742"/>
      <point x="367" y="742" type="qcurve" smooth="yes"/>
      <point x="338" y="742"/>
      <point x="310" y="698"/>
      <point x="310" y="660" type="qcurve" smooth="yes"/>
      <point x="310" y="120" type="line"/>
      <point x="259" y="98" type="line"/>
      <point x="222" y="126" type="line"/>
      <point x="222" y="568" type="line" smooth="yes"/>
      <point x="222" y="616"/>
      <point x="171" y="667"/>
      <point x="123" y="667" type="qcurve" smooth="yes"/>
      <point x="105" y="667"/>
      <point x="73" y="656"/>
      <point x="48" y="635"/>
      <point x="33" y="606"/>
      <point x="33" y="589" type="qcurve" smooth="yes"/>
      <point x="33" y="583"/>
      <point x="38" y="568"/>
      <point x="43" y="568" type="qcurve"/>
      <point x="43" y="570" type="line"/>
      <point x="40" y="571"/>
      <point x="39" y="579"/>
      <point x="39" y="580" type="qcurve"/>
      <point x="39" y="591"/>
      <point x="51" y="603" type="qcurve"/>
      <point x="63" y="616"/>
      <point x="88" y="616" type="qcurve" smooth="yes"/>
      <point x="104" y="616"/>
      <point x="128" y="579"/>
      <point x="129" y="553" type="qcurve"/>
      <point x="129" y="464" type="line"/>
      <point x="139" y="464"/>
      <point x="166" y="456"/>
      <point x="190" y="438"/>
      <point x="206" y="407"/>
      <point x="206" y="383" type="qcurve"/>
      <point x="198" y="391"/>
      <point x="179" y="411"/>
      <point x="155" y="428"/>
      <point x="128" y="439"/>
      <point x="113" y="439" type="qcurve" smooth="yes"/>
      <point x="82" y="439"/>
      <point x="45" y="407"/>
      <point x="45" y="377" type="qcurve" smooth="yes"/>
      <point x="45" y="355"/>
      <point x="52" y="346" type="qcurve"/>
      <point x="54" y="348" type="line"/>
      <point x="52" y="350"/>
      <point x="52" y="354" type="qcurve" smooth="yes"/>
      <point x="52" y="362"/>
      <point x="58" y="368" type="qcurve"/>
      <point x="62" y="374"/>
      <point x="81" y="382"/>
      <point x="91" y="382" type="qcurve" smooth="yes"/>
      <point x="111" y="382"/>
      <point x="135" y="365"/>
      <point x="135" y="353" type="qcurve" smooth="yes"/>
      <point x="135" y="248" type="line"/>
      <point x="127" y="256"/>
      <point x="99" y="261"/>
      <point x="93" y="261" type="qcurve" smooth="yes"/>
      <point x="67" y="261"/>
      <point x="30" y="227"/>
      <point x="30" y="202" type="qcurve" smooth="yes"/>
      <point x="30" y="189"/>
      <point x="35" y="163"/>
      <point x="40" y="158" type="qcurve"/>
      <point x="42" y="160" type="line"/>
      <point x="42" y="177"/>
      <point x="68" y="199"/>
      <point x="86" y="199" type="qcurve" smooth="yes"/>
      <point x="106" y="199"/>
      <point x="135" y="173"/>
      <point x="135" y="154" type="qcurve" smooth="yes"/>
      <point x="135" y="106" type="line"/>
      <point x="215" y="55" type="line"/>
      <point x="311" y="103" type="line"/>
      <point x="311" y="12" type="line"/>
      <point x="293" y="18"/>
      <point x="257" y="37"/>
      <point x="242" y="51" type="qcurve"/>
      <point x="225" y="6"/>
      <point x="175" y="-43"/>
      <point x="130" y="-43" type="qcurve" smooth="yes"/>
      <point x="122" y="-43"/>
      <point x="100" y="-35"/>
      <point x="92" y="-29" type="qcurve"/>
      <point x="87" y="-33" type="line"/>
      <point x="87" y="-44"/>
      <point x="114" y="-69"/>
      <point x="134" y="-77" type="qcurve" smooth="yes"/>
      <point x="141" y="-80"/>
      <point x="172" y="-84"/>
      <point x="187" y="-84" type="qcurve" smooth="yes"/>
      <point x="205" y="-84"/>
      <point x="248" y="-72"/>
      <point x="288" y="-51"/>
      <point x="318" y="-25"/>
      <point x="324" y="-10" type="qcurve"/>
      <point x="335" y="-12"/>
      <point x="384" y="-20"/>
      <point x="407" y="-20" type="qcurve"/>
      <point x="425" y="-16"/>
      <point x="453" y="-7"/>
      <point x="478" y="9"/>
      <point x="502" y="34"/>
      <point x="516" y="52" type="qcurve"/>
      <point x="511" y="56" type="line"/>
      <point x="488" y="30"/>
      <point x="437" y="-4"/>
      <point x="407" y="-6" type="qcurve"/>
      <point x="389" y="-6"/>
      <point x="339" y="1"/>
      <point x="326" y="6" type="qcurve"/>
      <point x="326" y="111" type="line"/>
      <point x="385" y="140" type="line"/>
      <point x="385" y="114"/>
      <point x="428" y="80"/>
      <point x="453" y="80" type="qcurve" smooth="yes"/>
      <point x="474" y="80"/>
      <point x="510" y="95"/>
      <point x="537" y="121"/>
      <point x="552" y="156"/>
      <point x="552" y="175" type="qcurve" smooth="yes"/>
      <point x="552" y="188"/>
      <point x="543" y="214"/>
      <point x="537" y="220" type="qcurve"/>
      <point x="529" y="220" type="line"/>
      <point x="534" y="213"/>
      <point x="540" y="193"/>
      <point x="540" y="188" type="qcurve" smooth="yes"/>
      <point x="540" y="181"/>
      <point x="532" y="164"/>
      <point x="521" y="150"/>
      <point x="507" y="141"/>
      <point x="501" y="141" type="qcurve" smooth="yes"/>
      <point x="485" y="141"/>
      <point x="471" y="170"/>
      <point x="471" y="185" type="qcurve" smooth="yes"/>
      <point x="471" y="527" type="line"/>
      <point x="504" y="527"/>
      <point x="547" y="570"/>
      <point x="547" y="596" type="qcurve" smooth="yes"/>
      <point x="547" y="616"/>
      <point x="525" y="637"/>
      <point x="510" y="642" type="qcurve"/>
      <point x="505" y="635" type="line"/>
      <point x="516" y="633"/>
      <point x="532" y="617"/>
      <point x="532" y="608" type="qcurve" smooth="yes"/>
      <point x="532" y="597"/>
      <point x="506" y="579"/>
      <point x="495" y="579" type="qcurve" smooth="yes"/>
      <point x="477" y="579"/>
      <point x="447" y="598"/>
      <point x="425" y="627"/>
      <point x="412" y="659"/>
      <point x="412" y="672" type="qcurve"/>
      <point x="396" y="672" type="line"/>
      <point x="396" y="661"/>
      <point x="382" y="637"/>
      <point x="361" y="615"/>
      <point x="337" y="596"/>
      <point x="326" y="590" type="qcurve"/>
    </contour>
    <contour>
      <point x="385" y="157" type="line"/>
      <point x="383" y="156"/>
      <point x="358" y="144"/>
      <point x="328" y="129"/>
      <point x="326" y="127" type="qcurve"/>
      <point x="326" y="577" type="line"/>
      <point x="335" y="576"/>
      <point x="355" y="570"/>
      <point x="373" y="561"/>
      <point x="385" y="549"/>
      <point x="385" y="543" type="qcurve" smooth="yes"/>
    </contour>
    <contour>
      <point x="247" y="26" type="qcurve"/>
      <point x="253" y="15"/>
      <point x="289" y="0"/>
      <point x="309" y="-6" type="qcurve"/>
      <point x="307" y="-12"/>
      <point x="285" y="-34"/>
      <point x="249" y="-56"/>
      <point x="202" y="-72"/>
      <point x="175" y="-72" type="qcurve" smooth="yes"/>
      <point x="155" y="-72"/>
      <point x="115" y="-59"/>
      <point x="96" y="-41" type="qcurve"/>
      <point x="98" y="-39" type="line"/>
      <point x="106" y="-45"/>
      <point x="129" y="-54"/>
      <point x="137" y="-54" type="qcurve" smooth="yes"/>
      <point x="182" y="-54"/>
      <point x="230" y="-13"/>
    </contour>
  </outline>
</glyph>
<glyph name="uni1206" format="2">
  <advance width="628"/>
  <unicode hex="1206"/>
  <outline>
    <contour>
      <point x="327" y="649" type="line" smooth="yes"/>
      <point x="327" y="688"/>
      <point x="348" y="733"/>
      <point x="373" y="733" type="qcurve" smooth="yes"/>
      <point x="384" y="733"/>
      <point x="402" y="723"/>
      <point x="403" y="714" type="qcurve"/>
      <point x="407" y="716" type="line"/>
      <point x="405" y="727"/>
      <point x="388" y="742"/>
      <point x="368" y="742" type="qcurve" smooth="yes"/>
      <point x="339" y="742"/>
      <point x="311" y="698"/>
      <point x="311" y="660" type="qcurve" smooth="yes"/>
      <point x="311" y="118" type="line"/>
      <point x="256" y="101" type="line"/>
      <point x="221" y="120" type="line"/>
      <point x="221" y="561" type="line" smooth="yes"/>
      <point x="221" y="609"/>
      <point x="170" y="660"/>
      <point x="122" y="660" type="qcurve" smooth="yes"/>
      <point x="104" y="660"/>
      <point x="72" y="649"/>
      <point x="47" y="628"/>
      <point x="32" y="599"/>
      <point x="32" y="582" type="qcurve" smooth="yes"/>
      <point x="32" y="576"/>
      <point x="37" y="561"/>
      <point x="42" y="561" type="qcurve"/>
      <point x="42" y="563" type="line"/>
      <point x="39" y="564"/>
      <point x="38" y="572"/>
      <point x="38" y="573" type="qcurve"/>
      <point x="38" y="584"/>
      <point x="50" y="596" type="qcurve" smooth="yes"/>
      <point x="56" y="603"/>
      <point x="80" y="609"/>
      <point x="92" y="609" type="qcurve" smooth="yes"/>
      <point x="110" y="609"/>
      <point x="135" y="578"/>
      <point x="135" y="556" type="qcurve" smooth="yes"/>
      <point x="135" y="465" type="line"/>
      <point x="131" y="470"/>
      <point x="116" y="476"/>
      <point x="108" y="476" type="qcurve" smooth="yes"/>
      <point x="40" y="476"/>
      <point x="40" y="414" type="qcurve" smooth="yes"/>
      <point x="40" y="392"/>
      <point x="47" y="383" type="qcurve"/>
      <point x="49" y="385" type="line"/>
      <point x="47" y="387"/>
      <point x="47" y="391" type="qcurve" smooth="yes"/>
      <point x="47" y="399"/>
      <point x="53" y="405" type="qcurve"/>
      <point x="57" y="411"/>
      <point x="76" y="419"/>
      <point x="86" y="419" type="qcurve" smooth="yes"/>
      <point x="106" y="419"/>
      <point x="135" y="402"/>
      <point x="135" y="390" type="qcurve" smooth="yes"/>
      <point x="135" y="263" type="line"/>
      <point x="127" y="271"/>
      <point x="99" y="276"/>
      <point x="93" y="276" type="qcurve" smooth="yes"/>
      <point x="67" y="276"/>
      <point x="30" y="242"/>
      <point x="30" y="217" type="qcurve" smooth="yes"/>
      <point x="30" y="204"/>
      <point x="35" y="178"/>
      <point x="40" y="173" type="qcurve"/>
      <point x="42" y="175" type="line"/>
      <point x="42" y="192"/>
      <point x="68" y="214"/>
      <point x="86" y="214" type="qcurve" smooth="yes"/>
      <point x="106" y="214"/>
      <point x="135" y="188"/>
      <point x="135" y="169" type="qcurve" smooth="yes"/>
      <point x="135" y="105" type="line"/>
      <point x="211" y="63" type="line"/>
      <point x="311" y="103" type="line"/>
      <point x="311" y="12" type="line"/>
      <point x="293" y="18"/>
      <point x="258" y="38"/>
      <point x="243" y="52" type="qcurve"/>
      <point x="226" y="7"/>
      <point x="176" y="-42"/>
      <point x="131" y="-42" type="qcurve" smooth="yes"/>
      <point x="123" y="-42"/>
      <point x="101" y="-34"/>
      <point x="93" y="-28" type="qcurve"/>
      <point x="88" y="-32" type="line"/>
      <point x="88" y="-43"/>
      <point x="115" y="-68"/>
      <point x="135" y="-76" type="qcurve" smooth="yes"/>
      <point x="142" y="-79"/>
      <point x="173" y="-83"/>
      <point x="188" y="-83" type="qcurve" smooth="yes"/>
      <point x="206" y="-83"/>
      <point x="249" y="-71"/>
      <point x="289" y="-50"/>
      <point x="319" y="-24"/>
      <point x="325" y="-9" type="qcurve"/>
      <point x="336" y="-11"/>
      <point x="385" y="-19"/>
      <point x="408" y="-19" type="qcurve"/>
      <point x="426" y="-15"/>
      <point x="454" y="-6"/>
      <point x="479" y="10"/>
      <point x="503" y="35"/>
      <point x="517" y="53" type="qcurve"/>
      <point x="512" y="57" type="line"/>
      <point x="489" y="31"/>
      <point x="438" y="-3"/>
      <point x="408" y="-5" type="qcurve"/>
      <point x="390" y="-5"/>
      <point x="340" y="2"/>
      <point x="327" y="7" type="qcurve"/>
      <point x="327" y="110" type="line"/>
      <point x="386" y="135" type="line"/>
      <point x="386" y="125" type="line" smooth="yes"/>
      <point x="386" y="113"/>
      <point x="398" y="90"/>
      <point x="417" y="73"/>
      <point x="441" y="62"/>
      <point x="454" y="62" type="qcurve" smooth="yes"/>
      <point x="476" y="62"/>
      <point x="512" y="79"/>
      <point x="538" y="106"/>
      <point x="553" y="139"/>
      <point x="553" y="154" type="qcurve" smooth="yes"/>
      <point x="553" y="167"/>
      <point x="544" y="193"/>
      <point x="538" y="199" type="qcurve"/>
      <point x="530" y="199" type="line"/>
      <point x="535" y="192"/>
      <point x="541" y="172"/>
      <point x="541" y="167" type="qcurve" smooth="yes"/>
      <point x="541" y="160"/>
      <point x="533" y="143"/>
      <point x="522" y="129"/>
      <point x="508" y="120"/>
      <point x="502" y="120" type="qcurve" smooth="yes"/>
      <point x="486" y="120"/>
      <point x="472" y="149"/>
      <point x="472" y="164" type="qcurve" smooth="yes"/>
      <point x="472" y="328" type="line"/>
      <point x="477" y="332"/>
      <point x="513" y="350"/>
      <point x="555" y="368"/>
      <point x="592" y="382"/>
      <point x="598" y="382" type="qcurve"/>
      <point x="598" y="392" type="line"/>
      <point x="583" y="392"/>
      <point x="583" y="412" type="qcurve" smooth="yes"/>
      <point x="583" y="583" type="line"/>
      <point x="591" y="593"/>
      <point x="591" y="607" type="qcurve" smooth="yes"/>
      <point x="591" y="627"/>
      <point x="579" y="638"/>
      <point x="564" y="643" type="qcurve"/>
      <point x="559" y="636" type="line"/>
      <point x="570" y="634"/>
      <point x="576" y="628"/>
      <point x="576" y="619" type="qcurve" smooth="yes"/>
      <point x="576" y="608"/>
      <point x="550" y="590"/>
      <point x="539" y="590" type="qcurve" smooth="yes"/>
      <point x="521" y="590"/>
      <point x="480" y="603"/>
      <point x="442" y="626"/>
      <point x="415" y="656"/>
      <point x="412" y="672" type="qcurve"/>
      <point x="396" y="672" type="line"/>
      <point x="394" y="661"/>
      <point x="381" y="636"/>
      <point x="361" y="614"/>
      <point x="338" y="595"/>
      <point x="327" y="589" type="qcurve"/>
    </contour>
    <contour>
      <point x="327" y="125" type="line"/>
      <point x="327" y="577" type="line"/>
      <point x="336" y="577"/>
      <point x="356" y="571"/>
      <point x="374" y="562"/>
      <point x="386" y="549"/>
      <point x="386" y="543" type="qcurve" smooth="yes"/>
      <point x="386" y="152" type="line"/>
    </contour>
    <contour>
      <point x="537" y="375" type="line"/>
      <point x="472" y="344" type="line"/>
      <point x="472" y="520" type="line" smooth="yes"/>
      <point x="472" y="540"/>
      <point x="510" y="568"/>
      <point x="537" y="568" type="qcurve"/>
    </contour>
    <contour>
      <point x="248" y="27" type="qcurve"/>
      <point x="254" y="16"/>
      <point x="290" y="1"/>
      <point x="310" y="-5" type="qcurve"/>
      <point x="308" y="-11"/>
      <point x="286" y="-33"/>
      <point x="250" y="-55"/>
      <point x="203" y="-71"/>
      <point x="176" y="-71" type="qcurve" smooth="yes"/>
      <point x="156" y="-71"/>
      <point x="116" y="-58"/>
      <point x="97" y="-40" type="qcurve"/>
      <point x="99" y="-38" type="line"/>
      <point x="107" y="-44"/>
      <point x="130" y="-53"/>
      <point x="138" y="-53" type="qcurve" smooth="yes"/>
      <point x="183" y="-53"/>
      <point x="231" y="-12"/>
    </contour>
  </outline>
</glyph>
<glyph name="uni1208" format="2">
  <advance width="1058"/>
  <unicode hex="1208"/>
  <outline>
    <contour>
      <point x="201.355" y="638.845" type="qcurve" smooth="yes"/>
      <point x="148.271" y="638.845"/>
      <point x="78.7116" y="574.778"/>
      <point x="75.0506" y="525.354" type="qcurve"/>
      <point x="75.0506" y="505.219" type="line" smooth="yes"/>
      <point x="75.0506" y="485.083"/>
      <point x="82.3726" y="477.761" type="qcurve"/>
      <point x="82.3726" y="485.083" type="line" smooth="yes"/>
      <point x="82.3726" y="490.575"/>
      <point x="91.5251" y="518.032"/>
      <point x="97.0166" y="525.354" type="qcurve"/>
      <point x="104.339" y="534.507"/>
      <point x="137.288" y="550.981"/>
      <point x="153.762" y="550.981" type="qcurve" smooth="yes"/>
      <point x="192.203" y="550.981"/>
      <point x="245.287" y="507.049"/>
      <point x="245.287" y="486.914" type="qcurve" smooth="yes"/>
      <point x="245.287" y="347.795" type="line"/>
      <point x="225.152" y="356.948"/>
      <point x="181.22" y="371.592"/>
      <point x="168.406" y="371.592" type="qcurve" smooth="yes"/>
      <point x="122.644" y="371.592"/>
      <point x="54.9151" y="313.016"/>
      <point x="54.9151" y="269.084" type="qcurve" smooth="yes"/>
      <point x="54.9151" y="248.948"/>
      <point x="64.0676" y="203.186"/>
      <point x="73.2201" y="192.203" type="qcurve"/>
      <point x="75.0506" y="221.491"/>
      <point x="122.644" y="263.592"/>
      <point x="153.762" y="263.592" type="qcurve" smooth="yes"/>
      <point x="192.203" y="263.592"/>
      <point x="245.287" y="217.83"/>
      <point x="245.287" y="184.881" type="qcurve" smooth="yes"/>
      <point x="245.287" y="73.2201" type="line"/>
      <point x="422.846" y="10.983" type="line"/>
      <point x="404.541" y="-7.32201"/>
      <point x="389.897" y="-86.0336"/>
      <point x="389.897" y="-118.983" type="qcurve" smooth="yes"/>
      <point x="389.897" y="-170.237"/>
      <point x="470.439" y="-252.609"/>
      <point x="527.185" y="-252.609" type="qcurve" smooth="yes"/>
      <point x="569.286" y="-252.609"/>
      <point x="638.845" y="-232.474"/>
      <point x="649.828" y="-217.83" type="qcurve"/>
      <point x="649.828" y="-206.847" type="line"/>
      <point x="640.676" y="-205.016"/>
      <point x="593.083" y="-188.542"/>
      <point x="569.286" y="-173.898" type="qcurve"/>
      <point x="549.151" y="-159.254"/>
      <point x="518.032" y="-111.661"/>
      <point x="518.032" y="-93.3556" type="qcurve" smooth="yes"/>
      <point x="518.032" y="-67.7286"/>
      <point x="539.998" y="-31.1185"/>
      <point x="554.642" y="-31.1185" type="qcurve"/>
      <point x="547.32" y="-20.1355" type="line"/>
      <point x="521.693" y="-23.7965"/>
      <point x="497.897" y="-67.7286"/>
      <point x="497.897" y="-98.8471" type="qcurve" smooth="yes"/>
      <point x="497.897" y="-122.644"/>
      <point x="518.032" y="-170.237"/>
      <point x="534.507" y="-183.05" type="qcurve"/>
      <point x="545.49" y="-192.203"/>
      <point x="578.439" y="-210.508"/>
      <point x="585.761" y="-212.338" type="qcurve"/>
      <point x="580.269" y="-217.83"/>
      <point x="545.49" y="-225.152"/>
      <point x="532.676" y="-225.152" type="qcurve" smooth="yes"/>
      <point x="519.863" y="-225.152"/>
      <point x="485.083" y="-206.847"/>
      <point x="453.965" y="-175.728"/>
      <point x="431.999" y="-139.118"/>
      <point x="431.999" y="-120.813" type="qcurve" smooth="yes"/>
      <point x="431.999" y="-98.8471"/>
      <point x="441.151" y="-34.7795"/>
      <point x="459.456" y="0" type="qcurve"/>
      <point x="668.133" y="248.948" type="line"/>
      <point x="688.269" y="159.254" type="line"/>
      <point x="688.269" y="140.949"/>
      <point x="673.625" y="82.3726"/>
      <point x="633.354" y="51.2541" type="qcurve"/>
      <point x="713.896" y="65.8981" type="line"/>
      <point x="745.014" y="34.7795"/>
      <point x="814.574" y="1.8305"/>
      <point x="867.658" y="1.8305" type="qcurve" smooth="yes"/>
      <point x="896.946" y="1.8305"/>
      <point x="946.37" y="32.949"/>
      <point x="982.98" y="78.7116"/>
      <point x="1003.12" y="135.457"/>
      <point x="1003.12" y="162.915" type="qcurve" smooth="yes"/>
      <point x="1003.12" y="183.05"/>
      <point x="993.963" y="212.338"/>
      <point x="990.302" y="219.66" type="qcurve"/>
      <point x="973.827" y="215.999" type="line"/>
      <point x="975.658" y="206.847"/>
      <point x="981.149" y="177.559"/>
      <point x="981.149" y="173.898" type="qcurve" smooth="yes"/>
      <point x="981.149" y="146.44"/>
      <point x="944.539" y="117.152"/>
      <point x="929.895" y="117.152" type="qcurve" smooth="yes"/>
      <point x="900.607" y="117.152"/>
      <point x="863.997" y="151.932"/>
      <point x="860.336" y="177.559" type="qcurve" smooth="yes"/>
      <point x="843.862" y="296.541"/>
      <point x="810.913" y="529.015"/>
      <point x="787.116" y="717.557"/>
      <point x="768.811" y="845.692"/>
      <point x="766.981" y="858.506" type="qcurve"/>
      <point x="757.828" y="904.268"/>
      <point x="710.235" y="1004.95"/>
      <point x="644.337" y="1100.13"/>
      <point x="569.286" y="1184.34"/>
      <point x="530.846" y="1211.79" type="qcurve"/>
      <point x="483.253" y="1248.4"/>
      <point x="404.541" y="1306.98"/>
      <point x="395.389" y="1310.64" type="qcurve"/>
      <point x="347.795" y="1310.64" type="line"/>
      <point x="347.795" y="1296"/>
      <point x="316.677" y="1244.74"/>
      <point x="263.592" y="1195.32"/>
      <point x="197.694" y="1158.71"/>
      <point x="164.745" y="1158.71" type="qcurve" smooth="yes"/>
      <point x="146.44" y="1158.71"/>
      <point x="100.678" y="1173.35"/>
      <point x="100.678" y="1189.83" type="qcurve" smooth="yes"/>
      <point x="100.678" y="1211.79"/>
      <point x="133.627" y="1226.44"/>
      <point x="148.271" y="1226.44" type="qcurve"/>
      <point x="146.44" y="1231.93" type="line"/>
      <point x="142.779" y="1233.76"/>
      <point x="124.474" y="1233.76" type="qcurve" smooth="yes"/>
      <point x="115.322" y="1233.76"/>
      <point x="75.0506" y="1204.47"/>
      <point x="71.3896" y="1182.5" type="qcurve"/>
      <point x="71.3896" y="1144.06"/>
      <point x="151.932" y="1101.96"/>
      <point x="212.338" y="1101.96" type="qcurve" smooth="yes"/>
      <point x="269.084" y="1101.96"/>
      <point x="344.134" y="1109.28"/>
      <point x="395.389" y="1127.59"/>
      <point x="431.999" y="1153.22"/>
      <point x="452.134" y="1173.35" type="qcurve"/>
      <point x="459.456" y="1171.52"/>
      <point x="505.219" y="1120.27"/>
      <point x="530.846" y="1083.66" type="qcurve"/>
      <point x="538.168" y="1069.01"/>
      <point x="556.473" y="1019.59"/>
      <point x="569.286" y="961.014"/>
      <point x="580.269" y="907.929"/>
      <point x="583.93" y="891.455" type="qcurve"/>
      <point x="563.795" y="891.455"/>
      <point x="505.219" y="871.319"/>
      <point x="448.473" y="838.37"/>
      <point x="406.372" y="798.099"/>
      <point x="402.711" y="777.964" type="qcurve"/>
      <point x="402.711" y="807.252"/>
      <point x="369.761" y="860.336"/>
      <point x="318.507" y="898.777"/>
      <point x="254.44" y="920.743"/>
      <point x="221.491" y="920.743" type="qcurve" smooth="yes"/>
      <point x="188.542" y="920.743"/>
      <point x="129.966" y="900.607"/>
      <point x="84.2031" y="862.167"/>
      <point x="56.7456" y="809.082"/>
      <point x="56.7456" y="777.964" type="qcurve" smooth="yes"/>
      <point x="56.7456" y="766.981"/>
      <point x="65.8981" y="739.523"/>
      <point x="75.0506" y="739.523" type="qcurve"/>
      <point x="75.0506" y="743.184" type="line"/>
      <point x="69.5591" y="745.014"/>
      <point x="67.7286" y="759.658"/>
      <point x="67.7286" y="761.489" type="qcurve"/>
      <point x="67.7286" y="794.438"/>
      <point x="129.966" y="827.387"/>
      <point x="166.576" y="827.387" type="qcurve" smooth="yes"/>
      <point x="199.525" y="827.387"/>
      <point x="245.287" y="770.642"/>
      <point x="245.287" y="730.37" type="qcurve" smooth="yes"/>
      <point x="245.287" y="620.54" type="line"/>
      <point x="232.474" y="629.693"/>
      <point x="206.847" y="638.845"/>
    </contour>
    <contour>
      <point x="402.711" y="153.762" type="line"/>
      <point x="402.711" y="708.404" type="line" smooth="yes"/>
      <point x="402.711" y="721.218"/>
      <point x="437.49" y="772.472"/>
      <point x="492.405" y="821.896"/>
      <point x="558.303" y="858.506"/>
      <point x="589.422" y="858.506" type="qcurve"/>
      <point x="616.879" y="666.303"/>
      <point x="646.167" y="446.643"/>
      <point x="660.811" y="334.982"/>
      <point x="662.642" y="303.863"/>
      <point x="662.642" y="300.202" type="qcurve"/>
      <point x="497.897" y="111.661" type="line"/>
    </contour>
  </outline>
</glyph>
<glyph name="uni1209" format="2">
  <advance width="1275"/>
  <unicode hex="1209"/>
  <outline>
    <contour>
      <point x="201.355" y="644.337" type="qcurve" smooth="yes"/>
      <point x="148.271" y="644.337"/>
      <point x="78.7116" y="576.608"/>
      <point x="75.0506" y="527.185" type="qcurve"/>
      <point x="75.0506" y="510.71" type="line" smooth="yes"/>
      <point x="75.0506" y="490.575"/>
      <point x="82.3726" y="483.253" type="qcurve"/>
      <point x="82.3726" y="490.575" type="line" smooth="yes"/>
      <point x="82.3726" y="496.066"/>
      <point x="91.5251" y="514.371"/>
      <point x="97.0166" y="521.693" type="qcurve"/>
      <point x="104.339" y="530.846"/>
      <point x="137.288" y="538.168"/>
      <point x="153.762" y="538.168" type="qcurve" smooth="yes"/>
      <point x="192.203" y="538.168"/>
      <point x="245.287" y="512.541"/>
      <point x="245.287" y="492.405" type="qcurve" smooth="yes"/>
      <point x="245.287" y="345.965" type="line"/>
      <point x="225.152" y="355.117"/>
      <point x="181.22" y="369.761"/>
      <point x="168.406" y="369.761" type="qcurve" smooth="yes"/>
      <point x="122.644" y="369.761"/>
      <point x="54.9151" y="311.185"/>
      <point x="54.9151" y="267.253" type="qcurve" smooth="yes"/>
      <point x="54.9151" y="247.118"/>
      <point x="64.0676" y="201.355"/>
      <point x="73.2201" y="190.372" type="qcurve"/>
      <point x="75.0506" y="219.66"/>
      <point x="122.644" y="261.762"/>
      <point x="153.762" y="261.762" type="qcurve" smooth="yes"/>
      <point x="192.203" y="261.762"/>
      <point x="245.287" y="215.999"/>
      <point x="245.287" y="183.05" type="qcurve" smooth="yes"/>
      <point x="245.287" y="71.3896" type="line"/>
      <point x="388.067" y="9.15251" type="line"/>
      <point x="377.083" y="-5.49151"/>
      <point x="362.439" y="-64.0676"/>
      <point x="362.439" y="-95.1861" type="qcurve" smooth="yes"/>
      <point x="362.439" y="-111.661"/>
      <point x="367.931" y="-148.271"/>
      <point x="371.592" y="-157.423" type="qcurve"/>
      <point x="378.914" y="-177.559"/>
      <point x="419.185" y="-212.338"/>
      <point x="470.439" y="-239.796"/>
      <point x="527.185" y="-254.44"/>
      <point x="550.981" y="-254.44" type="qcurve" smooth="yes"/>
      <point x="593.083" y="-254.44"/>
      <point x="662.642" y="-234.304"/>
      <point x="673.625" y="-219.66" type="qcurve"/>
      <point x="673.625" y="-208.677" type="line"/>
      <point x="664.472" y="-206.847"/>
      <point x="616.879" y="-186.711"/>
      <point x="593.083" y="-172.067" type="qcurve"/>
      <point x="572.947" y="-157.423"/>
      <point x="541.829" y="-113.491"/>
      <point x="541.829" y="-95.1861" type="qcurve" smooth="yes"/>
      <point x="541.829" y="-69.5591"/>
      <point x="563.795" y="-32.949"/>
      <point x="578.439" y="-32.949" type="qcurve"/>
      <point x="571.117" y="-21.966" type="line"/>
      <point x="545.49" y="-25.627"/>
      <point x="485.083" y="-69.5591"/>
      <point x="485.083" y="-100.678" type="qcurve" smooth="yes"/>
      <point x="485.083" y="-124.474"/>
      <point x="536.337" y="-172.067"/>
      <point x="556.473" y="-184.881" type="qcurve"/>
      <point x="567.456" y="-194.033"/>
      <point x="593.083" y="-206.847"/>
      <point x="600.405" y="-208.677" type="qcurve"/>
      <point x="594.913" y="-214.169"/>
      <point x="569.286" y="-221.491"/>
      <point x="556.473" y="-221.491" type="qcurve" smooth="yes"/>
      <point x="541.829" y="-221.491"/>
      <point x="477.761" y="-206.847"/>
      <point x="463.117" y="-195.864" type="qcurve"/>
      <point x="448.473" y="-186.711"/>
      <point x="417.355" y="-150.101"/>
      <point x="411.863" y="-133.627" type="qcurve"/>
      <point x="408.202" y="-128.135"/>
      <point x="404.541" y="-100.678"/>
      <point x="404.541" y="-86.0336" type="qcurve" smooth="yes"/>
      <point x="404.541" y="-71.3896"/>
      <point x="411.863" y="-31.1185"/>
      <point x="415.524" y="-18.305" type="qcurve"/>
      <point x="424.677" y="-1.8305" type="line"/>
      <point x="657.15" y="247.118" type="line"/>
      <point x="677.286" y="157.423" type="line"/>
      <point x="677.286" y="139.118"/>
      <point x="662.642" y="80.5421"/>
      <point x="622.371" y="49.4236" type="qcurve"/>
      <point x="710.235" y="64.0676" type="line"/>
      <point x="741.353" y="32.949"/>
      <point x="803.591" y="0"/>
      <point x="856.675" y="0" type="qcurve" smooth="yes"/>
      <point x="885.963" y="0"/>
      <point x="935.387" y="31.1185"/>
      <point x="971.997" y="76.8811"/>
      <point x="992.132" y="133.627"/>
      <point x="992.132" y="161.084" type="qcurve" smooth="yes"/>
      <point x="992.132" y="181.22"/>
      <point x="982.98" y="210.508"/>
      <point x="979.319" y="217.83" type="qcurve"/>
      <point x="962.844" y="214.169" type="line"/>
      <point x="964.675" y="205.016"/>
      <point x="970.166" y="175.728"/>
      <point x="970.166" y="172.067" type="qcurve" smooth="yes"/>
      <point x="970.166" y="144.61"/>
      <point x="933.556" y="120.813"/>
      <point x="918.912" y="120.813" type="qcurve" smooth="yes"/>
      <point x="858.506" y="120.813"/>
      <point x="849.353" y="175.728" type="qcurve" smooth="yes"/>
      <point x="829.218" y="313.016"/>
      <point x="801.76" y="582.1"/>
      <point x="781.625" y="710.235" type="qcurve"/>
      <point x="887.794" y="790.777" type="line"/>
      <point x="970.166" y="730.37" type="line"/>
      <point x="966.505" y="724.879"/>
      <point x="961.014" y="699.252"/>
      <point x="957.353" y="671.794"/>
      <point x="955.522" y="647.998"/>
      <point x="955.522" y="642.506" type="qcurve" smooth="yes"/>
      <point x="955.522" y="589.422"/>
      <point x="1026.91" y="518.032"/>
      <point x="1076.34" y="518.032" type="qcurve" smooth="yes"/>
      <point x="1136.74" y="518.032"/>
      <point x="1220.95" y="567.456"/>
      <point x="1220.95" y="604.066" type="qcurve" smooth="yes"/>
      <point x="1220.95" y="615.049"/>
      <point x="1204.47" y="635.184"/>
      <point x="1184.34" y="653.489"/>
      <point x="1167.86" y="669.964"/>
      <point x="1167.86" y="677.286" type="qcurve" smooth="yes"/>
      <point x="1167.86" y="691.93"/>
      <point x="1191.66" y="695.591"/>
      <point x="1200.81" y="695.591" type="qcurve"/>
      <point x="1200.81" y="710.235" type="line"/>
      <point x="1180.67" y="710.235"/>
      <point x="1144.06" y="691.93"/>
      <point x="1144.06" y="675.455" type="qcurve" smooth="yes"/>
      <point x="1144.06" y="660.811"/>
      <point x="1184.34" y="626.032"/>
      <point x="1184.34" y="607.727" type="qcurve" smooth="yes"/>
      <point x="1184.34" y="587.591"/>
      <point x="1158.71" y="567.456"/>
      <point x="1142.23" y="567.456" type="qcurve" smooth="yes"/>
      <point x="1122.1" y="567.456"/>
      <point x="1100.13" y="616.879"/>
      <point x="1100.13" y="657.15" type="qcurve" smooth="yes"/>
      <point x="1100.13" y="677.286"/>
      <point x="1136.74" y="739.523"/>
      <point x="1169.69" y="765.15" type="qcurve"/>
      <point x="1169.69" y="788.947" type="line"/>
      <point x="1153.22" y="788.947"/>
      <point x="1098.3" y="812.743"/>
      <point x="1045.22" y="843.862"/>
      <point x="1004.95" y="876.811"/>
      <point x="1004.95" y="887.794" type="qcurve"/>
      <point x="975.658" y="887.794" type="line"/>
      <point x="777.964" y="739.523" type="line"/>
      <point x="774.303" y="766.981"/>
      <point x="761.489" y="840.201"/>
      <point x="755.997" y="863.997" type="qcurve"/>
      <point x="746.845" y="909.76"/>
      <point x="702.913" y="1004.95"/>
      <point x="642.506" y="1094.64"/>
      <point x="571.117" y="1173.35"/>
      <point x="532.676" y="1200.81" type="qcurve"/>
      <point x="496.066" y="1230.1"/>
      <point x="430.168" y="1279.52"/>
      <point x="384.406" y="1299.66" type="qcurve"/>
      <point x="369.761" y="1303.32"/>
      <point x="342.304" y="1310.64"/>
      <point x="322.168" y="1312.47" type="qcurve"/>
      <point x="322.168" y="1297.83"/>
      <point x="292.88" y="1242.91"/>
      <point x="245.287" y="1188"/>
      <point x="181.22" y="1147.73"/>
      <point x="148.271" y="1147.73" type="qcurve" smooth="yes"/>
      <point x="129.966" y="1147.73"/>
      <point x="89.6946" y="1162.37"/>
      <point x="89.6946" y="1178.84" type="qcurve" smooth="yes"/>
      <point x="89.6946" y="1200.81"/>
      <point x="122.644" y="1215.45"/>
      <point x="137.288" y="1215.45" type="qcurve"/>
      <point x="135.457" y="1220.95" type="line"/>
      <point x="131.796" y="1222.78"/>
      <point x="113.491" y="1222.78" type="qcurve" smooth="yes"/>
      <point x="104.339" y="1222.78"/>
      <point x="64.0676" y="1193.49"/>
      <point x="60.4066" y="1171.52" type="qcurve"/>
      <point x="60.4066" y="1133.08"/>
      <point x="140.949" y="1090.98"/>
      <point x="201.355" y="1090.98" type="qcurve" smooth="yes"/>
      <point x="258.101" y="1090.98"/>
      <point x="333.151" y="1098.3"/>
      <point x="384.406" y="1116.61"/>
      <point x="421.016" y="1142.23"/>
      <point x="441.151" y="1162.37" type="qcurve"/>
      <point x="448.473" y="1160.54"/>
      <point x="494.236" y="1109.28"/>
      <point x="519.863" y="1072.67" type="qcurve"/>
      <point x="527.185" y="1058.03"/>
      <point x="545.49" y="1010.44"/>
      <point x="558.303" y="959.183"/>
      <point x="569.286" y="907.929"/>
      <point x="572.947" y="891.455" type="qcurve"/>
      <point x="552.812" y="891.455"/>
      <point x="497.897" y="873.15"/>
      <point x="444.812" y="842.031"/>
      <point x="406.372" y="803.591"/>
      <point x="402.711" y="783.455" type="qcurve"/>
      <point x="402.711" y="812.743"/>
      <point x="369.761" y="865.828"/>
      <point x="318.507" y="904.268"/>
      <point x="254.44" y="926.234"/>
      <point x="221.491" y="926.234" type="qcurve" smooth="yes"/>
      <point x="188.542" y="926.234"/>
      <point x="129.966" y="906.099"/>
      <point x="84.2031" y="867.658"/>
      <point x="56.7456" y="814.574"/>
      <point x="56.7456" y="783.455" type="qcurve" smooth="yes"/>
      <point x="56.7456" y="772.472"/>
      <point x="65.8981" y="745.014"/>
      <point x="75.0506" y="745.014" type="qcurve"/>
      <point x="75.0506" y="748.675" type="line"/>
      <point x="69.5591" y="750.506"/>
      <point x="67.7286" y="765.15"/>
      <point x="67.7286" y="766.981" type="qcurve"/>
      <point x="67.7286" y="799.93"/>
      <point x="129.966" y="832.879"/>
      <point x="166.576" y="832.879" type="qcurve" smooth="yes"/>
      <point x="199.525" y="832.879"/>
      <point x="245.287" y="776.133"/>
      <point x="245.287" y="735.862" type="qcurve" smooth="yes"/>
      <point x="245.287" y="626.032" type="line"/>
      <point x="214.169" y="644.337"/>
    </contour>
    <contour>
      <point x="402.711" y="151.932" type="line"/>
      <point x="402.711" y="726.709" type="line" smooth="yes"/>
      <point x="402.711" y="739.523"/>
      <point x="433.829" y="785.286"/>
      <point x="483.253" y="831.048"/>
      <point x="547.32" y="863.997"/>
      <point x="578.439" y="863.997" type="qcurve"/>
      <point x="605.896" y="671.794"/>
      <point x="635.184" y="446.643"/>
      <point x="649.828" y="327.66"/>
      <point x="651.659" y="289.219"/>
      <point x="651.659" y="285.558" type="qcurve"/>
      <point x="474.1" y="104.339" type="line"/>
    </contour>
  </outline>
</glyph>
